<?xml version="1.0" encoding="UTF-8" standalone="no"?>
<!-- Created with Inkscape (http://www.inkscape.org/) -->

<svg
   xmlns:dc="http://purl.org/dc/elements/1.1/"
   xmlns:cc="http://creativecommons.org/ns#"
   xmlns:rdf="http://www.w3.org/1999/02/22-rdf-syntax-ns#"
   xmlns:svg="http://www.w3.org/2000/svg"
   xmlns="http://www.w3.org/2000/svg"
   xmlns:sodipodi="http://sodipodi.sourceforge.net/DTD/sodipodi-0.dtd"
   xmlns:inkscape="http://www.inkscape.org/namespaces/inkscape"
   width="128"
   height="128"
   viewBox="0 0 33.866666 33.866667"
   version="1.1"
   id="svg8"
   sodipodi:docname="present.svg"
   inkscape:version="0.92.5 (2060ec1f9f, 2020-04-08)">
  <defs
     id="defs2">
    <inkscape:perspective
       sodipodi:type="inkscape:persp3d"
       inkscape:vp_x="0.28348214 : 23.075446 : 1"
       inkscape:vp_y="275.63735 : 961.26171 : 0"
       inkscape:vp_z="33.866666 : 13.626041 : 1"
       inkscape:persp3d-origin="16.933333 : 11.288889 : 1"
       id="perspective826" />
  </defs>
  <sodipodi:namedview
     id="base"
     pagecolor="#ffffff"
     bordercolor="#666666"
     borderopacity="1.0"
     inkscape:pageopacity="0.0"
     inkscape:pageshadow="2"
     inkscape:zoom="1.979899"
     inkscape:cx="270.30952"
     inkscape:cy="105.77722"
     inkscape:document-units="mm"
     inkscape:current-layer="layer1"
     showgrid="false"
     fit-margin-top="0"
     fit-margin-left="0"
     fit-margin-right="0"
     fit-margin-bottom="0"
     units="px"
     inkscape:snap-global="true"
     inkscape:snap-bbox="true"
     inkscape:snap-intersection-paths="true"
     inkscape:window-width="1920"
     inkscape:window-height="1016"
     inkscape:window-x="0"
     inkscape:window-y="27"
     inkscape:window-maximized="1" />
  <metadata
     id="metadata5">
    <rdf:RDF>
      <cc:Work
         rdf:about="">
        <dc:format>image/svg+xml</dc:format>
        <dc:type
           rdf:resource="http://purl.org/dc/dcmitype/StillImage" />
        <dc:title></dc:title>
      </cc:Work>
    </rdf:RDF>
  </metadata>
  <g
     inkscape:label="Layer 1"
     inkscape:groupmode="layer"
     id="layer1"
     transform="translate(-105.75774,-122.01592)">
    <g
       id="g872"
       transform="matrix(-0.534798,0,0,0.534798,193.05068,64.377639)"
       style="stroke-width:1.86986494">
      <g
         id="g900"
         transform="translate(2.80633,1.2027129)"
         style="stroke-width:1.86986494">
        <path
           sodipodi:nodetypes="ccccc"
           inkscape:connector-curvature="0"
           id="path842"
           d="m 126.16845,143.0314 6.99256,-3.59078 v -8.59896 l -6.99256,3.68527 z"
           style="fill:#a51a1a;fill-opacity:1;stroke:none;stroke-width:0.49551415;stroke-linecap:butt;stroke-linejoin:round;stroke-miterlimit:4;stroke-dasharray:none;stroke-opacity:1"
           transform="matrix(-1,0,0,1,252.58531,0.0822006)" />
        <path
           sodipodi:nodetypes="ccccc"
           inkscape:connector-curvature="0"
           id="path844"
           d="m 126.16845,134.52693 v 8.50447 l -7.37053,-3.96875 v -8.50447 z"
           style="fill:#d82222;fill-opacity:1;stroke:none;stroke-width:0.49551415;stroke-linecap:butt;stroke-linejoin:round;stroke-miterlimit:4;stroke-dasharray:none;stroke-opacity:1"
           transform="matrix(-1,0,0,1,252.58531,0.0822006)" />
        <path
           style="fill:#df3838;fill-opacity:1;stroke:none;stroke-width:0.49551415;stroke-linecap:butt;stroke-linejoin:round;stroke-miterlimit:4;stroke-dasharray:none;stroke-opacity:1"
           d="m 133.16101,130.84166 -6.99256,3.68527 -7.37053,-3.96875 6.99256,-3.68527 z"
           id="path848"
           inkscape:connector-curvature="0"
           sodipodi:nodetypes="ccccc"
           transform="matrix(-1,0,0,1,252.58531,0.0822006)" />
        <path
           sodipodi:nodetypes="ccccc"
           inkscape:connector-curvature="0"
           id="path850"
           d="m 130.4215,132.24483 -1.98126,1.01257 -7.37053,-3.96875 1.98126,-1.01257 z"
           style="fill:#d5df38;fill-opacity:1;stroke:none;stroke-width:0.49551415;stroke-linecap:butt;stroke-linejoin:round;stroke-miterlimit:4;stroke-dasharray:none;stroke-opacity:1"
           transform="matrix(-1,0,0,1,252.58531,0.0822006)" />
        <path
           style="fill:#cdd822;fill-opacity:1;stroke:none;stroke-width:0.49551415;stroke-linecap:butt;stroke-linejoin:round;stroke-miterlimit:4;stroke-dasharray:none;stroke-opacity:1"
           d="m 123.51246,133.15717 v 8.50447 l -2.05855,-1.12902 v -8.50447 z"
           id="path852"
           inkscape:connector-curvature="0"
           sodipodi:nodetypes="ccccc"
           transform="matrix(-1,0,0,1,252.58531,0.0822006)" />
        <path
           style="fill:#d5df38;fill-opacity:1;stroke:none;stroke-width:0.49551415;stroke-linecap:butt;stroke-linejoin:round;stroke-miterlimit:4;stroke-dasharray:none;stroke-opacity:1"
           d="m 130.4215,132.24483 -1.98126,1.01257 -7.37053,-3.96875 1.98126,-1.01257 z"
           id="path854"
           inkscape:connector-curvature="0"
           sodipodi:nodetypes="ccccc"
           transform="matrix(-1,0,0,1,252.58531,0.0822006)" />
        <path
           sodipodi:nodetypes="ccccc"
           inkscape:connector-curvature="0"
           id="path856"
           d="m 130.50502,129.4719 -6.99256,3.68527 -2.05855,-1.12902 6.99256,-3.68527 z"
           style="fill:#d5df38;fill-opacity:1;stroke:none;stroke-width:0.49551415;stroke-linecap:butt;stroke-linejoin:round;stroke-miterlimit:4;stroke-dasharray:none;stroke-opacity:1"
           transform="matrix(-1,0,0,1,252.58531,0.0822006)" />
        <path
           style="fill:#9da51a;fill-opacity:1;stroke:none;stroke-width:0.49551415;stroke-linecap:butt;stroke-linejoin:round;stroke-miterlimit:4;stroke-dasharray:none;stroke-opacity:1"
           d="m 128.46947,141.84957 1.95203,-1.00578 v -8.59896 l -1.98126,1.01257 z"
           id="path858"
           inkscape:connector-curvature="0"
           sodipodi:nodetypes="ccccc"
           transform="matrix(-1,0,0,1,252.58531,0.0822006)" />
        <g
           id="g866"
           transform="matrix(-1,0,0,1,252.58531,0.0822006)"
           style="stroke-width:1.86986494">
          <path
             style="fill:#d5df38;fill-opacity:1;stroke:none;stroke-width:0.49473506px;stroke-linecap:butt;stroke-linejoin:miter;stroke-opacity:1"
             d="m 125.69598,131.17239 c -3.49628,-0.18899 -7.39416,-5.74051 -4.81919,-6.87444 2.57496,-1.13393 5.88225,4.11049 5.90588,5.19717 l -0.77958,0.77958 c -0.0307,-1.24496 -2.83482,-5.10268 -3.94513,-4.29948 -1.1103,0.8032 1.98438,4.03962 3.23642,4.65383 z"
             id="path860"
             inkscape:connector-curvature="0"
             sodipodi:nodetypes="ccccccc" />
          <path
             sodipodi:nodetypes="ccccc"
             inkscape:connector-curvature="0"
             id="path862"
             d="m 122.41232,124.36882 c 1.27567,-0.23624 4.34672,3.86244 4.37035,5.1263 l -0.98003,0.0822 c -0.51513,-1.24496 -2.6184,-4.51865 -3.94132,-3.20755 -0.84689,-0.52237 -0.7706,-2.22581 0.551,-2.00092 z"
             style="fill:#9da51a;fill-opacity:1;stroke:none;stroke-width:0.49473506px;stroke-linecap:butt;stroke-linejoin:miter;stroke-opacity:1" />
        </g>
        <path
           sodipodi:nodetypes="ccccccc"
           inkscape:connector-curvature="0"
           id="path868"
           d="m 125.69598,131.17239 c -3.49628,-0.18899 -7.39416,-5.74051 -4.81919,-6.87444 2.57496,-1.13393 5.88225,4.11049 5.90588,5.19717 l -0.77958,0.77958 c -0.0307,-1.24496 -2.83482,-5.10268 -3.94513,-4.29948 -1.1103,0.8032 1.98438,4.03962 3.23642,4.65383 z"
           style="fill:#d5df38;fill-opacity:1;stroke:none;stroke-width:0.49473506px;stroke-linecap:butt;stroke-linejoin:miter;stroke-opacity:1" />
        <path
           style="fill:#9da51a;fill-opacity:1;stroke:none;stroke-width:0.49473506px;stroke-linecap:butt;stroke-linejoin:miter;stroke-opacity:1"
           d="m 122.41232,124.36882 c 1.27567,-0.23624 4.34672,3.86244 4.37035,5.1263 l -0.98003,0.0822 c -0.51513,-1.24496 -2.6184,-4.51865 -3.94132,-3.20755 -0.84689,-0.52237 -0.7706,-2.22581 0.551,-2.00092 z"
           id="path870"
           inkscape:connector-curvature="0"
           sodipodi:nodetypes="ccccc" />
      </g>
    </g>
  </g>
</svg>
