<?xml version="1.0" encoding="UTF-8" standalone="no"?>
<!-- Created with Inkscape (http://www.inkscape.org/) -->

<svg
   width="58"
   height="58"
   viewBox="0 0 15.345833 15.345833"
   version="1.1"
   id="svg1"
   xml:space="preserve"
   inkscape:version="1.3 (0e150ed6c4, 2023-07-21)"
   sodipodi:docname="sheep.svg"
   xmlns:inkscape="http://www.inkscape.org/namespaces/inkscape"
   xmlns:sodipodi="http://sodipodi.sourceforge.net/DTD/sodipodi-0.dtd"
   xmlns="http://www.w3.org/2000/svg"
   xmlns:svg="http://www.w3.org/2000/svg"><sodipodi:namedview
     id="namedview1"
     pagecolor="#ffffff"
     bordercolor="#666666"
     borderopacity="1.0"
     inkscape:showpageshadow="2"
     inkscape:pageopacity="0.0"
     inkscape:pagecheckerboard="true"
     inkscape:deskcolor="#d1d1d1"
     inkscape:document-units="mm"
     inkscape:zoom="4.6154441"
     inkscape:cx="3.5749539"
     inkscape:cy="34.774552"
     inkscape:window-width="1280"
     inkscape:window-height="660"
     inkscape:window-x="0"
     inkscape:window-y="23"
     inkscape:window-maximized="1"
     inkscape:current-layer="layer1" /><defs
     id="defs1" /><g
     inkscape:label="Layer 1"
     inkscape:groupmode="layer"
     id="layer1"
     transform="translate(-72.402113,-75.098083)"><path
       id="path1"
       style="fill:#ffffff;stroke-width:0.149773"
       d="m 84.219212,77.138663 c -0.758919,0.01826 -1.511359,0.382046 -1.946924,1.028762 -0.474205,0.440794 -1.610425,0.406851 -1.535792,1.235569 0.113943,0.588264 0.745867,0.499263 1.142846,0.284975 0.0079,0.516321 0.01404,1.032657 0.02368,1.54895 -0.104648,0.967933 0.555312,1.966355 1.531536,2.147615 0.268171,0.05036 0.542847,0.0533 0.814836,0.05704 0.876295,0.07846 1.848724,-0.295379 2.195216,-1.159488 0.284798,-0.709189 0.152161,-1.495765 0.199761,-2.244129 -0.122348,-0.532219 0.288373,-0.2093 0.612599,-0.163462 0.852151,-0.118084 0.550757,-1.241667 -0.189082,-1.291217 -0.662069,-0.157017 -1.021532,-0.722493 -1.54268,-1.090758 -0.392996,-0.251389 -0.850645,-0.364817 -1.305999,-0.353859 z m -5.570969,0.790921 c -0.423198,0.02126 -0.840383,0.199345 -1.111345,0.53079 -0.678778,-0.550814 -1.818621,-0.419749 -2.293509,0.338612 -0.116172,0.51196 -0.393045,0.555978 -0.865068,0.559504 -0.8658,0.199432 -1.29847,1.129503 -1.197642,1.944139 -0.807007,0.415124 -1.011948,1.555805 -0.495652,2.275475 0.476155,0.312948 0.555614,0.693592 0.55455,1.230459 0.160461,0.724544 0.863741,1.185996 1.576193,1.226591 0.0671,0.371726 0.134135,0.743409 0.201233,1.115138 0.191147,0.594877 0.04496,1.522458 0.749669,1.784622 0.286602,0.06677 0.586536,0.05817 0.879076,0.05317 0.789084,0.0897 0.976869,-0.792113 0.881862,-1.394619 0.01266,-0.215956 -0.0251,-0.531582 0.01888,-0.685583 0.542659,0.510844 1.416642,0.6566 2.049864,0.222129 0.276554,-0.293957 0.356407,-0.209548 0.309588,0.162379 0.05161,0.493877 -0.129811,1.083406 0.245118,1.474337 0.527304,0.325659 1.471466,0.356516 1.923782,-0.123292 0.296632,-0.840424 0.383638,-1.7406 0.572043,-2.610837 0.810147,-0.03546 1.572814,-0.687339 1.603746,-1.522943 0.162313,-0.39474 -0.268347,-0.243294 -0.510822,-0.276076 -0.328053,0.02676 -0.866669,-0.29741 -0.665847,0.258274 -0.271868,0.666269 -1.446417,0.09715 -1.675029,0.980156 -0.119695,0.811405 -0.854988,0.431181 -1.326664,0.226233 -0.750061,-0.212248 -1.284439,1.054476 -1.912096,0.17809 -0.595062,-0.517252 -1.227526,0.163223 -1.807146,0.09419 -0.32527,-0.526505 -0.679978,-1.273126 -1.464354,-1.138744 -0.936131,0.0085 -0.171906,-1.221674 -0.831864,-1.612802 -0.759484,-0.316965 -0.407735,-0.936036 0.111684,-1.260567 0.470103,-0.402502 -0.141214,-1.343692 0.561438,-1.471939 0.866435,0.172507 1.265632,-0.619135 1.664271,-1.175197 0.605296,0.134605 1.337385,0.612885 1.917514,0.01811 0.62339,-0.723863 0.93438,0.553499 1.587493,0.506952 0.236001,-0.102443 -0.164389,-0.87848 0.112921,-1.203758 -0.265723,-0.498448 -0.819776,-0.730326 -1.363892,-0.702998 z m 6.825422,1.519693 a 0.51536898,0.51536898 0 0 1 0.515387,0.515309 0.51536898,0.51536898 0 0 1 -0.515387,0.515389 0.51536898,0.51536898 0 0 1 -0.515311,-0.515389 0.51536898,0.51536898 0 0 1 0.515311,-0.515309 z m -1.587183,0.02957 a 0.51536898,0.51536898 0 0 1 0.515388,0.515388 0.51536898,0.51536898 0 0 1 -0.515388,0.515387 0.51536898,0.51536898 0 0 1 -0.51531,-0.515387 0.51536898,0.51536898 0 0 1 0.51531,-0.515388 z" /><path
       style="fill:#ffffff;stroke:#f9f9f9;stroke-width:0.649;stroke-linecap:round;stroke-linejoin:miter;stroke-dasharray:none;stroke-opacity:1"
       d="m 84.238251,79.212836 c 0.04604,0.284872 -0.219803,0.619789 -0.219803,0.619789"
       id="path4" /><path
       style="fill:#ffffff;stroke:#f9f9f9;stroke-width:0.649;stroke-linecap:round;stroke-linejoin:miter;stroke-dasharray:none;stroke-opacity:1"
       d="m 85.821422,79.211387 c 0.04604,0.284872 -0.219804,0.619789 -0.219804,0.619789"
       id="path5" /></g></svg>
