<?xml version="1.0" encoding="UTF-8" standalone="no"?>
<svg
   xmlns:dc="http://purl.org/dc/elements/1.1/"
   xmlns:cc="http://creativecommons.org/ns#"
   xmlns:rdf="http://www.w3.org/1999/02/22-rdf-syntax-ns#"
   xmlns:svg="http://www.w3.org/2000/svg"
   xmlns="http://www.w3.org/2000/svg"
   xmlns:sodipodi="http://sodipodi.sourceforge.net/DTD/sodipodi-0.dtd"
   xmlns:inkscape="http://www.inkscape.org/namespaces/inkscape"
   version="1.1"
   id="svg8"
   sodipodi:docname="template.svg"
   width="128"
   height="64"
   inkscape:version="0.92.5 (2060ec1f9f, 2020-04-08)"
   inkscape:export-filename="/home/severinlemaignan/src/towerdefense/res/splats/splat00.png"
   inkscape:export-xdpi="96"
   inkscape:export-ydpi="96">
  <metadata
     id="metadata12">
    <rdf:RDF>
      <cc:Work
         rdf:about="">
        <dc:format>image/svg+xml</dc:format>
        <dc:type
           rdf:resource="http://purl.org/dc/dcmitype/StillImage" />
        <dc:title></dc:title>
      </cc:Work>
    </rdf:RDF>
  </metadata>
  <sodipodi:namedview
     pagecolor="#414141"
     bordercolor="#666666"
     borderopacity="1"
     objecttolerance="10"
     gridtolerance="10"
     guidetolerance="10"
     inkscape:pageopacity="0"
     inkscape:pageshadow="2"
     inkscape:window-width="1920"
     inkscape:window-height="1016"
     id="namedview10"
     showgrid="false"
     inkscape:snap-page="true"
     inkscape:zoom="2.36"
     inkscape:cx="-1.9067797"
     inkscape:cy="49.364407"
     inkscape:window-x="0"
     inkscape:window-y="27"
     inkscape:window-maximized="1"
     inkscape:current-layer="layer2" />
  <defs
     id="defs2" />
  <g
     inkscape:groupmode="layer"
     id="layer1"
     inkscape:label="template"
     sodipodi:insensitive="true"
     style="display:inline">
    <path
       style="opacity:1;vector-effect:none;fill:none;fill-opacity:1;stroke:#000000;stroke-width:1;stroke-linecap:butt;stroke-linejoin:miter;stroke-miterlimit:4;stroke-dasharray:none;stroke-dashoffset:0;stroke-opacity:1"
       d="M 64,0 128,32 64,64 -1.1389859e-8,32 Z"
       id="rect822"
       inkscape:connector-curvature="0"
       sodipodi:nodetypes="ccccc" />
  </g>
  <g
     inkscape:groupmode="layer"
     id="layer2"
     inkscape:label="splat">
    <g
       id="g6"
       style="fill:#ffffff;stroke-width:1.58781242"
       transform="matrix(0.67144087,0.29239504,-0.71785586,0.27812905,66.797333,33.94127)"
       inkscape:transform-center-x="-1.2711864"
       inkscape:transform-center-y="-2.9661017">
      <path
         d="m -31.05,-39.3 q 1.45,1.45 3.35,1.9 l 3.85,-0.1 q 1.9,-0.6 3.25,-2.1 1.3,-1.45 1.7,-3.4 0.6,-3.25 2.95,-5.55 2.45,-2.4 5.85,-2.9 4.3,-0.65 7.8,1.95 3.5,2.6 4.15,6.95 0.75,4.9 0.4,9.3 -0.1,2 0.8,3.8 0.9,1.8 2.6,2.85 1.7,1.05 3.7,1.05 2,0.05 3.7,-0.95 2.85,-1.7 6.95,-3.85 3.9,-2 8.05,-0.7 4.2,1.35 6.2,5.25 1.45,2.7 1.15,5.85 -0.35,2.95 -2.15,5.35 -1.2,1.55 -1.45,3.5 -0.2,2 0.55,3.75 0.8,1.85 2.4,2.95 1.6,1.15 3.6,1.35 l 7.6,0.85 q 4.35,0.6 7,4.1 2.65,3.5 2,7.8 -0.6,4.35 -4.1,7 -3.5,2.6 -7.8,2 L 39.25,18 34.9,18.3 q -2.15,0.85 -3.35,2.8 -1.25,1.9 -1.15,4.2 0.1,2.25 1.5,4.1 2.4,3 2.25,6.9 -0.15,3.95 -2.85,6.8 -3,3.2 -7.35,3.35 -4.4,0.1 -7.55,-2.85 Q 8.45,36.15 5.35,26.5 4.55,23.9 2.2,22.55 q -2.35,-1.4 -5.05,-0.85 -2.65,0.5 -4.3,2.7 -1.65,2.2 -1.45,4.9 0.45,5.4 0.45,11.8 0,4.4 -3.1,7.45 -3.1,3.1 -7.45,3.1 -4.35,0 -7.5,-3.1 -3.1,-3.05 -3.1,-7.45 0,-6.4 1.75,-12.15 0.65,-2.1 0,-4.2 -0.6,-2.1 -2.3,-3.45 -1.7,-1.4 -3.9,-1.6 -2.2,-0.15 -4.1,0.9 -3.65,2 -7.65,1 -4.05,-1 -6.35,-4.5 -2.35,-3.7 -1.4,-8 0.9,-4.25 4.55,-6.65 7.9,-5 16.35,-6.2 2.4,-0.35 4.1,-2.05 1.7,-1.7 2,-4.1 0.35,-2.4 -0.85,-4.5 -1.2,-2.1 -3.4,-3.05 -10.4,-4.5 -19.45,-9.9 -3.7,-2.25 -4.8,-6.5 -1.05,-4.25 1.2,-8 2.25,-3.75 6.5,-4.8 4.25,-1.05 7.95,1.2 4.55,2.7 8.05,6.15"
         id="path4"
         style="fill:#ffffff;stroke:none;stroke-width:1.58781242"
         inkscape:connector-curvature="0" />
    </g>
  </g>
</svg>
