<?xml version="1.0" encoding="UTF-8" standalone="no"?>
<!-- Created with Inkscape (http://www.inkscape.org/) -->

<svg
   id="svg11170"
   version="1.1"
   viewBox="0 0 34.924999 26.19375"
   height="26.19375mm"
   width="34.924999mm"
   inkscape:version="1.3 (0e150ed6c4, 2023-07-21)"
   sodipodi:docname="target_overlay.svg"
   xmlns:inkscape="http://www.inkscape.org/namespaces/inkscape"
   xmlns:sodipodi="http://sodipodi.sourceforge.net/DTD/sodipodi-0.dtd"
   xmlns="http://www.w3.org/2000/svg"
   xmlns:svg="http://www.w3.org/2000/svg"
   xmlns:rdf="http://www.w3.org/1999/02/22-rdf-syntax-ns#"
   xmlns:cc="http://creativecommons.org/ns#"
   xmlns:dc="http://purl.org/dc/elements/1.1/">
  <defs
     id="defs11164">
    <filter
       inkscape:collect="always"
       style="color-interpolation-filters:sRGB"
       id="filter1"
       x="-0.060563505"
       y="-0.11773379"
       width="1.121127"
       height="1.2354676">
      <feGaussianBlur
         inkscape:collect="always"
         stdDeviation="0.45147902"
         id="feGaussianBlur1" />
    </filter>
  </defs>
  <sodipodi:namedview
     id="base"
     pagecolor="#ffffff"
     bordercolor="#666666"
     borderopacity="1.0"
     inkscape:pageopacity="0.0"
     inkscape:pageshadow="2"
     inkscape:zoom="3.6088482"
     inkscape:cx="85.207242"
     inkscape:cy="16.210158"
     inkscape:document-units="mm"
     inkscape:current-layer="layer1"
     showgrid="false"
     fit-margin-top="0"
     fit-margin-left="0"
     fit-margin-right="0"
     fit-margin-bottom="0"
     inkscape:window-width="1280"
     inkscape:window-height="660"
     inkscape:window-x="0"
     inkscape:window-y="23"
     inkscape:window-maximized="1"
     inkscape:showpageshadow="2"
     inkscape:pagecheckerboard="0"
     inkscape:deskcolor="#d1d1d1" />
  <metadata
     id="metadata11167">
    <rdf:RDF>
      <cc:Work
         rdf:about="">
        <dc:format>image/svg+xml</dc:format>
        <dc:type
           rdf:resource="http://purl.org/dc/dcmitype/StillImage" />
        <dc:title />
      </cc:Work>
    </rdf:RDF>
  </metadata>
  <g
     inkscape:label="Layer 1"
     inkscape:groupmode="layer"
     id="layer1"
     transform="translate(-77.03154,-107.01026)">
    <path
       inkscape:connector-curvature="0"
       d="m 96.750174,114.87571 c 0.620147,0.32002 0.931644,0.70379 0.934848,1.15097 0.0037,0.44672 -0.301931,0.82819 -0.917179,1.14474 -0.615248,0.31655 -1.3575,0.47453 -2.227111,0.4743 -0.883183,0.007 -1.636767,-0.1476 -2.260388,-0.46414 -0.63689,-0.32328 -0.950773,-0.71149 -0.941282,-1.16501 0.01007,-0.44044 0.324625,-0.82084 0.943332,-1.14085 0.618706,-0.32002 1.356667,-0.48372 2.213538,-0.49076 0.869603,2.3e-4 1.620899,0.16393 2.254242,0.49075 m 4.076546,-2.10275 c -1.732791,-0.90766 -3.829517,-1.36737 -6.292103,-1.37615 0,0 -0.02012,0.0105 -0.02012,0.0105 0,0 -0.01924,-0.01 -0.01924,-0.01 -2.466473,0.009 -4.574102,0.46808 -6.320659,1.37573 -1.759764,0.91453 -2.638083,2.01092 -2.630157,3.28594 0.02491,1.26437 0.919876,2.33503 2.680181,3.21518 1.760289,0.88015 3.874066,1.32127 6.340675,1.32603 2.475818,0.002 4.579411,-0.43922 6.311463,-1.32603 1.71906,-0.88015 2.57036,-1.95441 2.55864,-3.22562 -0.008,-1.27505 -0.87585,-2.36784 -2.60863,-3.27549 0,0 -4e-5,-2e-5 -4e-5,-2e-5 m -2.362903,1.21896 c 1.092798,0.56747 1.653713,1.25151 1.685393,2.05143 -0.006,0.79151 -0.550623,1.46503 -1.634769,2.02168 -1.097182,0.56335 -2.410013,0.84433 -3.938055,0.84359 0,0 -0.01943,-0.01 -0.01943,-0.01 -1.555933,7.5e-4 -2.885824,-0.2767 -3.989457,-0.83334 -1.103634,-0.55664 -1.659627,-1.23333 -1.666521,-2.03168 -0.01858,-0.79302 0.526925,-1.4778 1.635101,-2.05215 1.095009,-0.56751 2.421321,-0.85189 3.977242,-0.85264 1.541247,0.008 2.857719,0.29549 3.950517,0.86296 0,0 -2.5e-5,-1e-5 -2.5e-5,-1e-5"
       style="fill:#dda818;stroke:none;stroke-width:0.26458332;opacity:0.56371655;fill-opacity:1;filter:url(#filter1)"
       id="path1" />
    <path
       inkscape:connector-curvature="0"
       d="m 96.750174,114.87571 c 0.620147,0.32002 0.931644,0.70379 0.934848,1.15097 0.0037,0.44672 -0.301931,0.82819 -0.917179,1.14474 -0.615248,0.31655 -1.3575,0.47453 -2.227111,0.4743 -0.883183,0.007 -1.636767,-0.1476 -2.260388,-0.46414 -0.63689,-0.32328 -0.950773,-0.71149 -0.941282,-1.16501 0.01007,-0.44044 0.324625,-0.82084 0.943332,-1.14085 0.618706,-0.32002 1.356667,-0.48372 2.213538,-0.49076 0.869603,2.3e-4 1.620899,0.16393 2.254242,0.49075 m 4.076546,-2.10275 c -1.732791,-0.90766 -3.829517,-1.36737 -6.292103,-1.37615 0,0 -0.02012,0.0105 -0.02012,0.0105 0,0 -0.01924,-0.01 -0.01924,-0.01 -2.466473,0.009 -4.574102,0.46808 -6.320659,1.37573 -1.759764,0.91453 -2.638083,2.01092 -2.630157,3.28594 0.02491,1.26437 0.919876,2.33503 2.680181,3.21518 1.760289,0.88015 3.874066,1.32127 6.340675,1.32603 2.475818,0.002 4.579411,-0.43922 6.311463,-1.32603 1.71906,-0.88015 2.57036,-1.95441 2.55864,-3.22562 -0.008,-1.27505 -0.87585,-2.36784 -2.60863,-3.27549 0,0 -4e-5,-2e-5 -4e-5,-2e-5 m -2.362903,1.21896 c 1.092798,0.56747 1.653713,1.25151 1.685393,2.05143 -0.006,0.79151 -0.550623,1.46503 -1.634769,2.02168 -1.097182,0.56335 -2.410013,0.84433 -3.938055,0.84359 0,0 -0.01943,-0.01 -0.01943,-0.01 -1.555933,7.5e-4 -2.885824,-0.2767 -3.989457,-0.83334 -1.103634,-0.55664 -1.659627,-1.23333 -1.666521,-2.03168 -0.01858,-0.79302 0.526925,-1.4778 1.635101,-2.05215 1.095009,-0.56751 2.421321,-0.85189 3.977242,-0.85264 1.541247,0.008 2.857719,0.29549 3.950517,0.86296 0,0 -2.5e-5,-1e-5 -2.5e-5,-1e-5"
       style="fill:#b72414;stroke:none;stroke-width:0.26458332;opacity:0.33315896;fill-opacity:1"
       id="path12239" />
  </g>
</svg>
