<?xml version="1.0" encoding="UTF-8" standalone="no"?>
<!-- Created with Inkscape (http://www.inkscape.org/) -->

<svg
   width="27.252083mm"
   height="39.7869mm"
   viewBox="0 0 27.252083 39.7869"
   version="1.1"
   id="svg13820"
   inkscape:version="1.3 (0e150ed6c4, 2023-07-21)"
   sodipodi:docname="tower2_splats.svg"
   xml:space="preserve"
   inkscape:export-filename="tower2_splats.png"
   inkscape:export-xdpi="96"
   inkscape:export-ydpi="96"
   xmlns:inkscape="http://www.inkscape.org/namespaces/inkscape"
   xmlns:sodipodi="http://sodipodi.sourceforge.net/DTD/sodipodi-0.dtd"
   xmlns="http://www.w3.org/2000/svg"
   xmlns:svg="http://www.w3.org/2000/svg"
   xmlns:rdf="http://www.w3.org/1999/02/22-rdf-syntax-ns#"
   xmlns:cc="http://creativecommons.org/ns#"
   xmlns:dc="http://purl.org/dc/elements/1.1/"><defs
     id="defs13814" /><sodipodi:namedview
     id="base"
     pagecolor="#585858"
     bordercolor="#666666"
     borderopacity="1.0"
     inkscape:pageopacity="0"
     inkscape:pageshadow="2"
     inkscape:zoom="1.8087781"
     inkscape:cx="17.691501"
     inkscape:cy="56.115231"
     inkscape:document-units="mm"
     inkscape:current-layer="layer1"
     showgrid="false"
     inkscape:snap-global="false"
     fit-margin-top="0"
     fit-margin-left="0"
     fit-margin-right="0"
     fit-margin-bottom="0"
     inkscape:window-width="1280"
     inkscape:window-height="660"
     inkscape:window-x="0"
     inkscape:window-y="23"
     inkscape:window-maximized="1"
     inkscape:showpageshadow="2"
     inkscape:pagecheckerboard="0"
     inkscape:deskcolor="#d1d1d1" /><metadata
     id="metadata13817"><rdf:RDF><cc:Work
         rdf:about=""><dc:format>image/svg+xml</dc:format><dc:type
           rdf:resource="http://purl.org/dc/dcmitype/StillImage" /><dc:title /></cc:Work></rdf:RDF></metadata><g
     inkscape:label="Layer 1"
     inkscape:groupmode="layer"
     id="layer1"
     transform="translate(-117.30931,-160.03017)"><path
       style="fill:#ffffff;stroke:none;stroke-width:0.217896;opacity:0.79931528"
       d="m 124.31382,183.6251 c -0.048,-0.0272 -0.0887,-0.0276 -0.12197,-6.1e-4 -0.0423,0.0382 -0.0585,0.11499 -0.0484,0.22983 0.0424,0.52992 0.1523,1.07793 0.3298,1.64472 0.0263,0.0845 0.0404,0.16179 0.0424,0.23238 0.004,0.0698 -0.004,0.12386 -0.0241,0.16195 -0.0182,0.0372 -0.0465,0.0546 -0.0848,0.0525 -0.0383,-0.005 -0.0797,-0.0306 -0.12408,-0.0745 l -0.0603,-0.0509 c -0.0565,-0.0393 -0.1051,-0.0478 -0.14545,-0.0254 -0.0404,0.0165 -0.0653,0.061 -0.0754,0.13357 -0.008,0.0479 -0.0245,0.0812 -0.0487,0.1 l -0.0876,0.0139 -0.11181,-0.0835 c -0.0383,-0.0438 -0.0747,-0.0958 -0.109,-0.15608 l -0.72025,-1.32046 -0.19661,-0.23153 c -0.0665,-0.0412 -0.11674,-0.0342 -0.15107,0.0215 -0.0323,0.0578 -0.0376,0.14892 -0.0154,0.27367 0.0222,0.12475 0.0647,0.24454 0.12722,0.35868 l 0.0725,0.1307 c 0.0585,0.10098 0.0987,0.20643 0.12092,0.31636 0.0262,0.10827 0.0304,0.19751 0.0123,0.26742 -0.0182,0.0669 -0.0534,0.0977 -0.10585,0.0925 -0.0545,-0.0135 -0.11194,-0.0601 -0.17244,-0.13922 l -0.51766,-0.67622 c -0.0686,-0.0879 -0.13178,-0.13315 -0.19031,-0.13596 -0.0585,-0.003 -0.0929,0.0423 -0.10304,0.13567 -0.0121,0.0942 0.003,0.20586 0.0456,0.33418 0.0404,0.12625 0.0948,0.23462 0.16333,0.32549 l 0.20258,0.25148 c 0.0585,0.0653 0.10986,0.15304 0.15421,0.26271 0.0423,0.10757 0.0676,0.21011 0.0757,0.30792 0.006,0.0927 -0.007,0.15909 -0.0393,0.19908 -0.0343,0.0348 -0.0795,0.0357 -0.13599,0.002 l -0.63543,-0.39578 c -0.0908,-0.055 -0.15857,-0.044 -0.20292,0.0336 -0.0464,0.0726 -0.0564,0.18949 -0.0301,0.35131 0.0282,0.16687 0.0846,0.32826 0.16929,0.48393 0.0827,0.15352 0.17042,0.26041 0.26321,0.3206 0.29248,0.18068 0.54989,0.263 0.77177,0.24621 0.0383,-8.6e-4 0.0805,0.0193 0.12687,0.0594 l 0.13634,0.18067 c 0.0404,0.0786 0.0736,0.16019 0.0999,0.24469 0.0242,0.0882 0.0361,0.16609 0.0361,0.23449 l 0.009,0.16615 c 0.008,0.0829 0.002,0.14789 -0.0182,0.19478 -0.0201,0.047 -0.0524,0.0674 -0.0967,0.0617 l -1.06792,-0.16055 c -0.0606,-0.008 -0.0981,0.0324 -0.11216,0.12144 -0.0161,0.0869 -0.006,0.19303 0.0305,0.31811 0.0383,0.13004 0.0916,0.24198 0.16017,0.33586 0.0686,0.0972 0.13332,0.15049 0.19382,0.16146 0.35905,0.0493 0.61723,-0.1159 0.77457,-0.49555 l 0.0634,-0.0613 c 0.0282,-0.005 0.0604,0.002 0.0967,0.0225 l 0.10585,0.1039 c 0.0363,0.0476 0.0696,0.10088 0.0999,0.15994 0.0524,0.11236 0.11102,0.21174 0.17559,0.29837 l 0.19066,0.2209 c 0.0504,0.0478 0.0987,0.11255 0.1451,0.19473 0.0444,0.08 0.0788,0.16421 0.10305,0.25242 0.0241,0.0912 0.0342,0.17077 0.0301,0.23782 -0.002,0.0722 -0.0181,0.12307 -0.0484,0.15333 l -0.6172,0.49829 c -0.0424,0.0382 -0.0608,0.11206 -0.0547,0.22263 0.0101,0.11484 0.0434,0.23369 0.0999,0.35631 0.0545,0.12345 0.11804,0.21801 0.19066,0.28344 0.0706,0.0603 0.12808,0.0741 0.17244,0.041 0.13515,-0.11478 0.23818,-0.28033 0.30877,-0.49659 0.0242,-0.0694 0.0675,-0.0921 0.13003,-0.0668 l 0.19067,0.18993 0.18751,0.20854 c 0.0646,0.042 0.117,0.0441 0.15736,0.007 0.0847,-0.0733 0.15135,-0.17336 0.19978,-0.30023 0.0182,-0.052 0.0484,-0.0775 0.0908,-0.077 0.0444,0.003 0.0915,0.0322 0.14195,0.0889 0.0524,0.0589 0.0999,0.13473 0.1423,0.22748 0.0443,0.0919 0.0746,0.18165 0.0908,0.27026 l 0.15141,0.8396 c 0.0282,0.14606 0.0784,0.28425 0.15106,0.41518 l 0.0582,0.0674 6.8e-4,0.11297 0.12723,0.0358 0.0469,0.0542 -6.8e-4,-0.0416 0.0596,0.0169 c 0.0787,-0.0242 0.13727,-0.088 0.17559,-0.191 0.0364,-0.10633 0.0401,-0.21864 0.0119,-0.33684 -0.0484,-0.22602 -0.11698,-0.43486 -0.20573,-0.62663 -0.0364,-0.0811 -0.0524,-0.16595 -0.0484,-0.25438 0.004,-0.0914 0.0282,-0.16429 0.0725,-0.21864 0.0444,-0.0572 0.098,-0.0829 0.16051,-0.0774 0.0605,0.005 0.11491,0.0405 0.16334,0.10591 l 0.25129,0.32258 c 0.0686,0.0869 0.14292,0.13044 0.22361,0.13037 0.0827,-0.003 0.14932,-0.0486 0.19978,-0.13745 0.0363,-0.0648 0.0573,-0.14286 0.0634,-0.2339 0.002,-0.0859 -0.0118,-0.17119 -0.0421,-0.25702 -0.0263,-0.0703 -0.0377,-0.14387 -0.0336,-0.2204 0.006,-0.0761 0.0263,-0.14123 0.0606,-0.19443 0.0343,-0.0531 0.0768,-0.0838 0.12723,-0.0924 l 0.15421,0.0462 0.60529,0.46798 0.13002,0.0283 c 0.0465,-0.0212 0.0786,-0.0627 0.0967,-0.12477 0.0165,-0.0623 0.0154,-0.12789 -0.003,-0.19665 -0.0182,-0.0688 -0.0492,-0.12212 -0.0936,-0.15999 -0.37921,-0.29574 -0.75041,-0.48614 -1.11348,-0.57064 -0.0484,-0.009 -0.0928,-0.0389 -0.13319,-0.0913 -0.0404,-0.049 -0.0694,-0.1091 -0.0876,-0.18088 -0.0182,-0.0718 -0.0224,-0.14427 -0.0123,-0.21678 0.0121,-0.0661 0.0363,-0.12094 0.0726,-0.16489 0.0484,-0.0625 0.0779,-0.14344 0.088,-0.2427 0.006,-0.0613 0.021,-0.11496 0.0452,-0.16104 0.0242,-0.0461 0.0556,-0.079 0.0939,-0.0987 l 0.3235,-0.16804 c 0.0484,-0.0238 0.0867,-0.066 0.11496,-0.12629 0.0323,-0.0536 0.0506,-0.11697 0.0547,-0.1906 0.006,-0.0614 0.021,-0.11548 0.0452,-0.16157 0.0263,-0.0457 0.0577,-0.0786 0.0939,-0.0987 l 0.96523,-0.49633 c 0.0383,-0.0168 0.0636,-0.0522 0.0757,-0.10651 0.014,-0.0539 0.0119,-0.10894 -0.006,-0.16574 -0.0161,-0.0535 -0.0441,-0.094 -0.0845,-0.12256 l -0.109,-0.016 c -0.33081,0.17123 -0.60929,0.40302 -0.8352,0.69462 -0.0404,0.0461 -0.0878,0.0715 -0.1423,0.0764 -0.0565,-0.001 -0.10782,-0.0254 -0.15421,-0.0726 l -0.12407,-0.0812 -0.13003,0.003 -0.16052,-0.0208 c -0.0545,-0.0367 -0.0985,-0.0924 -0.13283,-0.1671 -0.0323,-0.0773 -0.0465,-0.15707 -0.0424,-0.23961 0.004,-0.0825 0.0251,-0.15333 0.0634,-0.21169 l 0.0876,-0.12194 c 0.0464,-0.0718 0.0679,-0.15989 0.0638,-0.26472 -0.002,-0.10447 -0.0296,-0.19622 -0.082,-0.27428 -0.0524,-0.081 -0.1149,-0.12458 -0.18751,-0.13201 -0.0726,-0.007 -0.132,0.0231 -0.17839,0.092 -0.0767,0.11083 -0.14636,0.23174 -0.20889,0.36302 -0.0282,0.0632 -0.0674,0.10545 -0.11777,0.12596 l -0.003,-8e-4 -0.0908,0.006 -0.001,-6.5e-4 c -0.0625,-0.0115 -0.11581,-0.052 -0.16017,-0.12298 -0.0343,-0.048 -0.0585,-0.10779 -0.0725,-0.17876 -0.0138,-0.0649 -0.0149,-0.13051 -0.003,-0.19664 0.0161,-0.0892 0.008,-0.18119 -0.0242,-0.2763 -0.0184,-0.0525 -0.0427,-0.0967 -0.0715,-0.13379 -0.0319,-0.10612 -0.0747,-0.20586 -0.13249,-0.29663 -0.0565,-0.0899 -0.11201,-0.14879 -0.16648,-0.17713 -0.0585,-0.0323 -0.10181,-0.0254 -0.13003,0.0219 -0.0282,0.0323 -0.0665,0.0371 -0.11496,0.0157 l -0.1514,-0.13885 c -0.0504,-0.0716 -0.0926,-0.15554 -0.12688,-0.25154 -0.0363,-0.0922 -0.0585,-0.18093 -0.0666,-0.26683 l -0.11496,-1.45191 c -0.008,-0.1127 -0.0406,-0.23076 -0.0971,-0.3534 -0.0565,-0.12553 -0.11972,-0.21991 -0.19031,-0.28327 -0.0176,-0.0155 -0.0348,-0.0269 -0.0508,-0.036 z"
       id="path15075" /><path
       stroke="none"
       fill="#ffffff"
       d="m 135.04754,190.17492 q 0.023,-0.11926 3.8e-4,-0.23664 -0.0224,-0.11721 -0.0866,-0.1846 -0.17297,-0.19173 -0.25133,-0.50469 -0.0765,-0.32512 -0.0267,-0.66401 0.0451,-0.3066 0.17973,-0.53755 0.13403,-0.22689 0.31705,-0.31946 0.0514,-0.0254 0.0912,-0.0803 0.0403,-0.0586 0.0598,-0.13696 0.0622,-0.22493 0.19846,-0.3412 0.13936,-0.11942 0.29093,-0.0701 0.0683,0.0223 0.12408,0.0742 0.0533,0.0512 0.11943,0.0518 0.0636,-4.6e-4 0.11857,-0.0501 0.0555,-0.0539 0.0894,-0.13996 l 0.0336,-0.19195 0.0188,-0.21794 q 0.0623,-0.42362 0.29322,-0.66124 0.23086,-0.23763 0.49357,-0.15197 0.13388,0.0436 0.24267,0.16788 0.066,0.0724 0.14606,0.0687 0.0806,-0.008 0.14532,-0.088 0.0628,-0.0853 0.0812,-0.21029 0.0178,-0.12101 -0.0127,-0.23669 -0.0591,-0.20953 -0.0719,-0.42929 -0.0134,-0.23265 0.0205,-0.4626 0.0843,-0.57288 0.39689,-0.89802 0.3151,-0.32435 0.6738,-0.20745 0.36124,0.11769 0.55387,0.6075 0.19518,0.49061 0.11088,1.0635 l -0.0477,0.2339 q -0.0342,0.12417 -0.0109,0.25433 0.0238,0.12606 0.0925,0.19925 0.28666,0.30058 0.41527,0.81177 0.13248,0.5209 0.05,1.08168 l -0.0106,0.0686 q -0.0193,0.11626 0.008,0.23104 0.0262,0.10995 0.0884,0.17258 0.17537,0.17552 0.25297,0.47562 0.0815,0.30981 0.0322,0.64467 -0.063,0.42762 -0.30003,0.67168 -0.23711,0.24405 -0.5074,0.15592 -0.17682,-0.0577 -0.30702,-0.25222 -0.0543,-0.081 -0.13181,-0.0937 -0.0751,-0.0111 -0.14189,0.0468 -0.0674,0.0626 -0.10169,0.1698 l -0.0228,0.22929 q 0.024,0.21498 -0.008,0.43285 -0.0648,0.43974 -0.30361,0.69589 -0.23887,0.25614 -0.516,0.17853 -0.079,-0.0209 -0.15141,0.0395 -0.072,0.0569 -0.10739,0.17217 -0.10651,0.34577 -0.32589,0.52373 -0.22198,0.17711 -0.46195,0.0989 -0.28293,-0.0923 -0.43499,-0.47996 -0.15265,-0.38376 -0.0867,-0.83157 0.0339,-0.22995 0.12279,-0.42083 l 0.0459,-0.25984 q -0.006,-0.13743 -0.0688,-0.23383 -0.0937,-0.13632 -0.16274,-0.31516 -0.0459,-0.12069 -0.12737,-0.15988 -0.0841,-0.0403 -0.1667,0.0175 -0.0801,0.0584 -0.11992,0.18502 -0.0398,0.12653 -0.0196,0.25994 0.0253,0.15196 0.001,0.31333 -0.0403,0.27434 -0.19011,0.42847 -0.14976,0.15418 -0.32154,0.0981 -0.17176,-0.0559 -0.26452,-0.28913 -0.0928,-0.23316 -0.0524,-0.50751 l 0.0109,-0.0599"
       id="path1"
       style="stroke-width:0.0653599;opacity:0.79931528" /><ellipse
       style="fill:#f9f9f9;stroke-width:5.48272;-inkscape-stroke:none;opacity:0.54461388"
       id="path2"
       cx="131.07164"
       cy="174.29172"
       rx="8.2251759"
       ry="4.7510395" /></g></svg>
