<?xml version="1.0" encoding="UTF-8" standalone="no"?>
<!-- Created with Inkscape (http://www.inkscape.org/) -->

<svg
   xmlns:dc="http://purl.org/dc/elements/1.1/"
   xmlns:cc="http://creativecommons.org/ns#"
   xmlns:rdf="http://www.w3.org/1999/02/22-rdf-syntax-ns#"
   xmlns:svg="http://www.w3.org/2000/svg"
   xmlns="http://www.w3.org/2000/svg"
   xmlns:sodipodi="http://sodipodi.sourceforge.net/DTD/sodipodi-0.dtd"
   xmlns:inkscape="http://www.inkscape.org/namespaces/inkscape"
   width="27.252083mm"
   height="39.7869mm"
   viewBox="0 0 27.252083 39.7869"
   version="1.1"
   id="svg13820"
   inkscape:version="0.92.5 (2060ec1f9f, 2020-04-08)"
   sodipodi:docname="tower2_splats.svg">
  <defs
     id="defs13814" />
  <sodipodi:namedview
     id="base"
     pagecolor="#585858"
     bordercolor="#666666"
     borderopacity="1.0"
     inkscape:pageopacity="0"
     inkscape:pageshadow="2"
     inkscape:zoom="5.6"
     inkscape:cx="76.244555"
     inkscape:cy="89.074997"
     inkscape:document-units="mm"
     inkscape:current-layer="layer1"
     showgrid="false"
     inkscape:snap-global="false"
     fit-margin-top="0"
     fit-margin-left="0"
     fit-margin-right="0"
     fit-margin-bottom="0"
     inkscape:window-width="1920"
     inkscape:window-height="1016"
     inkscape:window-x="0"
     inkscape:window-y="27"
     inkscape:window-maximized="1" />
  <metadata
     id="metadata13817">
    <rdf:RDF>
      <cc:Work
         rdf:about="">
        <dc:format>image/svg+xml</dc:format>
        <dc:type
           rdf:resource="http://purl.org/dc/dcmitype/StillImage" />
        <dc:title></dc:title>
      </cc:Work>
    </rdf:RDF>
  </metadata>
  <g
     inkscape:label="Layer 1"
     inkscape:groupmode="layer"
     id="layer1"
     transform="translate(-117.30931,-160.03017)">
    <path
       style="fill:#ffffff;stroke:none;stroke-width:0.26458332px;stroke-linecap:butt;stroke-linejoin:miter;stroke-opacity:1"
       d="m 130.94008,165.46849 4.65383,2.3151 -1.48828,0.59059 0.0472,1.88988 -1.46465,0.92131 -0.0708,-0.44884 -1.65365,-0.92132 -1.72452,1.13393 -1.29929,-0.61421 0.0472,-1.81901 -1.39379,-0.8032 z"
       id="path14501"
       inkscape:connector-curvature="0"
       sodipodi:nodetypes="cccccccccccc" />
    <path
       style="fill:#ffffff;stroke:none;stroke-width:0.99999994"
       d="M 43.126953 68.1875 C 42.859255 68.172494 42.632651 68.245211 42.447266 68.408203 C 42.211423 68.629872 42.121419 68.949675 42.177734 69.365234 C 42.413766 71.290564 43.026447 73.160865 44.015625 74.978516 C 44.161893 75.249697 44.240615 75.516242 44.251953 75.779297 C 44.274252 76.035473 44.229439 76.254885 44.117188 76.435547 C 44.015858 76.609405 43.858075 76.727078 43.644531 76.789062 C 43.43095 76.839708 43.200306 76.820548 42.953125 76.734375 L 42.617188 76.652344 C 42.302428 76.606989 42.031523 76.663525 41.806641 76.822266 C 41.581645 76.958442 41.443034 77.172308 41.386719 77.464844 C 41.341742 77.660737 41.250164 77.816365 41.115234 77.931641 L 40.626953 78.144531 L 40.003906 78.033203 C 39.790325 77.937657 39.587728 77.807743 39.396484 77.642578 L 35.382812 73.96875 L 34.287109 73.453125 C 33.916187 73.419071 33.636557 73.537287 33.445312 73.810547 C 33.265407 74.088078 33.235784 74.442105 33.359375 74.873047 C 33.483041 75.303989 33.719887 75.678991 34.068359 75.996094 L 34.472656 76.357422 C 34.798603 76.632118 35.022894 76.957102 35.146484 77.332031 C 35.292374 77.693165 35.316135 78.022864 35.214844 78.320312 C 35.113666 78.606574 34.917157 78.787313 34.625 78.863281 C 34.321504 78.912037 34.001196 78.841698 33.664062 78.652344 L 30.779297 77.042969 C 30.397111 76.836229 30.044923 76.780575 29.71875 76.876953 C 29.39269 76.973218 29.200846 77.206975 29.144531 77.578125 C 29.076878 77.956191 29.162595 78.349964 29.398438 78.757812 C 29.623244 79.161201 29.926446 79.471374 30.308594 79.689453 L 31.4375 80.269531 C 31.763484 80.409298 32.049694 80.647114 32.296875 80.980469 C 32.532831 81.309628 32.673774 81.650962 32.71875 82.005859 C 32.752388 82.345148 32.679906 82.619936 32.5 82.830078 C 32.308907 83.024346 32.057022 83.110568 31.742188 83.087891 L 28.201172 82.753906 C 27.695358 82.711802 27.317494 82.877402 27.070312 83.251953 C 26.811793 83.610857 26.756076 84.071276 26.902344 84.634766 C 27.059723 85.213865 27.373602 85.720823 27.845703 86.154297 C 28.306579 86.583311 28.795423 86.826939 29.3125 86.884766 C 30.942383 87.032923 32.376809 86.872127 33.613281 86.404297 C 33.826862 86.330974 34.061793 86.330406 34.320312 86.398438 L 35.080078 86.832031 C 35.304998 87.055553 35.490451 87.302849 35.636719 87.574219 C 35.771648 87.863466 35.837891 88.136012 35.837891 88.394531 L 35.888672 89.005859 C 35.933648 89.304593 35.899739 89.561091 35.787109 89.775391 C 35.674706 89.989539 35.495228 90.12583 35.248047 90.185547 L 29.296875 91.53125 C 28.959477 91.61183 28.750489 91.832856 28.671875 92.195312 C 28.581922 92.553272 28.639592 92.936027 28.841797 93.341797 C 29.05534 93.763252 29.352189 94.088942 29.734375 94.318359 C 30.116523 94.560249 30.477319 94.643384 30.814453 94.574219 C 32.815297 94.10431 34.254085 93.007714 35.130859 91.285156 L 35.484375 90.9375 C 35.641755 90.865689 35.821233 90.834365 36.023438 90.845703 L 36.613281 91.044922 C 36.815562 91.15827 37.001355 91.298986 37.169922 91.466797 C 37.462155 91.795616 37.788626 92.064052 38.148438 92.273438 L 39.210938 92.759766 C 39.491945 92.848093 39.761012 93.004831 40.019531 93.230469 C 40.267015 93.451647 40.458821 93.70696 40.59375 93.996094 C 40.728301 94.296566 40.784396 94.579056 40.761719 94.839844 C 40.75038 95.11643 40.660754 95.338112 40.492188 95.507812 L 37.052734 98.519531 C 36.816514 98.741201 36.714031 99.054185 36.748047 99.460938 C 36.804248 99.876497 36.989853 100.26481 37.304688 100.625 C 37.608184 100.99211 37.962513 101.23314 38.367188 101.34766 C 38.760599 101.44668 39.080944 101.39348 39.328125 101.1875 C 40.081271 100.50658 40.655417 99.692525 41.048828 98.746094 C 41.183719 98.439725 41.424965 98.274757 41.773438 98.255859 L 42.835938 98.625 L 43.880859 99.070312 C 44.240557 99.111131 44.532931 99.023271 44.757812 98.808594 C 45.229913 98.376518 45.601235 97.876619 45.871094 97.308594 C 45.972234 97.078761 46.140733 96.927153 46.376953 96.851562 C 46.624248 96.780507 46.886772 96.805656 47.167969 96.927734 C 47.46024 97.054235 47.724717 97.254462 47.960938 97.527344 C 48.208232 97.79346 48.376844 98.077427 48.466797 98.382812 L 49.310547 101.2793 C 49.467926 101.77974 49.74767 102.21019 50.152344 102.57227 L 50.476562 102.7207 L 50.480469 103.14648 L 51.189453 103.04883 L 51.451172 103.16797 L 51.447266 103.01172 L 51.779297 102.9668 C 52.217684 102.73141 52.544269 102.38323 52.757812 101.92383 C 52.960395 101.45551 52.981447 101.02406 52.824219 100.62891 C 52.554436 99.86325 52.172323 99.199264 51.677734 98.636719 C 51.475152 98.39687 51.385526 98.105341 51.408203 97.763672 C 51.430691 97.410664 51.565319 97.091176 51.8125 96.804688 C 52.059794 96.507276 52.358559 96.312104 52.707031 96.21875 C 53.044241 96.127663 53.347329 96.161572 53.617188 96.320312 L 55.017578 97.080078 C 55.399764 97.283039 55.814021 97.311842 56.263672 97.164062 C 56.724547 97.002828 57.095756 96.707442 57.376953 96.279297 C 57.579158 95.968317 57.696453 95.634572 57.730469 95.279297 C 57.741429 94.951007 57.664661 94.653868 57.496094 94.384766 C 57.349826 94.167216 57.285917 93.909974 57.308594 93.613281 C 57.342232 93.314169 57.45524 93.031389 57.646484 92.767578 C 57.837577 92.504032 58.07465 92.310271 58.355469 92.185547 L 59.214844 92.078125 L 62.587891 92.740234 L 63.3125 92.609375 C 63.571246 92.444361 63.750271 92.228906 63.851562 91.960938 C 63.943405 91.69535 63.937229 91.449428 63.835938 91.222656 C 63.73476 90.995847 63.561634 90.851047 63.314453 90.789062 C 61.201206 90.364622 59.132669 90.323654 57.109375 90.667969 C 56.839592 90.722772 56.592069 90.689241 56.367188 90.566406 C 56.142419 90.454797 55.980198 90.281079 55.878906 90.042969 C 55.777615 89.80501 55.754232 89.538629 55.810547 89.246094 C 55.878049 88.973817 56.012639 88.722675 56.214844 88.490234 C 56.484626 88.165535 56.648763 87.805747 56.705078 87.412109 C 56.738716 87.169199 56.822102 86.93916 56.957031 86.720703 C 57.091923 86.502095 57.266925 86.320537 57.480469 86.175781 L 59.283203 84.949219 C 59.552797 84.770674 59.7666 84.541026 59.923828 84.261719 C 60.103734 84.000289 60.205838 83.727139 60.228516 83.441406 C 60.262153 83.198458 60.34554 82.966504 60.480469 82.748047 C 60.626736 82.527171 60.801702 82.345613 61.003906 82.203125 L 66.382812 78.5625 C 66.596469 78.42912 66.737412 78.248634 66.804688 78.021484 C 66.882924 77.791916 66.870823 77.588045 66.769531 77.40625 C 66.679616 77.233526 66.52371 77.131672 66.298828 77.097656 L 65.691406 77.236328 C 63.847904 78.488334 62.29607 79.873497 61.037109 81.388672 C 60.812303 81.636571 60.547637 81.819579 60.244141 81.9375 C 59.929382 82.036524 59.643285 82.038667 59.384766 81.945312 L 58.693359 81.865234 L 57.96875 82.115234 L 57.074219 82.330078 C 56.770723 82.290733 56.525228 82.160997 56.333984 81.941406 C 56.154079 81.708247 56.074979 81.432651 56.097656 81.113281 C 56.120333 80.793949 56.237629 80.487911 56.451172 80.197266 L 56.939453 79.576172 C 57.197973 79.220065 57.317599 78.847822 57.294922 78.458984 C 57.283659 78.067841 57.130048 77.771447 56.837891 77.572266 C 56.54562 77.362124 56.197605 77.311323 55.792969 77.416016 C 55.388295 77.52086 55.057348 77.744773 54.798828 78.089844 C 54.371666 78.648874 53.983238 79.233243 53.634766 79.84375 C 53.477386 80.134282 53.259335 80.365455 52.978516 80.535156 L 52.962891 80.537109 L 52.457031 80.724609 L 52.451172 80.724609 C 52.102699 80.795287 51.805775 80.738309 51.558594 80.552734 C 51.367463 80.434246 51.232911 80.252411 51.154297 80.009766 C 51.077195 79.789722 51.071396 79.54361 51.138672 79.271484 C 51.228625 78.904719 51.183812 78.571957 51.003906 78.271484 C 50.901496 78.106699 50.766206 77.983768 50.605469 77.896484 C 50.427639 77.553668 50.189159 77.254999 49.867188 77.017578 C 49.552428 76.78098 49.242949 76.659903 48.939453 76.652344 C 48.613507 76.636092 48.372072 76.742483 48.214844 76.972656 C 48.057502 77.146515 47.844077 77.234628 47.574219 77.242188 L 46.730469 76.994141 C 46.449461 76.815898 46.214682 76.575485 46.023438 76.275391 C 45.820855 75.993287 45.69732 75.698593 45.652344 75.388672 L 45.011719 70.111328 C 44.966742 69.700153 44.785538 69.313314 44.470703 68.953125 C 44.155982 68.581824 43.803567 68.340831 43.410156 68.230469 C 43.311803 68.205713 43.216186 68.192502 43.126953 68.1875 z "
       transform="matrix(0.26458333,0,0,0.26458333,117.30931,160.03017)"
       id="path15075" />
  </g>
</svg>
