<?xml version="1.0" encoding="UTF-8" standalone="no"?>
<!-- Created with Inkscape (http://www.inkscape.org/) -->

<svg
   width="23.8125mm"
   height="60.325001mm"
   viewBox="0 0 23.8125 60.325001"
   version="1.1"
   id="svg13820"
   inkscape:version="1.3 (0e150ed6c4, 2023-07-21)"
   sodipodi:docname="tower1_splats.svg"
   xml:space="preserve"
   inkscape:export-filename="tower1_splats.png"
   inkscape:export-xdpi="96"
   inkscape:export-ydpi="96"
   xmlns:inkscape="http://www.inkscape.org/namespaces/inkscape"
   xmlns:sodipodi="http://sodipodi.sourceforge.net/DTD/sodipodi-0.dtd"
   xmlns="http://www.w3.org/2000/svg"
   xmlns:svg="http://www.w3.org/2000/svg"
   xmlns:rdf="http://www.w3.org/1999/02/22-rdf-syntax-ns#"
   xmlns:cc="http://creativecommons.org/ns#"
   xmlns:dc="http://purl.org/dc/elements/1.1/"><defs
     id="defs13814" /><sodipodi:namedview
     id="base"
     pagecolor="#585858"
     bordercolor="#666666"
     borderopacity="1.0"
     inkscape:pageopacity="0"
     inkscape:pageshadow="2"
     inkscape:zoom="1.3473363"
     inkscape:cx="-29.688208"
     inkscape:cy="50.841056"
     inkscape:document-units="mm"
     inkscape:current-layer="layer1"
     showgrid="false"
     inkscape:snap-global="false"
     fit-margin-top="0"
     fit-margin-left="0"
     fit-margin-right="0"
     fit-margin-bottom="0"
     inkscape:window-width="1280"
     inkscape:window-height="660"
     inkscape:window-x="0"
     inkscape:window-y="23"
     inkscape:window-maximized="1"
     inkscape:showpageshadow="2"
     inkscape:pagecheckerboard="0"
     inkscape:deskcolor="#d1d1d1" /><metadata
     id="metadata13817"><rdf:RDF><cc:Work
         rdf:about=""><dc:format>image/svg+xml</dc:format><dc:type
           rdf:resource="http://purl.org/dc/dcmitype/StillImage" /></cc:Work></rdf:RDF></metadata><g
     inkscape:label="Layer 1"
     inkscape:groupmode="layer"
     id="layer1"
     transform="translate(-119.55795,-141.29037)"><path
       stroke="none"
       fill="#ffffff"
       d="m 132.33702,162.47178 q -0.0489,0.11117 -0.0532,0.23059 -0.004,0.11925 0.0435,0.19924 0.12607,0.22535 0.13296,0.5479 0.002,0.334 -0.1214,0.65337 -0.11211,0.28891 -0.29463,0.4842 -0.18109,0.19145 -0.3801,0.24106 -0.0558,0.0134 -0.10672,0.058 -0.0523,0.0482 -0.0888,0.12025 -0.1106,0.20549 -0.26928,0.2886 -0.1624,0.0855 -0.29924,0.004 -0.0617,-0.0369 -0.10449,-0.1 -0.0406,-0.0618 -0.10494,-0.077 -0.0621,-0.0137 -0.12673,0.0225 -0.0661,0.0402 -0.11828,0.11661 l -0.0754,0.17969 -0.0667,0.20832 q -0.15481,0.39921 -0.43277,0.5796 -0.27787,0.18042 -0.51499,0.0385 -0.12086,-0.0722 -0.19933,-0.21759 -0.0483,-0.0852 -0.12714,-0.0994 -0.0804,-0.01 -0.16123,0.0535 -0.0802,0.0692 -0.1259,0.187 -0.0442,0.11404 -0.0405,0.23353 0.0111,0.21742 -0.0252,0.43454 -0.0386,0.22982 -0.12276,0.44649 -0.20939,0.53986 -0.58643,0.78743 -0.37927,0.24627 -0.70304,0.0526 -0.32608,-0.19498 -0.40511,-0.71534 -0.0813,-0.52171 0.12814,-1.06156 l 0.0984,-0.21747 q 0.061,-0.11346 0.0671,-0.24556 0.005,-0.12819 -0.0459,-0.2148 -0.21274,-0.35674 -0.2246,-0.88373 -0.0135,-0.53731 0.1915,-1.06577 l 0.0256,-0.0645 q 0.0446,-0.10908 0.0432,-0.22711 -0.001,-0.11301 -0.0478,-0.18789 -0.132,-0.21009 -0.14101,-0.51993 -0.0107,-0.32017 0.11182,-0.63571 0.15642,-0.40294 0.44172,-0.58826 0.28539,-0.18529 0.52936,-0.0393 0.15959,0.0955 0.24333,0.31411 0.0349,0.0911 0.1077,0.12067 0.0707,0.0275 0.14874,-0.0141 0.0796,-0.046 0.13687,-0.14297 l 0.0732,-0.21849 q 0.0244,-0.21493 0.10398,-0.42025 0.1608,-0.41437 0.45059,-0.61108 0.28979,-0.19668 0.54277,-0.0595 0.0724,0.0379 0.15639,-0.005 0.0829,-0.0395 0.14295,-0.14402 0.18065,-0.31348 0.43408,-0.43826 0.25577,-0.12338 0.47237,0.006 0.25537,0.15282 0.31751,0.5646 0.0636,0.40807 -0.10012,0.83006 -0.0841,0.21667 -0.21319,0.38305 l -0.10248,0.24315 q -0.0247,0.13532 0.0152,0.24327 0.0611,0.15374 0.0887,0.34344 0.018,0.12788 0.0887,0.18417 0.073,0.058 0.16642,0.02 0.0911,-0.0392 0.15802,-0.15377 0.0669,-0.11452 0.0768,-0.24909 0.009,-0.15378 0.0682,-0.30581 0.10022,-0.25854 0.28053,-0.37555 0.18026,-0.11707 0.3353,-0.0242 0.15505,0.0926 0.19368,0.34066 0.0387,0.24796 -0.0616,0.50647 l -0.024,0.0559"
       id="path1"
       style="opacity:0.799315;stroke-width:0.0653599" /><path
       style="fill:#ffffff;stroke:none;stroke-width:0.264583px;stroke-linecap:butt;stroke-linejoin:miter;stroke-opacity:1;opacity:0.47129094"
       d="m 138.86857,188.9444 -1.15337,-12.26868 -0.44304,0.46281 -0.63602,1.68327 -0.97291,0.8424 0.55799,-2.66825 -1.78447,0.34604 -1.0038,2.58488 -0.60865,0.75202 -0.3853,-0.0931 0.0252,-3.22782 -2.04883,0.018 -0.0187,2.9233 -0.69175,-0.0762 -1.16384,-2.8747 -1.74343,-0.56143 0.56657,2.15665 -0.54953,0.25371 -1.69228,-2.88795 -0.0658,5.67479 -0.32282,4.22821 -0.48469,2.44596 0.90455,0.83788 2.90959,1.7013 2.97248,0.55469 5.01187,-0.46954 z"
       id="path2"
       sodipodi:nodetypes="ccccccccccccccccccccccccccc" /></g></svg>
