<?xml version="1.0" encoding="UTF-8" standalone="no"?>
<!-- Created with Inkscape (http://www.inkscape.org/) -->

<svg
   xmlns:dc="http://purl.org/dc/elements/1.1/"
   xmlns:cc="http://creativecommons.org/ns#"
   xmlns:rdf="http://www.w3.org/1999/02/22-rdf-syntax-ns#"
   xmlns:svg="http://www.w3.org/2000/svg"
   xmlns="http://www.w3.org/2000/svg"
   xmlns:xlink="http://www.w3.org/1999/xlink"
   xmlns:sodipodi="http://sodipodi.sourceforge.net/DTD/sodipodi-0.dtd"
   xmlns:inkscape="http://www.inkscape.org/namespaces/inkscape"
   width="1152"
   height="648"
   viewBox="0 0 304.79999 171.45001"
   version="1.1"
   id="svg1924"
   inkscape:version="0.92.5 (2060ec1f9f, 2020-04-08)"
   sodipodi:docname="background.svg"
   inkscape:export-filename="/home/severinlemaignan/src/towerdefense/res/backgrounds/background.png"
   inkscape:export-xdpi="106.67"
   inkscape:export-ydpi="106.67">
  <defs
     id="defs1918">
    <filter
       inkscape:collect="always"
       style="color-interpolation-filters:sRGB"
       id="filter3005"
       x="-0.025946574"
       width="1.0518931"
       y="-0.12893972"
       height="1.2578794">
      <feGaussianBlur
         inkscape:collect="always"
         stdDeviation="1.1350532"
         id="feGaussianBlur3007" />
    </filter>
  </defs>
  <sodipodi:namedview
     id="base"
     pagecolor="#ffffff"
     bordercolor="#666666"
     borderopacity="1.0"
     inkscape:pageopacity="0.0"
     inkscape:pageshadow="2"
     inkscape:zoom="0.98994949"
     inkscape:cx="689.32247"
     inkscape:cy="258.06897"
     inkscape:document-units="mm"
     inkscape:current-layer="g2547"
     showgrid="false"
     units="px"
     borderlayer="true"
     inkscape:window-width="1920"
     inkscape:window-height="1016"
     inkscape:window-x="0"
     inkscape:window-y="27"
     inkscape:window-maximized="1" />
  <metadata
     id="metadata1921">
    <rdf:RDF>
      <cc:Work
         rdf:about="">
        <dc:format>image/svg+xml</dc:format>
        <dc:type
           rdf:resource="http://purl.org/dc/dcmitype/StillImage" />
        <dc:title></dc:title>
      </cc:Work>
    </rdf:RDF>
  </metadata>
  <g
     inkscape:label="Layer 1"
     inkscape:groupmode="layer"
     id="layer1"
     transform="translate(0,-125.54998)">
    <g
       id="g2547"
       transform="matrix(2.2903121,0,0,2.2903121,-77.612563,-131.54727)"
       style="stroke-width:0.43662173">
      <image
         sodipodi:absref="/home/severinlemaignan/src/towerdefense/res/backgrounds/bg3.png"
         xlink:href="bg3.png"
         style="stroke-width:0.43662173"
         y="66.736916"
         x="32.808331"
         id="image2477"
         preserveAspectRatio="none"
         height="135.46666"
         width="135.46666" />
      <text
         id="text2536"
         style="font-style:normal;font-weight:normal;font-size:10.58333302px;line-height:1.25;font-family:sans-serif;letter-spacing:0px;word-spacing:0px;fill:#989898;fill-opacity:1;stroke:none;stroke-width:0.11552282;filter:url(#filter3005)"
         xml:space="preserve"
         y="0.23104566"
         transform="translate(0,9.2418264)"><textPath
           style="font-style:normal;font-variant:normal;font-weight:normal;font-stretch:normal;font-size:11.99444485px;font-family:Sigmar;-inkscape-font-specification:Sigmar;stroke-width:0.11552282;fill:#989898;fill-opacity:1;"
           id="textPath2540"
           xlink:href="#path2538">The Wool War</textPath></text>
      <path
         sodipodi:nodetypes="cc"
         inkscape:connector-curvature="0"
         id="path2538"
         d="m 53.672618,128.42262 c 31.749998,-15.68602 63.311022,-15.875 96.572912,0"
         style="fill:none;stroke:none;stroke-width:0.11552282px;stroke-linecap:butt;stroke-linejoin:miter;stroke-opacity:1" />
      <text
         transform="translate(0,9.2418264)"
         y="0.23104566"
         xml:space="preserve"
         style="font-style:normal;font-weight:normal;font-size:10.58333302px;line-height:1.25;font-family:sans-serif;letter-spacing:0px;word-spacing:0px;fill:#ffbc06;fill-opacity:1;stroke:none;stroke-width:0.11552282;"
         id="text2551"><textPath
           xlink:href="#path2538"
           id="textPath2549"
           style="font-style:normal;font-variant:normal;font-weight:normal;font-stretch:normal;font-size:11.99444485px;font-family:Sigmar;-inkscape-font-specification:Sigmar;stroke-width:0.11552282;fill:#ffbc06;fill-opacity:1;">The Wool War</textPath></text>
      <g
         id="g3013"
         transform="matrix(0.06409329,0,0,0.06409329,86.161542,157.00954)"
         style="opacity:0.53800001;fill:#c83737;stroke-width:0.78697437">
        <path
           id="path3011"
           d="m 15.7,-13.4 0.2,0.1 3.45,0.1 q 1.75,-0.6 2.75,-2.1 6.4,-10 17.15,-14.2 l 6.3,0.15 q 3.15,1.35 4.35,4.55 1.25,3.15 -0.15,6.25 -1.35,3.15 -4.5,4.35 l -15.8,6.1 q -1.6,0.65 -2.5,2.05 -0.9,1.45 -0.8,3.1 v 1.25 q -0.2,1.75 0.75,3.25 0.9,1.5 2.55,2.15 7.45,2.75 13.05,8.65 2.4,2.45 2.3,5.85 -0.1,3.4 -2.55,5.75 Q 39.8,26.3 36.4,26.2 33,26.15 30.65,23.7 l -4.3,-4.55 q -1,-1.05 -2.4,-1.4 L 21.1,17.8 q -1.4,0.45 -2.35,1.55 -0.95,1.1 -1.2,2.55 -0.35,2.25 -1.85,3.9 -1.5,1.7 -3.7,2.3 h -0.15 q -1.2,0.3 -2.15,1.05 -0.9,0.8 -1.4,1.9 -0.5,1.1 -0.45,2.3 0.05,1.25 0.65,2.3 3.35,5.95 4.2,13 0.4,3.4 -1.7,6.05 Q 8.9,57.4 5.5,57.8 2.15,58.2 -0.55,56.1 -3.2,54 -3.6,50.6 L -6.5,25.45 q -0.3,-2.35 -2.2,-3.65 -1.9,-1.35 -4.2,-0.8 -1.95,0.55 -3.7,-0.55 l -0.65,-0.55 q -0.95,-0.85 -2.2,-1.2 l -2.45,-0.05 q -1.3,0.3 -2.25,1.1 -0.95,0.85 -1.45,2.05 -3.65,9.35 -11.7,15.45 -2.75,2 -6.1,1.55 -3.4,-0.5 -5.45,-3.2 -2,-2.7 -1.55,-6.1 0.5,-3.35 3.2,-5.4 l 8.45,-6.35 q 1.2,-0.9 1.75,-2.2 0.5,-1.4 0.25,-2.8 -0.25,-1.45 -1.2,-2.55 -1,-1.05 -2.4,-1.5 -1.25,-0.35 -2.15,-1.3 -0.9,-1 -1.2,-2.35 -0.35,-1.95 0.75,-3.6 1.1,-1.65 3.05,-2.05 l 5.1,-1.05 q 1.75,-0.35 2.9,-1.65 1.15,-1.35 1.2,-3.05 0.15,-1.75 -0.85,-3.2 -1,-1.45 -2.65,-2 -7.1,-2.35 -12.75,-7.6 -2.5,-2.3 -2.65,-5.7 -0.15,-3.4 2.15,-5.9 2.2,-2.35 5.4,-2.6 1.35,-0.1 2.45,-0.85 1.15,-0.75 1.75,-1.95 0.6,-1.2 0.55,-2.55 -0.05,-1.35 -0.8,-2.5 -1.5,-2.35 -2.7,-5.3 -1.3,-3.15 0,-6.3 1.3,-3.15 4.45,-4.4 3.15,-1.3 6.3,0 3.15,1.3 4.4,4.45 l 2.7,6.45 q 0.85,2.2 3.15,2.95 l 2.2,0.25 q 1.1,-0.15 2.05,-0.75 2.2,-1.3 4.7,-1.15 2.45,0.15 4.4,1.6 1.9,1.35 2.8,3.6 0.55,1.35 1.75,2.25 1.2,0.9 2.7,0.95 1.5,0.1 2.8,-0.6 1.3,-0.75 2,-2.05 l 1.7,-2.8 q 1.9,-2.85 5.25,-3.55 3.35,-0.65 6.15,1.25 2.8,1.9 3.5,5.2 0.65,3.35 -1.2,6.15 l -7.9,11.9 q -0.8,1.15 -0.9,2.6 -0.05,1.4 0.6,2.65 0.95,1.8 2.9,2.45"
           inkscape:connector-curvature="0"
           style="fill:#c83737;stroke:none;stroke-width:0.78697437" />
      </g>
      <g
         id="g3027"
         transform="matrix(0.03984785,0.00708358,0,0.03985772,143.34407,156.34289)"
         style="opacity:0.562;fill:#216778;stroke-width:1.26565254">
        <path
           id="path3025"
           d="m 23.6,19.85 q -2.55,-0.7 -4.75,0.8 -2.2,1.55 -2.6,4.15 -0.35,2.8 -1.9,5.15 -1.45,2.35 -3.75,3.85 -1.8,1.2 -2.45,3.25 -0.6,2 0.2,4 0.9,2.2 0.9,4.7 0,5.35 -3.8,9.15 -3.75,3.75 -9.1,3.75 -5.35,0 -9.15,-3.75 -3.8,-3.8 -3.8,-9.15 0,-1.9 0.55,-3.65 0.8,-2.75 -0.8,-5.05 -1.55,-2.4 -4.45,-2.6 l -1.7,-0.2 q -1.95,-0.35 -3.7,0.65 -1.8,0.9 -2.6,2.75 -1.6,3.4 -4.7,5.45 -3.2,2.1 -7.05,2.1 -5.35,0 -9.15,-3.75 -3.75,-3.8 -3.75,-9.15 0,-5.1 3.5,-8.85 3.5,-3.7 8.55,-4.05 2,-0.15 3.6,-1.5 1.5,-1.35 1.9,-3.35 0.35,-2 -0.55,-3.8 -0.95,-1.85 -2.8,-2.7 -3.3,-1.6 -5.3,-4.65 -2.05,-3.15 -2.05,-6.95 0,-3.1 1.4,-5.85 1.3,-2.6 3.7,-4.4 1.2,-0.95 1.85,-2.35 0.6,-1.5 0.45,-3.05 -0.15,-1.55 -1.05,-2.8 -0.9,-1.25 -2.3,-1.95 -3.3,-1.6 -5.25,-4.7 -2.05,-3.15 -2.05,-6.95 0,-5.3 3.75,-9.15 3.8,-3.75 9.15,-3.75 3.55,0 6.55,1.85 2.95,1.7 4.65,4.7 0.7,1.25 1.9,2.05 1.2,0.8 2.6,0.95 3,0.3 5.1,-1.85 1.75,-1.9 4.15,-3 2.45,-1.05 5.15,-1.1 h 0.6 q 2.05,0.05 3.7,-1.2 1.65,-1.2 2.2,-3.15 1.15,-4.15 4.6,-6.75 3.45,-2.65 7.8,-2.65 5.4,0 9.15,3.8 3.75,3.8 3.75,9.1 0,3.5 -1.7,6.45 -1.65,2.9 -4.55,4.6 -1.25,0.75 -2.05,2.05 -0.8,1.3 -0.85,2.75 -0.1,1.5 0.5,2.9 0.7,1.35 1.9,2.25 l 0.6,0.45 q 1.9,1.4 4.25,1.15 2.4,-0.3 3.9,-2.15 1.85,-2.15 4.35,-3.4 2.65,-1.25 5.6,-1.25 5.35,0 9.1,3.75 3.8,3.85 3.8,9.15 0,3.95 -2.2,7.2 -2.15,3.2 -5.65,4.7 -2.2,0.9 -3.15,3.1 -0.9,2.2 -0.1,4.45 l 0.25,0.7 q 0.55,1.55 1.85,2.55 1.25,1.05 2.85,1.3 4.65,0.75 7.75,4.35 3.1,3.6 3.1,8.4 0,5.3 -3.75,9.1 -3.85,3.8 -9.15,3.8 -4.2,0 -7.55,-2.45 Q 30.2,27.7 28.9,23.9 28.35,22.3 27.05,21.2 25.8,20.15 24.15,19.9 L 23.6,19.85"
           inkscape:connector-curvature="0"
           style="fill:#216778;stroke:none;stroke-width:1.26565254" />
      </g>
      <g
         id="g3041"
         transform="matrix(0.05508032,0.01002971,0,0.05508032,54.248135,157.69534)"
         style="opacity:0.47700004;fill:#ffcc00;stroke-width:0.91574937">
        <path
           id="path3039"
           d="m 46.15,-16.45 -0.65,0.15 -1.7,0.3 q -1.6,0 -2.95,-0.9 -1.3,-0.85 -1.95,-2.3 -0.5,-1.15 -1.5,-1.95 -1,-0.75 -2.25,-1 l -2.4,0.1 q -1.2,0.35 -2.15,1.2 -1.25,1.25 -2.9,1.7 -1.65,0.55 -2.65,1.9 -1,1.35 -1,3.05 l -0.2,1.5 q -0.2,1.1 0.05,2.15 0.2,1.1 0.9,2 0.65,0.95 1.65,1.45 1,0.55 2.1,0.6 2.9,0.25 4.95,2.4 2,2.2 2,5.15 0,1.6 -0.6,2.95 -0.8,2.05 0.05,4.05 0.85,2 2.9,2.8 3.65,1.35 5.9,4.55 2.25,3.2 2.25,7.2 0,5.15 -3.65,8.85 -3.7,3.65 -8.85,3.65 -3.5,0 -6.45,-1.8 -2.85,-1.7 -4.5,-4.65 -0.7,-1.25 -2,-1.95 -1.25,-0.7 -2.7,-0.65 -1.45,0 -2.65,0.8 -1.2,0.8 -1.85,2.1 -1.5,3.2 -4.55,5.15 -3.05,1.95 -6.75,1.95 -4.7,0 -8.25,-3.1 -3.5,-3.05 -4.15,-7.7 -0.2,-1.45 -1.15,-2.6 -0.95,-1.15 -2.35,-1.6 -1.9,-0.6 -3.25,-2.15 -1.3,-1.5 -3.3,-1.7 -2,-0.2 -3.6,0.95 -1.95,1.4 -4.35,1.4 -2.25,0 -4.05,-1.2 -1.85,-1.15 -2.75,-3.15 -0.85,-1.75 -2.7,-2.55 -1.8,-0.75 -3.7,-0.05 l -4.1,0.65 q -5.2,0 -8.85,-3.65 -3.65,-3.65 -3.65,-8.85 0,-4.8 3.2,-8.4 3.2,-3.55 7.9,-4.05 1.2,-0.15 2.2,-0.8 1,-0.6 1.65,-1.65 0.65,-1 0.75,-2.2 0.1,-1.2 -0.3,-2.3 -0.45,-1.2 -0.45,-2.5 0,-3.15 2.2,-5.35 2.25,-2.25 5.35,-2.25 l 1.1,0.1 q 2.25,0.35 4,-1.1 1.75,-1.4 1.95,-3.65 l 0.35,-1.8 q 0.35,-1.1 0.2,-2.3 -0.15,-1.15 -0.75,-2.15 -0.65,-1 -1.7,-1.6 -1,-0.6 -2.2,-0.75 -2.3,-0.2 -3.9,-1.95 -1.6,-1.75 -1.6,-4.1 0,-2.55 1.8,-4.35 1.8,-1.8 4.3,-1.8 2.55,0 4.35,1.8 1.8,1.8 1.8,4.35 0,0.7 -0.15,1.3 -0.3,1.15 0,2.3 0.25,1.15 0.95,2.05 0.75,0.95 1.85,1.45 1.05,0.5 2.2,0.5 2.5,0 4.55,1.55 1.95,1.45 2.7,3.75 0.55,1.85 2.15,2.85 1.6,1 3.45,0.75 l 0.95,-0.05 1.5,0.15 2.4,-0.1 q 1.25,-0.35 2.15,-1.2 0.9,-0.85 1.35,-2 0.4,-1.2 0.25,-2.4 L 0.3,-38.4 q 0.05,-2.35 -1.65,-3.95 -1.1,-1.05 -1.7,-2.4 -0.65,-1.45 -0.65,-3.05 0,-3.15 2.2,-5.35 2.2,-2.25 5.35,-2.25 2.35,0 4.3,1.4 1.85,1.3 2.7,3.4 0.4,1.05 1.25,1.85 0.8,0.8 1.85,1.15 2.3,0.8 4.35,-0.45 1.65,-1 3.75,-1 3.1,0 5.35,2.25 2.2,2.2 2.2,5.3 0,1.65 -0.7,3.15 -0.75,1.6 -0.35,3.3 0.4,1.75 1.75,2.85 1.75,1.5 2.4,3.65 0.4,1.2 1.25,2.1 0.85,0.95 2.05,1.35 l 2.45,0.2 q 1.2,-0.2 2.25,-0.95 1.4,-1 3.1,-1 2.25,0 3.85,1.6 1.55,1.6 1.55,3.85 0,1.4 -0.7,2.65 -0.65,1.15 -1.8,1.9 l -0.55,0.4 M 13.1,-21 q 1.75,-0.9 2.55,-2.7 0.7,-1.85 0,-3.75 Q 15,-29.3 13.25,-30.2 11.5,-31.15 9.6,-30.7 l -1.75,0.2 -1.45,-0.15 -2.45,0.1 q -1.2,0.35 -2.1,1.2 -0.95,0.85 -1.35,2 -0.45,1.2 -0.3,2.45 l 0.1,0.85 q 0,1.4 -0.55,2.7 -0.65,1.75 -0.1,3.5 0.6,1.8 2.2,2.8 l 0.25,0.15 q 2,1.2 4.25,0.5 1.1,-0.35 1.9,-1.1 0.85,-0.75 1.3,-1.75 1.1,-2.55 3.55,-3.75 m 37.35,13.6 0.65,-0.2 1.7,-0.25 q 2.25,0 3.85,1.6 1.55,1.55 1.55,3.8 0,2.25 -1.55,3.85 -1.6,1.55 -3.85,1.55 -2.2,0 -3.8,-1.55 -1.6,-1.6 -1.6,-3.85 0,-1.4 0.7,-2.65 0.7,-1.2 1.85,-1.9 l 0.5,-0.4 M 22.55,6.35 Q 21.6,5.4 20.35,5 l -2.6,-0.05 q -1.3,0.3 -2.3,1.2 -1,0.9 -1.4,2.15 l -1.25,2.25 q -1.05,1.3 -1.1,2.95 -0.1,1.65 0.8,3.1 l 0.55,0.9 q 0.7,1.25 2,1.95 1.2,0.7 2.65,0.65 1.45,-0.05 2.65,-0.85 1.2,-0.8 1.85,-2.05 0.75,-1.6 1.8,-2.8 0.7,-0.75 1,-1.8 l 0.25,-2.05 q -0.2,-2.2 -1.95,-3.6 l -0.75,-0.6 m -2.3,38.3 q 2.25,0 3.8,1.6 1.6,1.6 1.6,3.8 0,2.25 -1.6,3.85 -1.55,1.55 -3.8,1.55 -2.25,0 -3.85,-1.55 -1.55,-1.6 -1.55,-3.85 0,-2.25 1.55,-3.8 1.6,-1.6 3.85,-1.6 m -42.45,-70.05 -2.1,0.1 q -1.05,0.3 -1.9,1 -1.8,1.4 -1.9,3.65 l -0.3,1.6 q -0.4,1.3 -0.05,2.6 0.25,1.35 1.2,2.35 0.9,1 2.2,1.4 l 2.6,0.2 1.35,-0.15 1.75,0.2 2.95,-0.15 q 1.5,-0.55 2.4,-1.85 0.95,-1.25 1,-2.8 0.1,-1.55 -0.75,-2.9 l -0.85,-1.9 q -0.6,-1.7 -2.15,-2.65 -1.6,-0.95 -3.4,-0.7 l -0.95,0.1 -1.1,-0.1 m -12.6,66.6 q -0.45,-2.1 -2.25,-3.3 -1.8,-1.2 -3.9,-0.75 l -1.1,0.1 q -2.25,0 -3.8,-1.6 -1.6,-1.55 -1.6,-3.8 0,-2.25 1.6,-3.85 1.6,-1.55 3.8,-1.55 1.7,0 3.1,0.95 1.35,0.95 1.95,2.45 0.8,2.05 2.75,2.85 2,0.9 4.05,0.05 1.35,-0.55 2.8,-0.55 3.1,0 5.35,2.2 2.2,2.25 2.2,5.35 0,3.15 -2.2,5.35 -2.25,2.2 -5.35,2.2 -2.75,0 -4.85,-1.75 -2.05,-1.7 -2.55,-4.35"
           inkscape:connector-curvature="0"
           style="fill:#ffcc00;stroke:none;stroke-width:0.91574937" />
      </g>
      <g
         id="g3055"
         transform="matrix(0.0865551,-0.02319237,0,0.0865551,73.300004,167.03793)"
         style="opacity:0.51399997;fill:#0044aa;stroke-width:0.58274758">
        <path
           id="path3053"
           d="m -23.2,-23.7 q 0.9,-0.75 1.1,-1.9 0.25,-1.1 -0.3,-2.15 -1.2,-2.55 -0.4,-5.2 0.8,-2.75 3.25,-4.15 2.55,-1.5 5.45,-0.75 2.85,0.8 4.35,3.35 0.75,1.35 0.9,2.85 0.1,0.9 0.6,1.6 l 1.4,1.15 1.7,0.3 q 0.9,-0.05 1.65,-0.65 1.6,-1.1 3.5,-1.25 1.2,-0.1 2.05,-0.95 0.9,-0.85 1.05,-2.05 0.25,-2.45 2.1,-4.25 1.85,-1.8 4.45,-2.15 l 3.5,0.3 q 1.65,0.55 2.9,1.65 1.05,1.05 2.55,0.95 1.45,-0.1 2.4,-1.3 1.2,-1.5 2.95,-2.5 3.8,-2.2 8.05,-1.05 4.25,1.15 6.45,4.95 1.15,2 1.35,4.25 0.2,2.25 -0.5,4.3 -0.3,0.9 -0.1,1.85 0.25,0.95 0.9,1.6 0.65,0.7 1.6,0.9 l 1.85,-0.05 q 3.5,-1.2 7,0.15 3.5,1.35 5.4,4.6 2.2,3.8 1.1,8.05 Q 55.9,-7 52.1,-4.8 50,-3.6 47.65,-3.45 45.35,-3.25 43.2,-4 L 41,-4.05 q -1.05,0.35 -1.7,1.25 -0.65,0.95 -0.6,2.15 0.05,1.15 0.8,2 l 1.15,1.6 q 2.2,3.8 1.05,8.05 -1.15,4.25 -4.95,6.45 -2.1,1.2 -4.5,1.35 -2.4,0.15 -4.65,-0.7 l -2.65,0.15 q -1.3,0.65 -1.75,2.05 -0.65,2 -2.05,3.35 -1.9,1.85 -4.5,2.15 -2.55,0.35 -4.6,-0.95 -1.05,-0.65 -2.3,-0.5 -1.15,0.2 -2,1.1 -1.65,1.8 -4.2,2.15 -2.55,0.35 -4.9,-0.9 -2.1,-1.1 -3.2,-3.15 -1.1,-2.05 -0.85,-4.3 0.1,-0.8 -0.2,-1.55 l -0.9,-1.35 q -0.6,-0.5 -1.45,-0.7 -0.75,-0.2 -1.6,0 l -2.65,0.05 q -1.2,-0.15 -2.25,0.45 -1.05,0.6 -1.45,1.7 L -16.45,19 q -0.65,1 -0.5,2.25 0.2,1.15 1.05,2 0.8,0.7 1.3,1.55 1.3,2.3 0.6,4.8 -0.7,2.6 -2.95,3.95 -1.7,0.95 -3.65,0.8 -1.85,-0.1 -3.4,-1.25 -0.65,-0.45 -1.4,-0.6 l -1.6,0.1 q -0.8,0.3 -1.4,0.85 -0.6,0.6 -0.8,1.35 -0.6,1.85 -1.8,3.45 -1.25,1.55 -3,2.6 -3.8,2.2 -8.05,1.05 -4.2,-1.15 -6.4,-4.95 -2.15,-3.65 -1.15,-7.85 1,-4.1 4.6,-6.35 0.95,-0.65 1.4,-1.8 0.35,-1.15 -0.1,-2.25 -0.75,-2.1 -0.05,-4.2 0.25,-0.8 0.15,-1.6 -0.1,-0.8 -0.6,-1.45 -0.45,-0.65 -1.15,-1 -0.75,-0.35 -1.55,-0.35 -2.75,-0.05 -5.15,-1.45 -2.5,-1.4 -3.9,-3.85 -2.2,-3.85 -1.05,-8.05 1.1,-4.25 4.9,-6.45 2.35,-1.35 5.15,-1.45 1.15,0 2.05,-0.65 0.95,-0.8 1.15,-1.9 0.7,-2.65 3.05,-4 2,-1.15 4.3,-0.75 2.2,0.4 3.75,2.1 0.6,0.75 1.5,1 l 1.8,0.1 q 0.95,-0.2 1.6,-0.9 0.65,-0.65 0.9,-1.6 0.85,-3.55 3.65,-5.95"
           inkscape:connector-curvature="0"
           style="fill:#0044aa;stroke:none;stroke-width:0.58274758" />
      </g>
      <g
         id="g3069"
         transform="matrix(0.03772571,-0.01252889,0,0.03772571,91.408082,157.75838)"
         style="opacity:0.57399998;fill:#008033;stroke-width:1.33701336">
        <path
           id="path3067"
           d="m -26.45,-24 q 1.3,0.75 2.85,0.65 1.5,-0.15 2.65,-1.15 1.15,-1 1.5,-2.45 0.35,-1.5 -0.25,-2.9 -1.45,-3.5 -1.45,-7.45 0,-8.05 5.65,-13.75 5.7,-5.65 13.75,-5.65 8.05,0 13.75,5.65 5.65,5.7 5.65,13.75 l -0.05,1.85 q -0.15,1.3 0.45,2.55 0.6,1.2 1.75,1.9 1.15,0.75 2.5,0.7 1.35,-0.05 2.5,-0.75 4.8,-3.1 10.5,-3.1 8.05,0 13.75,5.65 5.7,5.7 5.7,13.75 0,4.2 -1.75,8.05 -1.7,3.7 -4.7,6.4 -1.2,1.1 -1.5,2.65 -0.3,1.6 0.45,3 1.6,3 1.6,6.4 0,5.7 -4,9.7 -4.05,4.05 -9.7,4.05 h -0.4 q -1.15,0 -2.2,0.5 -1.05,0.5 -1.75,1.45 -0.65,0.9 -0.8,2.1 -0.15,1.1 0.2,2.25 0.8,2.2 0.8,4.6 0,5.7 -4,9.75 -4.05,4 -9.75,4 -3.05,0 -5.8,-1.25 Q 8.85,47.7 6.9,45.5 6.05,44.55 4.85,44.1 L 2.4,43.95 q -1.25,0.3 -2.15,1.1 -0.95,0.9 -1.35,2.1 -1.3,4.25 -4.9,6.85 -3.65,2.75 -8.2,2.75 -5.7,0 -9.75,-4.05 -4,-4.05 -4,-9.75 0,-1.7 0.4,-3.35 0.3,-1.2 -0.05,-2.35 -0.3,-1.15 -1.15,-2.05 -0.85,-0.85 -2,-1.2 l -2.4,-0.1 -2.9,0.3 q -5.7,0 -9.7,-4 -4.05,-4.05 -4.05,-9.75 0,-4.3 2.45,-7.85 1.05,-1.5 0.85,-3.3 -0.25,-1.8 -1.65,-3 -3.1,-2.6 -4.8,-6.3 -1.8,-3.75 -1.8,-7.95 0,-7.75 5.5,-13.2 5.45,-5.5 13.2,-5.5 5.25,0 9.6,2.65"
           inkscape:connector-curvature="0"
           style="fill:#008033;stroke:none;stroke-width:1.33701336" />
      </g>
      <g
         id="g3083"
         transform="matrix(0.05380877,0,0,0.05380877,127.3633,157.23324)"
         style="stroke-width:0.93738955;fill:#ff0000;opacity:0.347">
        <path
           id="path3081"
           d="m -31.25,-54.8 3.2,0.1 q 1.65,-0.45 2.7,-1.7 1.25,-1.45 3.15,-1.45 1.7,0 2.9,1.2 1.25,1.2 1.25,2.85 v 0.85 q -0.15,2.2 1.35,3.85 1.4,1.7 3.65,1.9 1.15,0.1 2.05,0.75 0.95,0.7 1.4,1.7 0.8,1.95 2.75,2.8 1.85,0.9 3.85,0.3 l 3.4,-0.5 3.55,0.55 2.5,0.15 q 1.3,-0.15 2.35,-0.9 1.05,-0.8 1.65,-1.9 0.6,-1.15 0.65,-2.45 0.1,-4.3 3.2,-7.25 3.1,-3 7.4,-3 4.4,0 7.5,3.1 3.1,3.1 3.1,7.5 0,3 -1.6,5.65 -0.75,1.2 -0.85,2.6 -0.1,1.4 0.5,2.7 0.6,1.25 1.75,2.1 1.15,0.8 2.55,1 1.55,0.15 2.55,1.35 1.05,1.2 1.05,2.8 0,1.7 -1.2,2.95 -1.25,1.2 -2.95,1.2 l -0.8,-0.05 -2.95,0.2 q -1.45,0.55 -2.45,1.7 -0.95,1.2 -1.15,2.75 -0.2,1.5 0.4,2.9 0.6,1.4 0.6,2.8 l -0.05,0.5 q -0.1,1.3 0.4,2.5 0.45,1.2 1.45,2.05 0.95,0.9 2.2,1.25 l 2.55,0.05 1.8,-0.2 0.95,0.05 2.25,-0.2 q 1.1,-0.35 1.95,-1.1 1.85,-1.55 1.9,-4 0.05,-1.65 1.25,-2.85 1.25,-1.2 2.95,-1.2 1.7,0 2.95,1.2 1.2,1.25 1.2,2.95 0,1.15 -0.55,2.1 -0.55,0.95 -1.45,1.5 -1.65,1 -2.35,2.75 -0.65,1.75 -0.1,3.6 0.55,1.8 2.1,2.9 1.55,1.1 3.45,1 L 53.15,1.1 q 1.7,0.05 2.9,1.25 1.15,1.2 1.15,2.95 0,1.7 -1.2,2.95 -1.25,1.2 -2.95,1.2 -1.85,0 -3.1,-1.35 -1.5,-1.7 -3.85,-1.8 -2.3,-0.15 -4,1.45 l -0.45,0.4 q -1.4,1.2 -1.8,2.9 -0.45,1.75 0.25,3.4 0.45,1.15 0.5,2.45 0,1.7 1,3.05 1.05,1.4 2.65,2 1.25,0.45 2,1.5 0.8,1.1 0.8,2.4 0,1.35 -0.75,2.4 -0.75,1.05 -1.9,1.5 -1.45,0.55 -2.35,1.75 -0.95,1.2 -1.15,2.75 -0.15,1.5 0.45,2.9 0.6,1.4 1.85,2.25 0.85,0.6 1.3,1.45 0.5,0.9 0.5,1.95 0,1.7 -1.25,2.95 -1.2,1.25 -2.95,1.25 -1.4,0 -2.5,-0.85 -1.5,-1.2 -3.35,-1.2 -1.85,0 -3.35,1.15 l -1,0.65 q -1.5,0.95 -2.2,2.65 -0.65,1.65 -0.2,3.4 l 0.1,0.9 q 0,1.75 -1.25,2.95 -1.2,1.25 -2.95,1.25 -1.75,0 -2.95,-1.25 -1.25,-1.2 -1.25,-2.95 l 0.05,-0.65 Q 20.3,51.3 19.55,49.65 18.75,48 17.2,47.15 l -1,-0.55 Q 14.75,45.6 13,45.65 11.2,45.7 9.8,46.8 7.95,48.2 5.6,48.2 L 4.8,48.15 q -1.55,-0.2 -3,0.5 -1.45,0.65 -2.3,2 -0.95,1.5 -2.5,2.35 -1.6,0.9 -3.45,0.9 -2.9,0 -4.95,-2.05 -2.1,-2.05 -2.1,-4.95 0,-3 2.15,-5.05 1.75,-1.65 1.7,-4.15 -0.05,-2.45 -1.9,-4 -2.05,-1.75 -3.3,-4.1 -1.3,-2.45 -1.6,-5.15 -0.2,-2 -1.65,-3.35 -1.45,-1.4 -3.5,-1.55 -2.75,-0.15 -4.7,-2.2 -1.9,-2 -1.9,-4.8 0,-2.5 1.6,-4.45 1.55,-1.95 4,-2.45 2.2,-0.45 3.45,-2.35 1.3,-1.95 0.8,-4.15 l -0.35,-3.1 q 0,-2.6 0.9,-5 0.65,-1.8 0.05,-3.6 -0.55,-1.8 -2.1,-2.85 -1.55,-1.05 -3.45,-0.95 -1.85,0.15 -3.3,1.35 -1.45,1.25 -3.35,1.6 -2,0.35 -3.3,2 -1.3,1.65 -1.2,3.7 l 0.05,0.7 q -0.05,1.7 -1.3,2.9 -1.2,1.15 -2.9,1.15 -1.55,0 -2.75,-1 -1.15,-1 -1.4,-2.5 -0.2,-1.35 -1,-2.45 -0.8,-1.1 -2.05,-1.7 -1.25,-0.55 -2.6,-0.5 -1.35,0.05 -2.55,0.75 -0.9,0.55 -2.05,0.55 -1.75,0 -2.95,-1.25 -1.05,-1.05 -1.2,-2.5 l -0.05,-0.45 0.05,-0.45 q 0.15,-1.3 1,-2.3 1.05,-1.2 2.6,-1.4 1.7,-0.2 3,-1.35 1.3,-1.15 1.65,-2.85 0.35,-1.35 1.45,-2.25 1.15,-0.9 2.6,-0.9 l 0.9,0.1 q 2,0.45 3.8,-0.5 1.85,-0.95 2.6,-2.85 0.75,-1.9 0.1,-3.85 -0.7,-1.9 -2.45,-2.95 -2.45,-1.4 -3.85,-3.8 -1.45,-2.45 -1.45,-5.35 0,-4.45 3.1,-7.5 3.1,-3.15 7.5,-3.15 1.75,0 3.35,0.55 m -8.25,92.05 q 0.75,-1.2 0.85,-2.5 0.05,-1.35 -0.5,-2.6 -0.55,-1.25 -1.6,-2.1 -1.1,-0.8 -2.45,-1.1 -1.45,-0.25 -2.4,-1.4 -1,-1.2 -1,-2.7 0,-1.7 1.25,-2.95 1.2,-1.2 2.95,-1.2 1.6,0 2.75,1 1.15,1 1.4,2.55 0.3,2.35 2.2,3.7 1.95,1.4 4.25,0.95 l 0.6,-0.1 q 1.75,0 2.95,1.25 1.25,1.25 1.25,2.95 0,1.15 -0.6,2.15 -0.55,0.95 -1.55,1.5 -2.15,1.25 -2.65,3.6 -0.3,1.4 -1.45,2.35 -1.15,0.9 -2.6,0.9 -1.75,0 -3,-1.2 -1.2,-1.25 -1.2,-2.95 0,-1.15 0.55,-2.1"
           inkscape:connector-curvature="0"
           style="fill:#ff0000;stroke:none;stroke-width:0.93738955" />
      </g>
      <g
         style="opacity:0.347;fill:#008033;stroke-width:1.19166589"
         transform="matrix(-0.01441777,-0.03979588,0.03979588,-0.01441777,158.34098,155.43438)"
         id="g3095">
        <path
           style="fill:#008033;stroke:none;stroke-width:1.19166589"
           inkscape:connector-curvature="0"
           d="m -31.25,-54.8 3.2,0.1 q 1.65,-0.45 2.7,-1.7 1.25,-1.45 3.15,-1.45 1.7,0 2.9,1.2 1.25,1.2 1.25,2.85 v 0.85 q -0.15,2.2 1.35,3.85 1.4,1.7 3.65,1.9 1.15,0.1 2.05,0.75 0.95,0.7 1.4,1.7 0.8,1.95 2.75,2.8 1.85,0.9 3.85,0.3 l 3.4,-0.5 3.55,0.55 2.5,0.15 q 1.3,-0.15 2.35,-0.9 1.05,-0.8 1.65,-1.9 0.6,-1.15 0.65,-2.45 0.1,-4.3 3.2,-7.25 3.1,-3 7.4,-3 4.4,0 7.5,3.1 3.1,3.1 3.1,7.5 0,3 -1.6,5.65 -0.75,1.2 -0.85,2.6 -0.1,1.4 0.5,2.7 0.6,1.25 1.75,2.1 1.15,0.8 2.55,1 1.55,0.15 2.55,1.35 1.05,1.2 1.05,2.8 0,1.7 -1.2,2.95 -1.25,1.2 -2.95,1.2 l -0.8,-0.05 -2.95,0.2 q -1.45,0.55 -2.45,1.7 -0.95,1.2 -1.15,2.75 -0.2,1.5 0.4,2.9 0.6,1.4 0.6,2.8 l -0.05,0.5 q -0.1,1.3 0.4,2.5 0.45,1.2 1.45,2.05 0.95,0.9 2.2,1.25 l 2.55,0.05 1.8,-0.2 0.95,0.05 2.25,-0.2 q 1.1,-0.35 1.95,-1.1 1.85,-1.55 1.9,-4 0.05,-1.65 1.25,-2.85 1.25,-1.2 2.95,-1.2 1.7,0 2.95,1.2 1.2,1.25 1.2,2.95 0,1.15 -0.55,2.1 -0.55,0.95 -1.45,1.5 -1.65,1 -2.35,2.75 -0.65,1.75 -0.1,3.6 0.55,1.8 2.1,2.9 1.55,1.1 3.45,1 L 53.15,1.1 q 1.7,0.05 2.9,1.25 1.15,1.2 1.15,2.95 0,1.7 -1.2,2.95 -1.25,1.2 -2.95,1.2 -1.85,0 -3.1,-1.35 -1.5,-1.7 -3.85,-1.8 -2.3,-0.15 -4,1.45 l -0.45,0.4 q -1.4,1.2 -1.8,2.9 -0.45,1.75 0.25,3.4 0.45,1.15 0.5,2.45 0,1.7 1,3.05 1.05,1.4 2.65,2 1.25,0.45 2,1.5 0.8,1.1 0.8,2.4 0,1.35 -0.75,2.4 -0.75,1.05 -1.9,1.5 -1.45,0.55 -2.35,1.75 -0.95,1.2 -1.15,2.75 -0.15,1.5 0.45,2.9 0.6,1.4 1.85,2.25 0.85,0.6 1.3,1.45 0.5,0.9 0.5,1.95 0,1.7 -1.25,2.95 -1.2,1.25 -2.95,1.25 -1.4,0 -2.5,-0.85 -1.5,-1.2 -3.35,-1.2 -1.85,0 -3.35,1.15 l -1,0.65 q -1.5,0.95 -2.2,2.65 -0.65,1.65 -0.2,3.4 l 0.1,0.9 q 0,1.75 -1.25,2.95 -1.2,1.25 -2.95,1.25 -1.75,0 -2.95,-1.25 -1.25,-1.2 -1.25,-2.95 l 0.05,-0.65 Q 20.3,51.3 19.55,49.65 18.75,48 17.2,47.15 l -1,-0.55 Q 14.75,45.6 13,45.65 11.2,45.7 9.8,46.8 7.95,48.2 5.6,48.2 L 4.8,48.15 q -1.55,-0.2 -3,0.5 -1.45,0.65 -2.3,2 -0.95,1.5 -2.5,2.35 -1.6,0.9 -3.45,0.9 -2.9,0 -4.95,-2.05 -2.1,-2.05 -2.1,-4.95 0,-3 2.15,-5.05 1.75,-1.65 1.7,-4.15 -0.05,-2.45 -1.9,-4 -2.05,-1.75 -3.3,-4.1 -1.3,-2.45 -1.6,-5.15 -0.2,-2 -1.65,-3.35 -1.45,-1.4 -3.5,-1.55 -2.75,-0.15 -4.7,-2.2 -1.9,-2 -1.9,-4.8 0,-2.5 1.6,-4.45 1.55,-1.95 4,-2.45 2.2,-0.45 3.45,-2.35 1.3,-1.95 0.8,-4.15 l -0.35,-3.1 q 0,-2.6 0.9,-5 0.65,-1.8 0.05,-3.6 -0.55,-1.8 -2.1,-2.85 -1.55,-1.05 -3.45,-0.95 -1.85,0.15 -3.3,1.35 -1.45,1.25 -3.35,1.6 -2,0.35 -3.3,2 -1.3,1.65 -1.2,3.7 l 0.05,0.7 q -0.05,1.7 -1.3,2.9 -1.2,1.15 -2.9,1.15 -1.55,0 -2.75,-1 -1.15,-1 -1.4,-2.5 -0.2,-1.35 -1,-2.45 -0.8,-1.1 -2.05,-1.7 -1.25,-0.55 -2.6,-0.5 -1.35,0.05 -2.55,0.75 -0.9,0.55 -2.05,0.55 -1.75,0 -2.95,-1.25 -1.05,-1.05 -1.2,-2.5 l -0.05,-0.45 0.05,-0.45 q 0.15,-1.3 1,-2.3 1.05,-1.2 2.6,-1.4 1.7,-0.2 3,-1.35 1.3,-1.15 1.65,-2.85 0.35,-1.35 1.45,-2.25 1.15,-0.9 2.6,-0.9 l 0.9,0.1 q 2,0.45 3.8,-0.5 1.85,-0.95 2.6,-2.85 0.75,-1.9 0.1,-3.85 -0.7,-1.9 -2.45,-2.95 -2.45,-1.4 -3.85,-3.8 -1.45,-2.45 -1.45,-5.35 0,-4.45 3.1,-7.5 3.1,-3.15 7.5,-3.15 1.75,0 3.35,0.55 m -8.25,92.05 q 0.75,-1.2 0.85,-2.5 0.05,-1.35 -0.5,-2.6 -0.55,-1.25 -1.6,-2.1 -1.1,-0.8 -2.45,-1.1 -1.45,-0.25 -2.4,-1.4 -1,-1.2 -1,-2.7 0,-1.7 1.25,-2.95 1.2,-1.2 2.95,-1.2 1.6,0 2.75,1 1.15,1 1.4,2.55 0.3,2.35 2.2,3.7 1.95,1.4 4.25,0.95 l 0.6,-0.1 q 1.75,0 2.95,1.25 1.25,1.25 1.25,2.95 0,1.15 -0.6,2.15 -0.55,0.95 -1.55,1.5 -2.15,1.25 -2.65,3.6 -0.3,1.4 -1.45,2.35 -1.15,0.9 -2.6,0.9 -1.75,0 -3,-1.2 -1.2,-1.25 -1.2,-2.95 0,-1.15 0.55,-2.1"
           id="path3093" />
      </g>
      <g
         style="opacity:0.47700004;fill:#ff6600;stroke-width:1.40105414"
         transform="matrix(0.00243641,-0.04309882,0.03093248,-0.01521082,111.93598,157.17203)"
         id="g3099">
        <path
           style="fill:#ff6600;stroke:none;stroke-width:1.40105414"
           inkscape:connector-curvature="0"
           d="m 46.15,-16.45 -0.65,0.15 -1.7,0.3 q -1.6,0 -2.95,-0.9 -1.3,-0.85 -1.95,-2.3 -0.5,-1.15 -1.5,-1.95 -1,-0.75 -2.25,-1 l -2.4,0.1 q -1.2,0.35 -2.15,1.2 -1.25,1.25 -2.9,1.7 -1.65,0.55 -2.65,1.9 -1,1.35 -1,3.05 l -0.2,1.5 q -0.2,1.1 0.05,2.15 0.2,1.1 0.9,2 0.65,0.95 1.65,1.45 1,0.55 2.1,0.6 2.9,0.25 4.95,2.4 2,2.2 2,5.15 0,1.6 -0.6,2.95 -0.8,2.05 0.05,4.05 0.85,2 2.9,2.8 3.65,1.35 5.9,4.55 2.25,3.2 2.25,7.2 0,5.15 -3.65,8.85 -3.7,3.65 -8.85,3.65 -3.5,0 -6.45,-1.8 -2.85,-1.7 -4.5,-4.65 -0.7,-1.25 -2,-1.95 -1.25,-0.7 -2.7,-0.65 -1.45,0 -2.65,0.8 -1.2,0.8 -1.85,2.1 -1.5,3.2 -4.55,5.15 -3.05,1.95 -6.75,1.95 -4.7,0 -8.25,-3.1 -3.5,-3.05 -4.15,-7.7 -0.2,-1.45 -1.15,-2.6 -0.95,-1.15 -2.35,-1.6 -1.9,-0.6 -3.25,-2.15 -1.3,-1.5 -3.3,-1.7 -2,-0.2 -3.6,0.95 -1.95,1.4 -4.35,1.4 -2.25,0 -4.05,-1.2 -1.85,-1.15 -2.75,-3.15 -0.85,-1.75 -2.7,-2.55 -1.8,-0.75 -3.7,-0.05 l -4.1,0.65 q -5.2,0 -8.85,-3.65 -3.65,-3.65 -3.65,-8.85 0,-4.8 3.2,-8.4 3.2,-3.55 7.9,-4.05 1.2,-0.15 2.2,-0.8 1,-0.6 1.65,-1.65 0.65,-1 0.75,-2.2 0.1,-1.2 -0.3,-2.3 -0.45,-1.2 -0.45,-2.5 0,-3.15 2.2,-5.35 2.25,-2.25 5.35,-2.25 l 1.1,0.1 q 2.25,0.35 4,-1.1 1.75,-1.4 1.95,-3.65 l 0.35,-1.8 q 0.35,-1.1 0.2,-2.3 -0.15,-1.15 -0.75,-2.15 -0.65,-1 -1.7,-1.6 -1,-0.6 -2.2,-0.75 -2.3,-0.2 -3.9,-1.95 -1.6,-1.75 -1.6,-4.1 0,-2.55 1.8,-4.35 1.8,-1.8 4.3,-1.8 2.55,0 4.35,1.8 1.8,1.8 1.8,4.35 0,0.7 -0.15,1.3 -0.3,1.15 0,2.3 0.25,1.15 0.95,2.05 0.75,0.95 1.85,1.45 1.05,0.5 2.2,0.5 2.5,0 4.55,1.55 1.95,1.45 2.7,3.75 0.55,1.85 2.15,2.85 1.6,1 3.45,0.75 l 0.95,-0.05 1.5,0.15 2.4,-0.1 q 1.25,-0.35 2.15,-1.2 0.9,-0.85 1.35,-2 0.4,-1.2 0.25,-2.4 L 0.3,-38.4 q 0.05,-2.35 -1.65,-3.95 -1.1,-1.05 -1.7,-2.4 -0.65,-1.45 -0.65,-3.05 0,-3.15 2.2,-5.35 2.2,-2.25 5.35,-2.25 2.35,0 4.3,1.4 1.85,1.3 2.7,3.4 0.4,1.05 1.25,1.85 0.8,0.8 1.85,1.15 2.3,0.8 4.35,-0.45 1.65,-1 3.75,-1 3.1,0 5.35,2.25 2.2,2.2 2.2,5.3 0,1.65 -0.7,3.15 -0.75,1.6 -0.35,3.3 0.4,1.75 1.75,2.85 1.75,1.5 2.4,3.65 0.4,1.2 1.25,2.1 0.85,0.95 2.05,1.35 l 2.45,0.2 q 1.2,-0.2 2.25,-0.95 1.4,-1 3.1,-1 2.25,0 3.85,1.6 1.55,1.6 1.55,3.85 0,1.4 -0.7,2.65 -0.65,1.15 -1.8,1.9 l -0.55,0.4 M 13.1,-21 q 1.75,-0.9 2.55,-2.7 0.7,-1.85 0,-3.75 Q 15,-29.3 13.25,-30.2 11.5,-31.15 9.6,-30.7 l -1.75,0.2 -1.45,-0.15 -2.45,0.1 q -1.2,0.35 -2.1,1.2 -0.95,0.85 -1.35,2 -0.45,1.2 -0.3,2.45 l 0.1,0.85 q 0,1.4 -0.55,2.7 -0.65,1.75 -0.1,3.5 0.6,1.8 2.2,2.8 l 0.25,0.15 q 2,1.2 4.25,0.5 1.1,-0.35 1.9,-1.1 0.85,-0.75 1.3,-1.75 1.1,-2.55 3.55,-3.75 m 37.35,13.6 0.65,-0.2 1.7,-0.25 q 2.25,0 3.85,1.6 1.55,1.55 1.55,3.8 0,2.25 -1.55,3.85 -1.6,1.55 -3.85,1.55 -2.2,0 -3.8,-1.55 -1.6,-1.6 -1.6,-3.85 0,-1.4 0.7,-2.65 0.7,-1.2 1.85,-1.9 l 0.5,-0.4 M 22.55,6.35 Q 21.6,5.4 20.35,5 l -2.6,-0.05 q -1.3,0.3 -2.3,1.2 -1,0.9 -1.4,2.15 l -1.25,2.25 q -1.05,1.3 -1.1,2.95 -0.1,1.65 0.8,3.1 l 0.55,0.9 q 0.7,1.25 2,1.95 1.2,0.7 2.65,0.65 1.45,-0.05 2.65,-0.85 1.2,-0.8 1.85,-2.05 0.75,-1.6 1.8,-2.8 0.7,-0.75 1,-1.8 l 0.25,-2.05 q -0.2,-2.2 -1.95,-3.6 l -0.75,-0.6 m -2.3,38.3 q 2.25,0 3.8,1.6 1.6,1.6 1.6,3.8 0,2.25 -1.6,3.85 -1.55,1.55 -3.8,1.55 -2.25,0 -3.85,-1.55 -1.55,-1.6 -1.55,-3.85 0,-2.25 1.55,-3.8 1.6,-1.6 3.85,-1.6 m -42.45,-70.05 -2.1,0.1 q -1.05,0.3 -1.9,1 -1.8,1.4 -1.9,3.65 l -0.3,1.6 q -0.4,1.3 -0.05,2.6 0.25,1.35 1.2,2.35 0.9,1 2.2,1.4 l 2.6,0.2 1.35,-0.15 1.75,0.2 2.95,-0.15 q 1.5,-0.55 2.4,-1.85 0.95,-1.25 1,-2.8 0.1,-1.55 -0.75,-2.9 l -0.85,-1.9 q -0.6,-1.7 -2.15,-2.65 -1.6,-0.95 -3.4,-0.7 l -0.95,0.1 -1.1,-0.1 m -12.6,66.6 q -0.45,-2.1 -2.25,-3.3 -1.8,-1.2 -3.9,-0.75 l -1.1,0.1 q -2.25,0 -3.8,-1.6 -1.6,-1.55 -1.6,-3.8 0,-2.25 1.6,-3.85 1.6,-1.55 3.8,-1.55 1.7,0 3.1,0.95 1.35,0.95 1.95,2.45 0.8,2.05 2.75,2.85 2,0.9 4.05,0.05 1.35,-0.55 2.8,-0.55 3.1,0 5.35,2.2 2.2,2.25 2.2,5.35 0,3.15 -2.2,5.35 -2.25,2.2 -5.35,2.2 -2.75,0 -4.85,-1.75 -2.05,-1.7 -2.55,-4.35"
           id="path3097" />
      </g>
      <g
         id="g3179">
        <g
           id="g3141"
           transform="matrix(0.06409329,0,0,0.06409329,58.037883,135.88763)"
           style="opacity:0.53800001;fill:#003380;stroke-width:0.78697437">
          <path
             id="path3139"
             d="m 15.7,-13.4 0.2,0.1 3.45,0.1 q 1.75,-0.6 2.75,-2.1 6.4,-10 17.15,-14.2 l 6.3,0.15 q 3.15,1.35 4.35,4.55 1.25,3.15 -0.15,6.25 -1.35,3.15 -4.5,4.35 l -15.8,6.1 q -1.6,0.65 -2.5,2.05 -0.9,1.45 -0.8,3.1 v 1.25 q -0.2,1.75 0.75,3.25 0.9,1.5 2.55,2.15 7.45,2.75 13.05,8.65 2.4,2.45 2.3,5.85 -0.1,3.4 -2.55,5.75 Q 39.8,26.3 36.4,26.2 33,26.15 30.65,23.7 l -4.3,-4.55 q -1,-1.05 -2.4,-1.4 L 21.1,17.8 q -1.4,0.45 -2.35,1.55 -0.95,1.1 -1.2,2.55 -0.35,2.25 -1.85,3.9 -1.5,1.7 -3.7,2.3 h -0.15 q -1.2,0.3 -2.15,1.05 -0.9,0.8 -1.4,1.9 -0.5,1.1 -0.45,2.3 0.05,1.25 0.65,2.3 3.35,5.95 4.2,13 0.4,3.4 -1.7,6.05 Q 8.9,57.4 5.5,57.8 2.15,58.2 -0.55,56.1 -3.2,54 -3.6,50.6 L -6.5,25.45 q -0.3,-2.35 -2.2,-3.65 -1.9,-1.35 -4.2,-0.8 -1.95,0.55 -3.7,-0.55 l -0.65,-0.55 q -0.95,-0.85 -2.2,-1.2 l -2.45,-0.05 q -1.3,0.3 -2.25,1.1 -0.95,0.85 -1.45,2.05 -3.65,9.35 -11.7,15.45 -2.75,2 -6.1,1.55 -3.4,-0.5 -5.45,-3.2 -2,-2.7 -1.55,-6.1 0.5,-3.35 3.2,-5.4 l 8.45,-6.35 q 1.2,-0.9 1.75,-2.2 0.5,-1.4 0.25,-2.8 -0.25,-1.45 -1.2,-2.55 -1,-1.05 -2.4,-1.5 -1.25,-0.35 -2.15,-1.3 -0.9,-1 -1.2,-2.35 -0.35,-1.95 0.75,-3.6 1.1,-1.65 3.05,-2.05 l 5.1,-1.05 q 1.75,-0.35 2.9,-1.65 1.15,-1.35 1.2,-3.05 0.15,-1.75 -0.85,-3.2 -1,-1.45 -2.65,-2 -7.1,-2.35 -12.75,-7.6 -2.5,-2.3 -2.65,-5.7 -0.15,-3.4 2.15,-5.9 2.2,-2.35 5.4,-2.6 1.35,-0.1 2.45,-0.85 1.15,-0.75 1.75,-1.95 0.6,-1.2 0.55,-2.55 -0.05,-1.35 -0.8,-2.5 -1.5,-2.35 -2.7,-5.3 -1.3,-3.15 0,-6.3 1.3,-3.15 4.45,-4.4 3.15,-1.3 6.3,0 3.15,1.3 4.4,4.45 l 2.7,6.45 q 0.85,2.2 3.15,2.95 l 2.2,0.25 q 1.1,-0.15 2.05,-0.75 2.2,-1.3 4.7,-1.15 2.45,0.15 4.4,1.6 1.9,1.35 2.8,3.6 0.55,1.35 1.75,2.25 1.2,0.9 2.7,0.95 1.5,0.1 2.8,-0.6 1.3,-0.75 2,-2.05 l 1.7,-2.8 q 1.9,-2.85 5.25,-3.55 3.35,-0.65 6.15,1.25 2.8,1.9 3.5,5.2 0.65,3.35 -1.2,6.15 l -7.9,11.9 q -0.8,1.15 -0.9,2.6 -0.05,1.4 0.6,2.65 0.95,1.8 2.9,2.45"
             inkscape:connector-curvature="0"
             style="fill:#003380;stroke:none;stroke-width:0.78697437" />
        </g>
        <g
           style="opacity:0.53800001;fill:#c83737;stroke-width:0.78697437"
           transform="matrix(0.06409329,0,0,0.06409329,69.357364,125.38501)"
           id="g3149">
          <path
             style="fill:#c83737;stroke:none;stroke-width:0.78697437"
             inkscape:connector-curvature="0"
             d="m 15.7,-13.4 0.2,0.1 3.45,0.1 q 1.75,-0.6 2.75,-2.1 6.4,-10 17.15,-14.2 l 6.3,0.15 q 3.15,1.35 4.35,4.55 1.25,3.15 -0.15,6.25 -1.35,3.15 -4.5,4.35 l -15.8,6.1 q -1.6,0.65 -2.5,2.05 -0.9,1.45 -0.8,3.1 v 1.25 q -0.2,1.75 0.75,3.25 0.9,1.5 2.55,2.15 7.45,2.75 13.05,8.65 2.4,2.45 2.3,5.85 -0.1,3.4 -2.55,5.75 Q 39.8,26.3 36.4,26.2 33,26.15 30.65,23.7 l -4.3,-4.55 q -1,-1.05 -2.4,-1.4 L 21.1,17.8 q -1.4,0.45 -2.35,1.55 -0.95,1.1 -1.2,2.55 -0.35,2.25 -1.85,3.9 -1.5,1.7 -3.7,2.3 h -0.15 q -1.2,0.3 -2.15,1.05 -0.9,0.8 -1.4,1.9 -0.5,1.1 -0.45,2.3 0.05,1.25 0.65,2.3 3.35,5.95 4.2,13 0.4,3.4 -1.7,6.05 Q 8.9,57.4 5.5,57.8 2.15,58.2 -0.55,56.1 -3.2,54 -3.6,50.6 L -6.5,25.45 q -0.3,-2.35 -2.2,-3.65 -1.9,-1.35 -4.2,-0.8 -1.95,0.55 -3.7,-0.55 l -0.65,-0.55 q -0.95,-0.85 -2.2,-1.2 l -2.45,-0.05 q -1.3,0.3 -2.25,1.1 -0.95,0.85 -1.45,2.05 -3.65,9.35 -11.7,15.45 -2.75,2 -6.1,1.55 -3.4,-0.5 -5.45,-3.2 -2,-2.7 -1.55,-6.1 0.5,-3.35 3.2,-5.4 l 8.45,-6.35 q 1.2,-0.9 1.75,-2.2 0.5,-1.4 0.25,-2.8 -0.25,-1.45 -1.2,-2.55 -1,-1.05 -2.4,-1.5 -1.25,-0.35 -2.15,-1.3 -0.9,-1 -1.2,-2.35 -0.35,-1.95 0.75,-3.6 1.1,-1.65 3.05,-2.05 l 5.1,-1.05 q 1.75,-0.35 2.9,-1.65 1.15,-1.35 1.2,-3.05 0.15,-1.75 -0.85,-3.2 -1,-1.45 -2.65,-2 -7.1,-2.35 -12.75,-7.6 -2.5,-2.3 -2.65,-5.7 -0.15,-3.4 2.15,-5.9 2.2,-2.35 5.4,-2.6 1.35,-0.1 2.45,-0.85 1.15,-0.75 1.75,-1.95 0.6,-1.2 0.55,-2.55 -0.05,-1.35 -0.8,-2.5 -1.5,-2.35 -2.7,-5.3 -1.3,-3.15 0,-6.3 1.3,-3.15 4.45,-4.4 3.15,-1.3 6.3,0 3.15,1.3 4.4,4.45 l 2.7,6.45 q 0.85,2.2 3.15,2.95 l 2.2,0.25 q 1.1,-0.15 2.05,-0.75 2.2,-1.3 4.7,-1.15 2.45,0.15 4.4,1.6 1.9,1.35 2.8,3.6 0.55,1.35 1.75,2.25 1.2,0.9 2.7,0.95 1.5,0.1 2.8,-0.6 1.3,-0.75 2,-2.05 l 1.7,-2.8 q 1.9,-2.85 5.25,-3.55 3.35,-0.65 6.15,1.25 2.8,1.9 3.5,5.2 0.65,3.35 -1.2,6.15 l -7.9,11.9 q -0.8,1.15 -0.9,2.6 -0.05,1.4 0.6,2.65 0.95,1.8 2.9,2.45"
             id="path3147" />
        </g>
        <g
           id="g3153"
           transform="matrix(0.06409329,0,0,0.06409329,89.895804,126.43527)"
           style="opacity:0.53800001;fill:#008000;stroke-width:0.78697437">
          <path
             id="path3151"
             d="m 15.7,-13.4 0.2,0.1 3.45,0.1 q 1.75,-0.6 2.75,-2.1 6.4,-10 17.15,-14.2 l 6.3,0.15 q 3.15,1.35 4.35,4.55 1.25,3.15 -0.15,6.25 -1.35,3.15 -4.5,4.35 l -15.8,6.1 q -1.6,0.65 -2.5,2.05 -0.9,1.45 -0.8,3.1 v 1.25 q -0.2,1.75 0.75,3.25 0.9,1.5 2.55,2.15 7.45,2.75 13.05,8.65 2.4,2.45 2.3,5.85 -0.1,3.4 -2.55,5.75 Q 39.8,26.3 36.4,26.2 33,26.15 30.65,23.7 l -4.3,-4.55 q -1,-1.05 -2.4,-1.4 L 21.1,17.8 q -1.4,0.45 -2.35,1.55 -0.95,1.1 -1.2,2.55 -0.35,2.25 -1.85,3.9 -1.5,1.7 -3.7,2.3 h -0.15 q -1.2,0.3 -2.15,1.05 -0.9,0.8 -1.4,1.9 -0.5,1.1 -0.45,2.3 0.05,1.25 0.65,2.3 3.35,5.95 4.2,13 0.4,3.4 -1.7,6.05 Q 8.9,57.4 5.5,57.8 2.15,58.2 -0.55,56.1 -3.2,54 -3.6,50.6 L -6.5,25.45 q -0.3,-2.35 -2.2,-3.65 -1.9,-1.35 -4.2,-0.8 -1.95,0.55 -3.7,-0.55 l -0.65,-0.55 q -0.95,-0.85 -2.2,-1.2 l -2.45,-0.05 q -1.3,0.3 -2.25,1.1 -0.95,0.85 -1.45,2.05 -3.65,9.35 -11.7,15.45 -2.75,2 -6.1,1.55 -3.4,-0.5 -5.45,-3.2 -2,-2.7 -1.55,-6.1 0.5,-3.35 3.2,-5.4 l 8.45,-6.35 q 1.2,-0.9 1.75,-2.2 0.5,-1.4 0.25,-2.8 -0.25,-1.45 -1.2,-2.55 -1,-1.05 -2.4,-1.5 -1.25,-0.35 -2.15,-1.3 -0.9,-1 -1.2,-2.35 -0.35,-1.95 0.75,-3.6 1.1,-1.65 3.05,-2.05 l 5.1,-1.05 q 1.75,-0.35 2.9,-1.65 1.15,-1.35 1.2,-3.05 0.15,-1.75 -0.85,-3.2 -1,-1.45 -2.65,-2 -7.1,-2.35 -12.75,-7.6 -2.5,-2.3 -2.65,-5.7 -0.15,-3.4 2.15,-5.9 2.2,-2.35 5.4,-2.6 1.35,-0.1 2.45,-0.85 1.15,-0.75 1.75,-1.95 0.6,-1.2 0.55,-2.55 -0.05,-1.35 -0.8,-2.5 -1.5,-2.35 -2.7,-5.3 -1.3,-3.15 0,-6.3 1.3,-3.15 4.45,-4.4 3.15,-1.3 6.3,0 3.15,1.3 4.4,4.45 l 2.7,6.45 q 0.85,2.2 3.15,2.95 l 2.2,0.25 q 1.1,-0.15 2.05,-0.75 2.2,-1.3 4.7,-1.15 2.45,0.15 4.4,1.6 1.9,1.35 2.8,3.6 0.55,1.35 1.75,2.25 1.2,0.9 2.7,0.95 1.5,0.1 2.8,-0.6 1.3,-0.75 2,-2.05 l 1.7,-2.8 q 1.9,-2.85 5.25,-3.55 3.35,-0.65 6.15,1.25 2.8,1.9 3.5,5.2 0.65,3.35 -1.2,6.15 l -7.9,11.9 q -0.8,1.15 -0.9,2.6 -0.05,1.4 0.6,2.65 0.95,1.8 2.9,2.45"
             inkscape:connector-curvature="0"
             style="fill:#008000;stroke:none;stroke-width:0.78697437" />
        </g>
        <g
           style="opacity:0.53800001;fill:#2c5aa0;stroke-width:0.78697437"
           transform="matrix(0.06409329,0,0,0.06409329,110.08416,120.83388)"
           id="g3157">
          <path
             style="fill:#2c5aa0;stroke:none;stroke-width:0.78697437"
             inkscape:connector-curvature="0"
             d="m 15.7,-13.4 0.2,0.1 3.45,0.1 q 1.75,-0.6 2.75,-2.1 6.4,-10 17.15,-14.2 l 6.3,0.15 q 3.15,1.35 4.35,4.55 1.25,3.15 -0.15,6.25 -1.35,3.15 -4.5,4.35 l -15.8,6.1 q -1.6,0.65 -2.5,2.05 -0.9,1.45 -0.8,3.1 v 1.25 q -0.2,1.75 0.75,3.25 0.9,1.5 2.55,2.15 7.45,2.75 13.05,8.65 2.4,2.45 2.3,5.85 -0.1,3.4 -2.55,5.75 Q 39.8,26.3 36.4,26.2 33,26.15 30.65,23.7 l -4.3,-4.55 q -1,-1.05 -2.4,-1.4 L 21.1,17.8 q -1.4,0.45 -2.35,1.55 -0.95,1.1 -1.2,2.55 -0.35,2.25 -1.85,3.9 -1.5,1.7 -3.7,2.3 h -0.15 q -1.2,0.3 -2.15,1.05 -0.9,0.8 -1.4,1.9 -0.5,1.1 -0.45,2.3 0.05,1.25 0.65,2.3 3.35,5.95 4.2,13 0.4,3.4 -1.7,6.05 Q 8.9,57.4 5.5,57.8 2.15,58.2 -0.55,56.1 -3.2,54 -3.6,50.6 L -6.5,25.45 q -0.3,-2.35 -2.2,-3.65 -1.9,-1.35 -4.2,-0.8 -1.95,0.55 -3.7,-0.55 l -0.65,-0.55 q -0.95,-0.85 -2.2,-1.2 l -2.45,-0.05 q -1.3,0.3 -2.25,1.1 -0.95,0.85 -1.45,2.05 -3.65,9.35 -11.7,15.45 -2.75,2 -6.1,1.55 -3.4,-0.5 -5.45,-3.2 -2,-2.7 -1.55,-6.1 0.5,-3.35 3.2,-5.4 l 8.45,-6.35 q 1.2,-0.9 1.75,-2.2 0.5,-1.4 0.25,-2.8 -0.25,-1.45 -1.2,-2.55 -1,-1.05 -2.4,-1.5 -1.25,-0.35 -2.15,-1.3 -0.9,-1 -1.2,-2.35 -0.35,-1.95 0.75,-3.6 1.1,-1.65 3.05,-2.05 l 5.1,-1.05 q 1.75,-0.35 2.9,-1.65 1.15,-1.35 1.2,-3.05 0.15,-1.75 -0.85,-3.2 -1,-1.45 -2.65,-2 -7.1,-2.35 -12.75,-7.6 -2.5,-2.3 -2.65,-5.7 -0.15,-3.4 2.15,-5.9 2.2,-2.35 5.4,-2.6 1.35,-0.1 2.45,-0.85 1.15,-0.75 1.75,-1.95 0.6,-1.2 0.55,-2.55 -0.05,-1.35 -0.8,-2.5 -1.5,-2.35 -2.7,-5.3 -1.3,-3.15 0,-6.3 1.3,-3.15 4.45,-4.4 3.15,-1.3 6.3,0 3.15,1.3 4.4,4.45 l 2.7,6.45 q 0.85,2.2 3.15,2.95 l 2.2,0.25 q 1.1,-0.15 2.05,-0.75 2.2,-1.3 4.7,-1.15 2.45,0.15 4.4,1.6 1.9,1.35 2.8,3.6 0.55,1.35 1.75,2.25 1.2,0.9 2.7,0.95 1.5,0.1 2.8,-0.6 1.3,-0.75 2,-2.05 l 1.7,-2.8 q 1.9,-2.85 5.25,-3.55 3.35,-0.65 6.15,1.25 2.8,1.9 3.5,5.2 0.65,3.35 -1.2,6.15 l -7.9,11.9 q -0.8,1.15 -0.9,2.6 -0.05,1.4 0.6,2.65 0.95,1.8 2.9,2.45"
             id="path3155" />
        </g>
        <g
           id="g3161"
           transform="matrix(0.06409329,0,0,0.06409329,135.75721,131.68658)"
           style="opacity:0.53800001;fill:#c83737;stroke-width:0.78697437">
          <path
             id="path3159"
             d="m 15.7,-13.4 0.2,0.1 3.45,0.1 q 1.75,-0.6 2.75,-2.1 6.4,-10 17.15,-14.2 l 6.3,0.15 q 3.15,1.35 4.35,4.55 1.25,3.15 -0.15,6.25 -1.35,3.15 -4.5,4.35 l -15.8,6.1 q -1.6,0.65 -2.5,2.05 -0.9,1.45 -0.8,3.1 v 1.25 q -0.2,1.75 0.75,3.25 0.9,1.5 2.55,2.15 7.45,2.75 13.05,8.65 2.4,2.45 2.3,5.85 -0.1,3.4 -2.55,5.75 Q 39.8,26.3 36.4,26.2 33,26.15 30.65,23.7 l -4.3,-4.55 q -1,-1.05 -2.4,-1.4 L 21.1,17.8 q -1.4,0.45 -2.35,1.55 -0.95,1.1 -1.2,2.55 -0.35,2.25 -1.85,3.9 -1.5,1.7 -3.7,2.3 h -0.15 q -1.2,0.3 -2.15,1.05 -0.9,0.8 -1.4,1.9 -0.5,1.1 -0.45,2.3 0.05,1.25 0.65,2.3 3.35,5.95 4.2,13 0.4,3.4 -1.7,6.05 Q 8.9,57.4 5.5,57.8 2.15,58.2 -0.55,56.1 -3.2,54 -3.6,50.6 L -6.5,25.45 q -0.3,-2.35 -2.2,-3.65 -1.9,-1.35 -4.2,-0.8 -1.95,0.55 -3.7,-0.55 l -0.65,-0.55 q -0.95,-0.85 -2.2,-1.2 l -2.45,-0.05 q -1.3,0.3 -2.25,1.1 -0.95,0.85 -1.45,2.05 -3.65,9.35 -11.7,15.45 -2.75,2 -6.1,1.55 -3.4,-0.5 -5.45,-3.2 -2,-2.7 -1.55,-6.1 0.5,-3.35 3.2,-5.4 l 8.45,-6.35 q 1.2,-0.9 1.75,-2.2 0.5,-1.4 0.25,-2.8 -0.25,-1.45 -1.2,-2.55 -1,-1.05 -2.4,-1.5 -1.25,-0.35 -2.15,-1.3 -0.9,-1 -1.2,-2.35 -0.35,-1.95 0.75,-3.6 1.1,-1.65 3.05,-2.05 l 5.1,-1.05 q 1.75,-0.35 2.9,-1.65 1.15,-1.35 1.2,-3.05 0.15,-1.75 -0.85,-3.2 -1,-1.45 -2.65,-2 -7.1,-2.35 -12.75,-7.6 -2.5,-2.3 -2.65,-5.7 -0.15,-3.4 2.15,-5.9 2.2,-2.35 5.4,-2.6 1.35,-0.1 2.45,-0.85 1.15,-0.75 1.75,-1.95 0.6,-1.2 0.55,-2.55 -0.05,-1.35 -0.8,-2.5 -1.5,-2.35 -2.7,-5.3 -1.3,-3.15 0,-6.3 1.3,-3.15 4.45,-4.4 3.15,-1.3 6.3,0 3.15,1.3 4.4,4.45 l 2.7,6.45 q 0.85,2.2 3.15,2.95 l 2.2,0.25 q 1.1,-0.15 2.05,-0.75 2.2,-1.3 4.7,-1.15 2.45,0.15 4.4,1.6 1.9,1.35 2.8,3.6 0.55,1.35 1.75,2.25 1.2,0.9 2.7,0.95 1.5,0.1 2.8,-0.6 1.3,-0.75 2,-2.05 l 1.7,-2.8 q 1.9,-2.85 5.25,-3.55 3.35,-0.65 6.15,1.25 2.8,1.9 3.5,5.2 0.65,3.35 -1.2,6.15 l -7.9,11.9 q -0.8,1.15 -0.9,2.6 -0.05,1.4 0.6,2.65 0.95,1.8 2.9,2.45"
             inkscape:connector-curvature="0"
             style="fill:#c83737;stroke:none;stroke-width:0.78697437" />
        </g>
        <g
           style="opacity:0.53800001;fill:#ffcc00;stroke-width:0.78697437"
           transform="matrix(0.06409329,0,0,0.06409329,50.753169,130.30376)"
           id="g3165">
          <path
             style="fill:#ffcc00;stroke:none;stroke-width:0.78697437"
             inkscape:connector-curvature="0"
             d="m 15.7,-13.4 0.2,0.1 3.45,0.1 q 1.75,-0.6 2.75,-2.1 6.4,-10 17.15,-14.2 l 6.3,0.15 q 3.15,1.35 4.35,4.55 1.25,3.15 -0.15,6.25 -1.35,3.15 -4.5,4.35 l -15.8,6.1 q -1.6,0.65 -2.5,2.05 -0.9,1.45 -0.8,3.1 v 1.25 q -0.2,1.75 0.75,3.25 0.9,1.5 2.55,2.15 7.45,2.75 13.05,8.65 2.4,2.45 2.3,5.85 -0.1,3.4 -2.55,5.75 Q 39.8,26.3 36.4,26.2 33,26.15 30.65,23.7 l -4.3,-4.55 q -1,-1.05 -2.4,-1.4 L 21.1,17.8 q -1.4,0.45 -2.35,1.55 -0.95,1.1 -1.2,2.55 -0.35,2.25 -1.85,3.9 -1.5,1.7 -3.7,2.3 h -0.15 q -1.2,0.3 -2.15,1.05 -0.9,0.8 -1.4,1.9 -0.5,1.1 -0.45,2.3 0.05,1.25 0.65,2.3 3.35,5.95 4.2,13 0.4,3.4 -1.7,6.05 Q 8.9,57.4 5.5,57.8 2.15,58.2 -0.55,56.1 -3.2,54 -3.6,50.6 L -6.5,25.45 q -0.3,-2.35 -2.2,-3.65 -1.9,-1.35 -4.2,-0.8 -1.95,0.55 -3.7,-0.55 l -0.65,-0.55 q -0.95,-0.85 -2.2,-1.2 l -2.45,-0.05 q -1.3,0.3 -2.25,1.1 -0.95,0.85 -1.45,2.05 -3.65,9.35 -11.7,15.45 -2.75,2 -6.1,1.55 -3.4,-0.5 -5.45,-3.2 -2,-2.7 -1.55,-6.1 0.5,-3.35 3.2,-5.4 l 8.45,-6.35 q 1.2,-0.9 1.75,-2.2 0.5,-1.4 0.25,-2.8 -0.25,-1.45 -1.2,-2.55 -1,-1.05 -2.4,-1.5 -1.25,-0.35 -2.15,-1.3 -0.9,-1 -1.2,-2.35 -0.35,-1.95 0.75,-3.6 1.1,-1.65 3.05,-2.05 l 5.1,-1.05 q 1.75,-0.35 2.9,-1.65 1.15,-1.35 1.2,-3.05 0.15,-1.75 -0.85,-3.2 -1,-1.45 -2.65,-2 -7.1,-2.35 -12.75,-7.6 -2.5,-2.3 -2.65,-5.7 -0.15,-3.4 2.15,-5.9 2.2,-2.35 5.4,-2.6 1.35,-0.1 2.45,-0.85 1.15,-0.75 1.75,-1.95 0.6,-1.2 0.55,-2.55 -0.05,-1.35 -0.8,-2.5 -1.5,-2.35 -2.7,-5.3 -1.3,-3.15 0,-6.3 1.3,-3.15 4.45,-4.4 3.15,-1.3 6.3,0 3.15,1.3 4.4,4.45 l 2.7,6.45 q 0.85,2.2 3.15,2.95 l 2.2,0.25 q 1.1,-0.15 2.05,-0.75 2.2,-1.3 4.7,-1.15 2.45,0.15 4.4,1.6 1.9,1.35 2.8,3.6 0.55,1.35 1.75,2.25 1.2,0.9 2.7,0.95 1.5,0.1 2.8,-0.6 1.3,-0.75 2,-2.05 l 1.7,-2.8 q 1.9,-2.85 5.25,-3.55 3.35,-0.65 6.15,1.25 2.8,1.9 3.5,5.2 0.65,3.35 -1.2,6.15 l -7.9,11.9 q -0.8,1.15 -0.9,2.6 -0.05,1.4 0.6,2.65 0.95,1.8 2.9,2.45"
             id="path3163" />
        </g>
        <g
           id="g3191"
           transform="matrix(0.06100656,0,0,0.06100656,124.61671,120.37919)"
           style="opacity:0.53800001;vector-effect:none;fill:#008000;fill-opacity:1;stroke:none;stroke-width:0.82679272;stroke-linecap:butt;stroke-linejoin:miter;stroke-miterlimit:4;stroke-dasharray:none;stroke-dashoffset:0;stroke-opacity:1">
          <path
             id="path3189"
             d="m -28.9,-23.75 q 1.15,1.65 3.15,2.1 1.95,0.45 3.75,-0.5 1.75,-1 2.45,-2.9 0.65,-1.9 -0.1,-3.75 -1.4,-3.5 -1.4,-7.4 0,-8.2 5.75,-13.95 5.8,-5.8 13.95,-5.8 7.55,0 13.2,5.05 5.55,5.05 6.4,12.45 0.3,2.2 2,3.55 1.75,1.4 3.95,1.1 l 1.3,-0.2 q 1.3,-0.15 2.35,-0.85 1.05,-0.75 1.65,-1.85 1.85,-3.45 5.25,-5.5 3.45,-2.15 7.5,-2.15 6,0 10.25,4.25 4.25,4.3 4.25,10.3 0,4.05 -2.15,7.6 -0.7,1.1 -0.75,2.4 -0.1,1.3 0.45,2.5 2.35,5.4 2.35,11.35 0,7.5 -3.65,13.85 -0.8,1.4 -0.7,2.95 0.1,1.55 1,2.85 2.8,3.8 2.8,8.55 0,6 -4.25,10.25 -4.2,4.25 -10.2,4.25 -5.1,0 -9.05,-3.15 -3.9,-3.1 -5.05,-7.9 -0.4,-1.55 -1.5,-2.6 Q 24.9,22 23.35,21.7 L 19.3,20.65 q -1.75,-0.6 -3.5,0 -1.7,0.6 -2.7,2.15 l -0.4,0.6 q -0.85,1.15 -0.95,2.6 -0.15,1.45 0.45,2.7 1.75,3.75 1.75,8.05 0,7.95 -5.6,13.55 -5.6,5.65 -13.55,5.65 -7.95,0 -13.55,-5.65 -5.65,-5.6 -5.65,-13.55 l 0.05,-1.45 q 0.15,-1.4 -0.45,-2.7 -0.65,-1.3 -1.8,-2.15 -2.65,-1.85 -4.8,-4.2 -1.1,-1.2 -2.65,-1.6 l -3.1,0.2 q -2.45,0.9 -5.05,0.9 -6,0 -10.3,-4.25 -4.2,-4.25 -4.2,-10.25 0,-4.15 2.15,-7.65 2.15,-3.4 5.7,-5.25 1.05,-0.5 1.8,-1.5 0.7,-0.95 0.95,-2.15 0.25,-1.2 -0.05,-2.35 -0.3,-1.15 -1.1,-2.1 -2.7,-3.2 -2.7,-7.4 0,-4.8 3.4,-8.2 3.4,-3.4 8.2,-3.4 2.9,0 5.4,1.35 2.5,1.35 4.05,3.65"
             inkscape:connector-curvature="0"
             style="vector-effect:none;fill:#008000;fill-opacity:1;stroke:none;stroke-width:0.82679272;stroke-linecap:butt;stroke-linejoin:miter;stroke-miterlimit:4;stroke-dasharray:none;stroke-dashoffset:0;stroke-opacity:1" />
        </g>
        <g
           id="g3221"
           transform="matrix(0.0823225,0,0,0.0823225,148.24943,138.79734)"
           style="opacity:0.53800001;vector-effect:none;fill:#8800aa;fill-opacity:1;stroke:none;stroke-width:0.61270946;stroke-linecap:butt;stroke-linejoin:miter;stroke-miterlimit:4;stroke-dasharray:none;stroke-dashoffset:0;stroke-opacity:1">
          <path
             id="path3219"
             d="m -17.4,-34.85 q 1,0.45 2.05,0.45 1.05,0 2,-0.5 0.95,-0.5 1.55,-1.35 0.65,-0.85 0.85,-1.9 0.6,-3.5 2.1,-5.8 1.6,-2.55 4.1,-3.25 3.05,-0.9 6.65,1.45 4.15,2.7 7,8.4 0.55,1.05 1.55,1.7 1,0.65 2.2,0.75 1.2,0.1 2.3,-0.45 1.05,-0.55 1.75,-1.55 0.95,-1.5 2.5,-2.3 1.6,-0.9 3.45,-0.9 2.5,0 4.5,1.6 1.95,1.55 2.45,4 0.3,1.45 1.45,2.45 1.1,1 2.6,1.1 3.45,0.25 5.25,2.35 2.15,2.4 1.5,6.8 -0.2,0.95 0.1,1.95 0.25,0.95 0.9,1.7 1.45,1.6 3.5,1.5 3.2,-0.05 5.3,1.05 1.6,0.9 1.95,2.05 0.6,1.7 -1.2,4.05 -2.45,3.2 -7,4.85 -1.05,0.4 -1.85,1.25 -0.75,0.8 -1,1.95 -0.25,1.1 0.05,2.2 0.3,1.1 1.1,1.95 1.95,2.05 2.8,4.2 0.95,2.3 0.4,4.4 -0.4,1.6 0.3,3.1 0.75,1.5 2.25,2.15 1.9,0.85 3.1,2.6 1.2,1.8 1.2,3.95 0,2.95 -2.1,5.05 -2.1,2.1 -5.05,2.1 -2.9,0 -5,-2.05 -2.1,-2.1 -2.15,-5 l 0.05,-0.45 q 0.05,-1.95 -1.3,-3.4 -1.5,-1.45 -3.45,-1.3 l -3.75,-0.1 -2.15,0.35 q -1,0.4 -1.7,1.3 -0.75,0.85 -0.95,1.95 -0.25,1.1 0.05,2.1 1.1,3.8 0.7,6.75 -0.4,3.3 -2.55,5 -3,2.4 -8.2,0.9 -2.1,-0.55 -3.85,0.65 -1.7,1.2 -1.9,3.3 -0.25,3.25 -1.65,5.35 -1,1.55 -2.3,1.8 -1.45,0.3 -3.2,-1.1 -2.4,-1.85 -3.8,-5.4 -0.4,-1.05 -1.25,-1.75 -0.85,-0.75 -1.95,-0.95 -1.05,-0.25 -2.1,0 -1.1,0.3 -1.9,1.05 -3.1,2.8 -6.05,3.85 l -5.85,-0.15 q -2.7,-1.3 -3.8,-4.7 -1.05,-3.15 -0.65,-7.45 0.2,-2 -1.15,-3.5 -1.35,-1.45 -3.4,-1.45 -2.9,0.05 -5.15,-0.8 l -2.55,-0.25 q -1.35,0.3 -2.3,1.25 -2.1,2.15 -5.1,2.15 -2.95,0 -5.05,-2.1 -2.1,-2.1 -2.1,-5.05 0,-2.95 2.1,-5.05 2.1,-2.1 5.05,-2.1 l 2.2,0.4 3,-0.1 q 1.55,-0.55 2.35,-1.95 2.55,-4.6 7.4,-8.05 0.95,-0.7 1.45,-1.7 0.45,-1.1 0.4,-2.25 -0.05,-1.15 -0.7,-2.1 -0.6,-1 -1.65,-1.55 -2.65,-1.45 -4.1,-3.25 -1.65,-2 -1.75,-4.25 -0.1,-3.05 2.55,-5.7 2.35,-2.4 6.55,-4 2.05,-0.85 2.7,-2.95 0.3,-1 0.1,-2.05 -0.2,-1.05 -0.8,-1.85 -1.8,-2.45 -2.15,-4.8 -0.25,-1.75 0.5,-2.75 0.85,-1.15 3.15,-1.35 3,-0.25 6.55,1.5"
             inkscape:connector-curvature="0"
             style="vector-effect:none;fill:#8800aa;fill-opacity:1;stroke:none;stroke-width:0.61270946;stroke-linecap:butt;stroke-linejoin:miter;stroke-miterlimit:4;stroke-dasharray:none;stroke-dashoffset:0;stroke-opacity:1" />
        </g>
      </g>
    </g>
  </g>
</svg>
