<?xml version="1.0" encoding="UTF-8" standalone="no"?>
<!-- Created with Inkscape (http://www.inkscape.org/) -->

<svg
   xmlns:dc="http://purl.org/dc/elements/1.1/"
   xmlns:cc="http://creativecommons.org/ns#"
   xmlns:rdf="http://www.w3.org/1999/02/22-rdf-syntax-ns#"
   xmlns:svg="http://www.w3.org/2000/svg"
   xmlns="http://www.w3.org/2000/svg"
   xmlns:xlink="http://www.w3.org/1999/xlink"
   xmlns:sodipodi="http://sodipodi.sourceforge.net/DTD/sodipodi-0.dtd"
   xmlns:inkscape="http://www.inkscape.org/namespaces/inkscape"
   width="1152"
   height="648"
   viewBox="0 0 304.79999 171.45001"
   version="1.1"
   id="svg1924"
   inkscape:version="0.92.5 (2060ec1f9f, 2020-04-08)"
   sodipodi:docname="border.svg"
   inkscape:export-filename="/home/severinlemaignan/src/towerdefense/res/backgrounds/border.png"
   inkscape:export-xdpi="96"
   inkscape:export-ydpi="96">
  <defs
     id="defs1918" />
  <sodipodi:namedview
     id="base"
     pagecolor="#ffffff"
     bordercolor="#666666"
     borderopacity="1.0"
     inkscape:pageopacity="0.0"
     inkscape:pageshadow="2"
     inkscape:zoom="0.98994949"
     inkscape:cx="490.9587"
     inkscape:cy="249.07024"
     inkscape:document-units="mm"
     inkscape:current-layer="g3179"
     showgrid="false"
     units="px"
     borderlayer="true"
     inkscape:window-width="1920"
     inkscape:window-height="1016"
     inkscape:window-x="0"
     inkscape:window-y="27"
     inkscape:window-maximized="1"
     inkscape:snap-page="true"
     inkscape:snap-global="false"
     inkscape:pagecheckerboard="false" />
  <metadata
     id="metadata1921">
    <rdf:RDF>
      <cc:Work
         rdf:about="">
        <dc:format>image/svg+xml</dc:format>
        <dc:type
           rdf:resource="http://purl.org/dc/dcmitype/StillImage" />
        <dc:title></dc:title>
      </cc:Work>
    </rdf:RDF>
  </metadata>
  <g
     inkscape:groupmode="layer"
     id="layer3"
     inkscape:label="Layer 2"
     sodipodi:insensitive="true"
     style="display:none">
    <image
       style="opacity:1;fill:#ff0000;fill-opacity:1;stroke-width:0.72446865"
       sodipodi:absref="/home/severinlemaignan/Pictures/Screenshot from 2023-09-01 21-53-02.png"
       y="-0.8509692"
       x="-1.096266"
       id="image3349"
       xlink:href="file:///home/severinlemaignan/Pictures/Screenshot%20from%202023-09-01%2021-53-02.png"
       preserveAspectRatio="none"
       height="172.21542"
       width="306.16071" />
  </g>
  <g
     inkscape:label="Layer 1"
     inkscape:groupmode="layer"
     id="layer1"
     transform="translate(0,-125.54998)"
     style="opacity:1">
    <g
       id="g2547"
       transform="matrix(2.2903121,0,0,2.2903121,-77.612563,-131.54727)"
       style="stroke-width:0.43662173">
      <g
         id="g3179"
         style="fill:#ff0000;opacity:1;fill-opacity:1">
        <rect
           ry="3.1238909"
           rx="3.1238909"
           y="109.91772"
           x="52.43129"
           height="17.398798"
           width="94.226257"
           id="rect3369"
           style="opacity:1;vector-effect:none;fill:#ff0000;fill-opacity:1;stroke:none;stroke-width:0.05043977;stroke-linecap:butt;stroke-linejoin:miter;stroke-miterlimit:4;stroke-dasharray:none;stroke-dashoffset:0;stroke-opacity:1" />
        <g
           style="opacity:1;fill:#ff0000;fill-opacity:1;stroke-width:0.43694675"
           transform="matrix(0.1154369,0,0,0.1154369,75.564834,115.75329)"
           id="g3324">
          <path
             style="fill:#ff0000;fill-opacity:1;stroke:none;stroke-width:0.43694675"
             inkscape:connector-curvature="0"
             d="m 15.7,-13.4 0.2,0.1 3.45,0.1 q 1.75,-0.6 2.75,-2.1 6.4,-10 17.15,-14.2 l 6.3,0.15 q 3.15,1.35 4.35,4.55 1.25,3.15 -0.15,6.25 -1.35,3.15 -4.5,4.35 l -15.8,6.1 q -1.6,0.65 -2.5,2.05 -0.9,1.45 -0.8,3.1 v 1.25 q -0.2,1.75 0.75,3.25 0.9,1.5 2.55,2.15 7.45,2.75 13.05,8.65 2.4,2.45 2.3,5.85 -0.1,3.4 -2.55,5.75 Q 39.8,26.3 36.4,26.2 33,26.15 30.65,23.7 l -4.3,-4.55 q -1,-1.05 -2.4,-1.4 L 21.1,17.8 q -1.4,0.45 -2.35,1.55 -0.95,1.1 -1.2,2.55 -0.35,2.25 -1.85,3.9 -1.5,1.7 -3.7,2.3 h -0.15 q -1.2,0.3 -2.15,1.05 -0.9,0.8 -1.4,1.9 -0.5,1.1 -0.45,2.3 0.05,1.25 0.65,2.3 3.35,5.95 4.2,13 0.4,3.4 -1.7,6.05 Q 8.9,57.4 5.5,57.8 2.15,58.2 -0.55,56.1 -3.2,54 -3.6,50.6 L -6.5,25.45 q -0.3,-2.35 -2.2,-3.65 -1.9,-1.35 -4.2,-0.8 -1.95,0.55 -3.7,-0.55 l -0.65,-0.55 q -0.95,-0.85 -2.2,-1.2 l -2.45,-0.05 q -1.3,0.3 -2.25,1.1 -0.95,0.85 -1.45,2.05 -3.65,9.35 -11.7,15.45 -2.75,2 -6.1,1.55 -3.4,-0.5 -5.45,-3.2 -2,-2.7 -1.55,-6.1 0.5,-3.35 3.2,-5.4 l 8.45,-6.35 q 1.2,-0.9 1.75,-2.2 0.5,-1.4 0.25,-2.8 -0.25,-1.45 -1.2,-2.55 -1,-1.05 -2.4,-1.5 -1.25,-0.35 -2.15,-1.3 -0.9,-1 -1.2,-2.35 -0.35,-1.95 0.75,-3.6 1.1,-1.65 3.05,-2.05 l 5.1,-1.05 q 1.75,-0.35 2.9,-1.65 1.15,-1.35 1.2,-3.05 0.15,-1.75 -0.85,-3.2 -1,-1.45 -2.65,-2 -7.1,-2.35 -12.75,-7.6 -2.5,-2.3 -2.65,-5.7 -0.15,-3.4 2.15,-5.9 2.2,-2.35 5.4,-2.6 1.35,-0.1 2.45,-0.85 1.15,-0.75 1.75,-1.95 0.6,-1.2 0.55,-2.55 -0.05,-1.35 -0.8,-2.5 -1.5,-2.35 -2.7,-5.3 -1.3,-3.15 0,-6.3 1.3,-3.15 4.45,-4.4 3.15,-1.3 6.3,0 3.15,1.3 4.4,4.45 l 2.7,6.45 q 0.85,2.2 3.15,2.95 l 2.2,0.25 q 1.1,-0.15 2.05,-0.75 2.2,-1.3 4.7,-1.15 2.45,0.15 4.4,1.6 1.9,1.35 2.8,3.6 0.55,1.35 1.75,2.25 1.2,0.9 2.7,0.95 1.5,0.1 2.8,-0.6 1.3,-0.75 2,-2.05 l 1.7,-2.8 q 1.9,-2.85 5.25,-3.55 3.35,-0.65 6.15,1.25 2.8,1.9 3.5,5.2 0.65,3.35 -1.2,6.15 l -7.9,11.9 q -0.8,1.15 -0.9,2.6 -0.05,1.4 0.6,2.65 0.95,1.8 2.9,2.45"
             id="path3322" />
        </g>
        <g
           style="opacity:1;fill:#ff0000;fill-opacity:1;stroke-width:0.43694675"
           transform="matrix(0.03589358,0.10971476,-0.10971476,0.03589358,149.17244,117.53707)"
           id="g3328">
          <path
             style="fill:#ff0000;fill-opacity:1;stroke:none;stroke-width:0.43694675"
             inkscape:connector-curvature="0"
             d="m 15.7,-13.4 0.2,0.1 3.45,0.1 q 1.75,-0.6 2.75,-2.1 6.4,-10 17.15,-14.2 l 6.3,0.15 q 3.15,1.35 4.35,4.55 1.25,3.15 -0.15,6.25 -1.35,3.15 -4.5,4.35 l -15.8,6.1 q -1.6,0.65 -2.5,2.05 -0.9,1.45 -0.8,3.1 v 1.25 q -0.2,1.75 0.75,3.25 0.9,1.5 2.55,2.15 7.45,2.75 13.05,8.65 2.4,2.45 2.3,5.85 -0.1,3.4 -2.55,5.75 Q 39.8,26.3 36.4,26.2 33,26.15 30.65,23.7 l -4.3,-4.55 q -1,-1.05 -2.4,-1.4 L 21.1,17.8 q -1.4,0.45 -2.35,1.55 -0.95,1.1 -1.2,2.55 -0.35,2.25 -1.85,3.9 -1.5,1.7 -3.7,2.3 h -0.15 q -1.2,0.3 -2.15,1.05 -0.9,0.8 -1.4,1.9 -0.5,1.1 -0.45,2.3 0.05,1.25 0.65,2.3 3.35,5.95 4.2,13 0.4,3.4 -1.7,6.05 Q 8.9,57.4 5.5,57.8 2.15,58.2 -0.55,56.1 -3.2,54 -3.6,50.6 L -6.5,25.45 q -0.3,-2.35 -2.2,-3.65 -1.9,-1.35 -4.2,-0.8 -1.95,0.55 -3.7,-0.55 l -0.65,-0.55 q -0.95,-0.85 -2.2,-1.2 l -2.45,-0.05 q -1.3,0.3 -2.25,1.1 -0.95,0.85 -1.45,2.05 -3.65,9.35 -11.7,15.45 -2.75,2 -6.1,1.55 -3.4,-0.5 -5.45,-3.2 -2,-2.7 -1.55,-6.1 0.5,-3.35 3.2,-5.4 l 8.45,-6.35 q 1.2,-0.9 1.75,-2.2 0.5,-1.4 0.25,-2.8 -0.25,-1.45 -1.2,-2.55 -1,-1.05 -2.4,-1.5 -1.25,-0.35 -2.15,-1.3 -0.9,-1 -1.2,-2.35 -0.35,-1.95 0.75,-3.6 1.1,-1.65 3.05,-2.05 l 5.1,-1.05 q 1.75,-0.35 2.9,-1.65 1.15,-1.35 1.2,-3.05 0.15,-1.75 -0.85,-3.2 -1,-1.45 -2.65,-2 -7.1,-2.35 -12.75,-7.6 -2.5,-2.3 -2.65,-5.7 -0.15,-3.4 2.15,-5.9 2.2,-2.35 5.4,-2.6 1.35,-0.1 2.45,-0.85 1.15,-0.75 1.75,-1.95 0.6,-1.2 0.55,-2.55 -0.05,-1.35 -0.8,-2.5 -1.5,-2.35 -2.7,-5.3 -1.3,-3.15 0,-6.3 1.3,-3.15 4.45,-4.4 3.15,-1.3 6.3,0 3.15,1.3 4.4,4.45 l 2.7,6.45 q 0.85,2.2 3.15,2.95 l 2.2,0.25 q 1.1,-0.15 2.05,-0.75 2.2,-1.3 4.7,-1.15 2.45,0.15 4.4,1.6 1.9,1.35 2.8,3.6 0.55,1.35 1.75,2.25 1.2,0.9 2.7,0.95 1.5,0.1 2.8,-0.6 1.3,-0.75 2,-2.05 l 1.7,-2.8 q 1.9,-2.85 5.25,-3.55 3.35,-0.65 6.15,1.25 2.8,1.9 3.5,5.2 0.65,3.35 -1.2,6.15 l -7.9,11.9 q -0.8,1.15 -0.9,2.6 -0.05,1.4 0.6,2.65 0.95,1.8 2.9,2.45"
             id="path3326" />
        </g>
        <g
           id="g3141"
           transform="matrix(0.03589358,0.10971476,-0.10971476,0.03589358,149.05289,187.68977)"
           style="opacity:1;fill:#ff0000;fill-opacity:1;stroke-width:0.43694675">
          <path
             id="path3139"
             d="m 15.7,-13.4 0.2,0.1 3.45,0.1 q 1.75,-0.6 2.75,-2.1 6.4,-10 17.15,-14.2 l 6.3,0.15 q 3.15,1.35 4.35,4.55 1.25,3.15 -0.15,6.25 -1.35,3.15 -4.5,4.35 l -15.8,6.1 q -1.6,0.65 -2.5,2.05 -0.9,1.45 -0.8,3.1 v 1.25 q -0.2,1.75 0.75,3.25 0.9,1.5 2.55,2.15 7.45,2.75 13.05,8.65 2.4,2.45 2.3,5.85 -0.1,3.4 -2.55,5.75 Q 39.8,26.3 36.4,26.2 33,26.15 30.65,23.7 l -4.3,-4.55 q -1,-1.05 -2.4,-1.4 L 21.1,17.8 q -1.4,0.45 -2.35,1.55 -0.95,1.1 -1.2,2.55 -0.35,2.25 -1.85,3.9 -1.5,1.7 -3.7,2.3 h -0.15 q -1.2,0.3 -2.15,1.05 -0.9,0.8 -1.4,1.9 -0.5,1.1 -0.45,2.3 0.05,1.25 0.65,2.3 3.35,5.95 4.2,13 0.4,3.4 -1.7,6.05 Q 8.9,57.4 5.5,57.8 2.15,58.2 -0.55,56.1 -3.2,54 -3.6,50.6 L -6.5,25.45 q -0.3,-2.35 -2.2,-3.65 -1.9,-1.35 -4.2,-0.8 -1.95,0.55 -3.7,-0.55 l -0.65,-0.55 q -0.95,-0.85 -2.2,-1.2 l -2.45,-0.05 q -1.3,0.3 -2.25,1.1 -0.95,0.85 -1.45,2.05 -3.65,9.35 -11.7,15.45 -2.75,2 -6.1,1.55 -3.4,-0.5 -5.45,-3.2 -2,-2.7 -1.55,-6.1 0.5,-3.35 3.2,-5.4 l 8.45,-6.35 q 1.2,-0.9 1.75,-2.2 0.5,-1.4 0.25,-2.8 -0.25,-1.45 -1.2,-2.55 -1,-1.05 -2.4,-1.5 -1.25,-0.35 -2.15,-1.3 -0.9,-1 -1.2,-2.35 -0.35,-1.95 0.75,-3.6 1.1,-1.65 3.05,-2.05 l 5.1,-1.05 q 1.75,-0.35 2.9,-1.65 1.15,-1.35 1.2,-3.05 0.15,-1.75 -0.85,-3.2 -1,-1.45 -2.65,-2 -7.1,-2.35 -12.75,-7.6 -2.5,-2.3 -2.65,-5.7 -0.15,-3.4 2.15,-5.9 2.2,-2.35 5.4,-2.6 1.35,-0.1 2.45,-0.85 1.15,-0.75 1.75,-1.95 0.6,-1.2 0.55,-2.55 -0.05,-1.35 -0.8,-2.5 -1.5,-2.35 -2.7,-5.3 -1.3,-3.15 0,-6.3 1.3,-3.15 4.45,-4.4 3.15,-1.3 6.3,0 3.15,1.3 4.4,4.45 l 2.7,6.45 q 0.85,2.2 3.15,2.95 l 2.2,0.25 q 1.1,-0.15 2.05,-0.75 2.2,-1.3 4.7,-1.15 2.45,0.15 4.4,1.6 1.9,1.35 2.8,3.6 0.55,1.35 1.75,2.25 1.2,0.9 2.7,0.95 1.5,0.1 2.8,-0.6 1.3,-0.75 2,-2.05 l 1.7,-2.8 q 1.9,-2.85 5.25,-3.55 3.35,-0.65 6.15,1.25 2.8,1.9 3.5,5.2 0.65,3.35 -1.2,6.15 l -7.9,11.9 q -0.8,1.15 -0.9,2.6 -0.05,1.4 0.6,2.65 0.95,1.8 2.9,2.45"
             inkscape:connector-curvature="0"
             style="fill:#ff0000;fill-opacity:1;stroke:none;stroke-width:0.43694675" />
        </g>
        <g
           style="opacity:1;fill:#ff0000;fill-opacity:1;stroke-width:0.52215546"
           transform="matrix(0.06633298,-0.10155424,0.0644071,0.04206929,35.298704,129.28818)"
           id="g3165">
          <path
             style="fill:#ff0000;fill-opacity:1;stroke:none;stroke-width:0.52215546"
             inkscape:connector-curvature="0"
             d="m 15.7,-13.4 0.2,0.1 3.45,0.1 q 1.75,-0.6 2.75,-2.1 6.4,-10 17.15,-14.2 l 6.3,0.15 q 3.15,1.35 4.35,4.55 1.25,3.15 -0.15,6.25 -1.35,3.15 -4.5,4.35 l -15.8,6.1 q -1.6,0.65 -2.5,2.05 -0.9,1.45 -0.8,3.1 v 1.25 q -0.2,1.75 0.75,3.25 0.9,1.5 2.55,2.15 7.45,2.75 13.05,8.65 2.4,2.45 2.3,5.85 -0.1,3.4 -2.55,5.75 Q 39.8,26.3 36.4,26.2 33,26.15 30.65,23.7 l -4.3,-4.55 q -1,-1.05 -2.4,-1.4 L 21.1,17.8 q -1.4,0.45 -2.35,1.55 -0.95,1.1 -1.2,2.55 -0.35,2.25 -1.85,3.9 -1.5,1.7 -3.7,2.3 h -0.15 q -1.2,0.3 -2.15,1.05 -0.9,0.8 -1.4,1.9 -0.5,1.1 -0.45,2.3 0.05,1.25 0.65,2.3 3.35,5.95 4.2,13 0.4,3.4 -1.7,6.05 Q 8.9,57.4 5.5,57.8 2.15,58.2 -0.55,56.1 -3.2,54 -3.6,50.6 L -6.5,25.45 q -0.3,-2.35 -2.2,-3.65 -1.9,-1.35 -4.2,-0.8 -1.95,0.55 -3.7,-0.55 l -0.65,-0.55 q -0.95,-0.85 -2.2,-1.2 l -2.45,-0.05 q -1.3,0.3 -2.25,1.1 -0.95,0.85 -1.45,2.05 -3.65,9.35 -11.7,15.45 -2.75,2 -6.1,1.55 -3.4,-0.5 -5.45,-3.2 -2,-2.7 -1.55,-6.1 0.5,-3.35 3.2,-5.4 l 8.45,-6.35 q 1.2,-0.9 1.75,-2.2 0.5,-1.4 0.25,-2.8 -0.25,-1.45 -1.2,-2.55 -1,-1.05 -2.4,-1.5 -1.25,-0.35 -2.15,-1.3 -0.9,-1 -1.2,-2.35 -0.35,-1.95 0.75,-3.6 1.1,-1.65 3.05,-2.05 l 5.1,-1.05 q 1.75,-0.35 2.9,-1.65 1.15,-1.35 1.2,-3.05 0.15,-1.75 -0.85,-3.2 -1,-1.45 -2.65,-2 -7.1,-2.35 -12.75,-7.6 -2.5,-2.3 -2.65,-5.7 -0.15,-3.4 2.15,-5.9 2.2,-2.35 5.4,-2.6 1.35,-0.1 2.45,-0.85 1.15,-0.75 1.75,-1.95 0.6,-1.2 0.55,-2.55 -0.05,-1.35 -0.8,-2.5 -1.5,-2.35 -2.7,-5.3 -1.3,-3.15 0,-6.3 1.3,-3.15 4.45,-4.4 3.15,-1.3 6.3,0 3.15,1.3 4.4,4.45 l 2.7,6.45 q 0.85,2.2 3.15,2.95 l 2.2,0.25 q 1.1,-0.15 2.05,-0.75 2.2,-1.3 4.7,-1.15 2.45,0.15 4.4,1.6 1.9,1.35 2.8,3.6 0.55,1.35 1.75,2.25 1.2,0.9 2.7,0.95 1.5,0.1 2.8,-0.6 1.3,-0.75 2,-2.05 l 1.7,-2.8 q 1.9,-2.85 5.25,-3.55 3.35,-0.65 6.15,1.25 2.8,1.9 3.5,5.2 0.65,3.35 -1.2,6.15 l -7.9,11.9 q -0.8,1.15 -0.9,2.6 -0.05,1.4 0.6,2.65 0.95,1.8 2.9,2.45"
             id="path3163" />
        </g>
        <g
           style="opacity:1;vector-effect:none;fill:#ff0000;fill-opacity:1;stroke:none;stroke-width:0.82679272;stroke-linecap:butt;stroke-linejoin:miter;stroke-miterlimit:4;stroke-dasharray:none;stroke-dashoffset:0;stroke-opacity:1"
           transform="matrix(0.06100656,0,0,0.06100656,77.997426,183.19027)"
           id="g3332">
          <path
             style="vector-effect:none;fill:#ff0000;fill-opacity:1;stroke:none;stroke-width:0.82679272;stroke-linecap:butt;stroke-linejoin:miter;stroke-miterlimit:4;stroke-dasharray:none;stroke-dashoffset:0;stroke-opacity:1"
             inkscape:connector-curvature="0"
             d="m -28.9,-23.75 q 1.15,1.65 3.15,2.1 1.95,0.45 3.75,-0.5 1.75,-1 2.45,-2.9 0.65,-1.9 -0.1,-3.75 -1.4,-3.5 -1.4,-7.4 0,-8.2 5.75,-13.95 5.8,-5.8 13.95,-5.8 7.55,0 13.2,5.05 5.55,5.05 6.4,12.45 0.3,2.2 2,3.55 1.75,1.4 3.95,1.1 l 1.3,-0.2 q 1.3,-0.15 2.35,-0.85 1.05,-0.75 1.65,-1.85 1.85,-3.45 5.25,-5.5 3.45,-2.15 7.5,-2.15 6,0 10.25,4.25 4.25,4.3 4.25,10.3 0,4.05 -2.15,7.6 -0.7,1.1 -0.75,2.4 -0.1,1.3 0.45,2.5 2.35,5.4 2.35,11.35 0,7.5 -3.65,13.85 -0.8,1.4 -0.7,2.95 0.1,1.55 1,2.85 2.8,3.8 2.8,8.55 0,6 -4.25,10.25 -4.2,4.25 -10.2,4.25 -5.1,0 -9.05,-3.15 -3.9,-3.1 -5.05,-7.9 -0.4,-1.55 -1.5,-2.6 Q 24.9,22 23.35,21.7 L 19.3,20.65 q -1.75,-0.6 -3.5,0 -1.7,0.6 -2.7,2.15 l -0.4,0.6 q -0.85,1.15 -0.95,2.6 -0.15,1.45 0.45,2.7 1.75,3.75 1.75,8.05 0,7.95 -5.6,13.55 -5.6,5.65 -13.55,5.65 -7.95,0 -13.55,-5.65 -5.65,-5.6 -5.65,-13.55 l 0.05,-1.45 q 0.15,-1.4 -0.45,-2.7 -0.65,-1.3 -1.8,-2.15 -2.65,-1.85 -4.8,-4.2 -1.1,-1.2 -2.65,-1.6 l -3.1,0.2 q -2.45,0.9 -5.05,0.9 -6,0 -10.3,-4.25 -4.2,-4.25 -4.2,-10.25 0,-4.15 2.15,-7.65 2.15,-3.4 5.7,-5.25 1.05,-0.5 1.8,-1.5 0.7,-0.95 0.95,-2.15 0.25,-1.2 -0.05,-2.35 -0.3,-1.15 -1.1,-2.1 -2.7,-3.2 -2.7,-7.4 0,-4.8 3.4,-8.2 3.4,-3.4 8.2,-3.4 2.9,0 5.4,1.35 2.5,1.35 4.05,3.65"
             id="path3330" />
        </g>
        <g
           id="g3191"
           transform="matrix(0.05143898,0.06717009,-0.06717009,0.05143898,66.932465,184.96047)"
           style="opacity:1;vector-effect:none;fill:#ff0000;fill-opacity:1;stroke:none;stroke-width:0.59618872;stroke-linecap:butt;stroke-linejoin:miter;stroke-miterlimit:4;stroke-dasharray:none;stroke-dashoffset:0;stroke-opacity:1">
          <path
             id="path3189"
             d="m -28.9,-23.75 q 1.15,1.65 3.15,2.1 1.95,0.45 3.75,-0.5 1.75,-1 2.45,-2.9 0.65,-1.9 -0.1,-3.75 -1.4,-3.5 -1.4,-7.4 0,-8.2 5.75,-13.95 5.8,-5.8 13.95,-5.8 7.55,0 13.2,5.05 5.55,5.05 6.4,12.45 0.3,2.2 2,3.55 1.75,1.4 3.95,1.1 l 1.3,-0.2 q 1.3,-0.15 2.35,-0.85 1.05,-0.75 1.65,-1.85 1.85,-3.45 5.25,-5.5 3.45,-2.15 7.5,-2.15 6,0 10.25,4.25 4.25,4.3 4.25,10.3 0,4.05 -2.15,7.6 -0.7,1.1 -0.75,2.4 -0.1,1.3 0.45,2.5 2.35,5.4 2.35,11.35 0,7.5 -3.65,13.85 -0.8,1.4 -0.7,2.95 0.1,1.55 1,2.85 2.8,3.8 2.8,8.55 0,6 -4.25,10.25 -4.2,4.25 -10.2,4.25 -5.1,0 -9.05,-3.15 -3.9,-3.1 -5.05,-7.9 -0.4,-1.55 -1.5,-2.6 Q 24.9,22 23.35,21.7 L 19.3,20.65 q -1.75,-0.6 -3.5,0 -1.7,0.6 -2.7,2.15 l -0.4,0.6 q -0.85,1.15 -0.95,2.6 -0.15,1.45 0.45,2.7 1.75,3.75 1.75,8.05 0,7.95 -5.6,13.55 -5.6,5.65 -13.55,5.65 -7.95,0 -13.55,-5.65 -5.65,-5.6 -5.65,-13.55 l 0.05,-1.45 q 0.15,-1.4 -0.45,-2.7 -0.65,-1.3 -1.8,-2.15 -2.65,-1.85 -4.8,-4.2 -1.1,-1.2 -2.65,-1.6 l -3.1,0.2 q -2.45,0.9 -5.05,0.9 -6,0 -10.3,-4.25 -4.2,-4.25 -4.2,-10.25 0,-4.15 2.15,-7.65 2.15,-3.4 5.7,-5.25 1.05,-0.5 1.8,-1.5 0.7,-0.95 0.95,-2.15 0.25,-1.2 -0.05,-2.35 -0.3,-1.15 -1.1,-2.1 -2.7,-3.2 -2.7,-7.4 0,-4.8 3.4,-8.2 3.4,-3.4 8.2,-3.4 2.9,0 5.4,1.35 2.5,1.35 4.05,3.65"
             inkscape:connector-curvature="0"
             style="vector-effect:none;fill:#ff0000;fill-opacity:1;stroke:none;stroke-width:0.59618872;stroke-linecap:butt;stroke-linejoin:miter;stroke-miterlimit:4;stroke-dasharray:none;stroke-dashoffset:0;stroke-opacity:1" />
        </g>
        <g
           id="g3221"
           transform="matrix(0.15362052,0,0,0.15362052,167.88053,177.39038)"
           style="opacity:1;vector-effect:none;fill:#ff0000;fill-opacity:1;stroke:none;stroke-width:0.32834008;stroke-linecap:butt;stroke-linejoin:miter;stroke-miterlimit:4;stroke-dasharray:none;stroke-dashoffset:0;stroke-opacity:1">
          <path
             id="path3219"
             d="m -17.4,-34.85 q 1,0.45 2.05,0.45 1.05,0 2,-0.5 0.95,-0.5 1.55,-1.35 0.65,-0.85 0.85,-1.9 0.6,-3.5 2.1,-5.8 1.6,-2.55 4.1,-3.25 3.05,-0.9 6.65,1.45 4.15,2.7 7,8.4 0.55,1.05 1.55,1.7 1,0.65 2.2,0.75 1.2,0.1 2.3,-0.45 1.05,-0.55 1.75,-1.55 0.95,-1.5 2.5,-2.3 1.6,-0.9 3.45,-0.9 2.5,0 4.5,1.6 1.95,1.55 2.45,4 0.3,1.45 1.45,2.45 1.1,1 2.6,1.1 3.45,0.25 5.25,2.35 2.15,2.4 1.5,6.8 -0.2,0.95 0.1,1.95 0.25,0.95 0.9,1.7 1.45,1.6 3.5,1.5 3.2,-0.05 5.3,1.05 1.6,0.9 1.95,2.05 0.6,1.7 -1.2,4.05 -2.45,3.2 -7,4.85 -1.05,0.4 -1.85,1.25 -0.75,0.8 -1,1.95 -0.25,1.1 0.05,2.2 0.3,1.1 1.1,1.95 1.95,2.05 2.8,4.2 0.95,2.3 0.4,4.4 -0.4,1.6 0.3,3.1 0.75,1.5 2.25,2.15 1.9,0.85 3.1,2.6 1.2,1.8 1.2,3.95 0,2.95 -2.1,5.05 -2.1,2.1 -5.05,2.1 -2.9,0 -5,-2.05 -2.1,-2.1 -2.15,-5 l 0.05,-0.45 q 0.05,-1.95 -1.3,-3.4 -1.5,-1.45 -3.45,-1.3 l -3.75,-0.1 -2.15,0.35 q -1,0.4 -1.7,1.3 -0.75,0.85 -0.95,1.95 -0.25,1.1 0.05,2.1 1.1,3.8 0.7,6.75 -0.4,3.3 -2.55,5 -3,2.4 -8.2,0.9 -2.1,-0.55 -3.85,0.65 -1.7,1.2 -1.9,3.3 -0.25,3.25 -1.65,5.35 -1,1.55 -2.3,1.8 -1.45,0.3 -3.2,-1.1 -2.4,-1.85 -3.8,-5.4 -0.4,-1.05 -1.25,-1.75 -0.85,-0.75 -1.95,-0.95 -1.05,-0.25 -2.1,0 -1.1,0.3 -1.9,1.05 -3.1,2.8 -6.05,3.85 l -5.85,-0.15 q -2.7,-1.3 -3.8,-4.7 -1.05,-3.15 -0.65,-7.45 0.2,-2 -1.15,-3.5 -1.35,-1.45 -3.4,-1.45 -2.9,0.05 -5.15,-0.8 l -2.55,-0.25 q -1.35,0.3 -2.3,1.25 -2.1,2.15 -5.1,2.15 -2.95,0 -5.05,-2.1 -2.1,-2.1 -2.1,-5.05 0,-2.95 2.1,-5.05 2.1,-2.1 5.05,-2.1 l 2.2,0.4 3,-0.1 q 1.55,-0.55 2.35,-1.95 2.55,-4.6 7.4,-8.05 0.95,-0.7 1.45,-1.7 0.45,-1.1 0.4,-2.25 -0.05,-1.15 -0.7,-2.1 -0.6,-1 -1.65,-1.55 -2.65,-1.45 -4.1,-3.25 -1.65,-2 -1.75,-4.25 -0.1,-3.05 2.55,-5.7 2.35,-2.4 6.55,-4 2.05,-0.85 2.7,-2.95 0.3,-1 0.1,-2.05 -0.2,-1.05 -0.8,-1.85 -1.8,-2.45 -2.15,-4.8 -0.25,-1.75 0.5,-2.75 0.85,-1.15 3.15,-1.35 3,-0.25 6.55,1.5"
             inkscape:connector-curvature="0"
             style="vector-effect:none;fill:#ff0000;fill-opacity:1;stroke:none;stroke-width:0.32834008;stroke-linecap:butt;stroke-linejoin:miter;stroke-miterlimit:4;stroke-dasharray:none;stroke-dashoffset:0;stroke-opacity:1" />
        </g>
        <path
           style="opacity:1;vector-effect:none;fill:#ff0000;fill-opacity:1;stroke:none;stroke-width:0.43662176;stroke-linecap:butt;stroke-linejoin:miter;stroke-miterlimit:4;stroke-dasharray:none;stroke-dashoffset:0;stroke-opacity:1"
           d="M 0 0.4921875 L 0 648 L 1152 648 L 1152 0.4921875 L 0 0.4921875 z M 18.183594 19.064453 L 1133.8164 19.064453 L 1133.8164 629.42773 L 18.183594 629.42773 L 18.183594 19.064453 z "
           id="rect3334"
           transform="matrix(0.11552283,0,0,0.11552283,33.88733,112.25424)" />
        <rect
           style="opacity:1;vector-effect:none;fill:#ff0000;fill-opacity:1;stroke:none;stroke-width:0.05043977;stroke-linecap:butt;stroke-linejoin:miter;stroke-miterlimit:4;stroke-dasharray:none;stroke-dashoffset:0;stroke-opacity:1"
           id="rect3339"
           width="42.41338"
           height="13.197752"
           x="79.271301"
           y="178.30138"
           rx="4.2908478"
           ry="4.2908478" />
        <g
           id="g3161"
           transform="matrix(0.08548646,0,0,0.08548646,37.979219,116.4375)"
           style="opacity:1;fill:#ff0000;fill-opacity:1;stroke-width:0.59003234">
          <path
             id="path3159"
             d="m 15.7,-13.4 0.2,0.1 3.45,0.1 q 1.75,-0.6 2.75,-2.1 6.4,-10 17.15,-14.2 l 6.3,0.15 q 3.15,1.35 4.35,4.55 1.25,3.15 -0.15,6.25 -1.35,3.15 -4.5,4.35 l -15.8,6.1 q -1.6,0.65 -2.5,2.05 -0.9,1.45 -0.8,3.1 v 1.25 q -0.2,1.75 0.75,3.25 0.9,1.5 2.55,2.15 7.45,2.75 13.05,8.65 2.4,2.45 2.3,5.85 -0.1,3.4 -2.55,5.75 Q 39.8,26.3 36.4,26.2 33,26.15 30.65,23.7 l -4.3,-4.55 q -1,-1.05 -2.4,-1.4 L 21.1,17.8 q -1.4,0.45 -2.35,1.55 -0.95,1.1 -1.2,2.55 -0.35,2.25 -1.85,3.9 -1.5,1.7 -3.7,2.3 h -0.15 q -1.2,0.3 -2.15,1.05 -0.9,0.8 -1.4,1.9 -0.5,1.1 -0.45,2.3 0.05,1.25 0.65,2.3 3.35,5.95 4.2,13 0.4,3.4 -1.7,6.05 Q 8.9,57.4 5.5,57.8 2.15,58.2 -0.55,56.1 -3.2,54 -3.6,50.6 L -6.5,25.45 q -0.3,-2.35 -2.2,-3.65 -1.9,-1.35 -4.2,-0.8 -1.95,0.55 -3.7,-0.55 l -0.65,-0.55 q -0.95,-0.85 -2.2,-1.2 l -2.45,-0.05 q -1.3,0.3 -2.25,1.1 -0.95,0.85 -1.45,2.05 -3.65,9.35 -11.7,15.45 -2.75,2 -6.1,1.55 -3.4,-0.5 -5.45,-3.2 -2,-2.7 -1.55,-6.1 0.5,-3.35 3.2,-5.4 l 8.45,-6.35 q 1.2,-0.9 1.75,-2.2 0.5,-1.4 0.25,-2.8 -0.25,-1.45 -1.2,-2.55 -1,-1.05 -2.4,-1.5 -1.25,-0.35 -2.15,-1.3 -0.9,-1 -1.2,-2.35 -0.35,-1.95 0.75,-3.6 1.1,-1.65 3.05,-2.05 l 5.1,-1.05 q 1.75,-0.35 2.9,-1.65 1.15,-1.35 1.2,-3.05 0.15,-1.75 -0.85,-3.2 -1,-1.45 -2.65,-2 -7.1,-2.35 -12.75,-7.6 -2.5,-2.3 -2.65,-5.7 -0.15,-3.4 2.15,-5.9 2.2,-2.35 5.4,-2.6 1.35,-0.1 2.45,-0.85 1.15,-0.75 1.75,-1.95 0.6,-1.2 0.55,-2.55 -0.05,-1.35 -0.8,-2.5 -1.5,-2.35 -2.7,-5.3 -1.3,-3.15 0,-6.3 1.3,-3.15 4.45,-4.4 3.15,-1.3 6.3,0 3.15,1.3 4.4,4.45 l 2.7,6.45 q 0.85,2.2 3.15,2.95 l 2.2,0.25 q 1.1,-0.15 2.05,-0.75 2.2,-1.3 4.7,-1.15 2.45,0.15 4.4,1.6 1.9,1.35 2.8,3.6 0.55,1.35 1.75,2.25 1.2,0.9 2.7,0.95 1.5,0.1 2.8,-0.6 1.3,-0.75 2,-2.05 l 1.7,-2.8 q 1.9,-2.85 5.25,-3.55 3.35,-0.65 6.15,1.25 2.8,1.9 3.5,5.2 0.65,3.35 -1.2,6.15 l -7.9,11.9 q -0.8,1.15 -0.9,2.6 -0.05,1.4 0.6,2.65 0.95,1.8 2.9,2.45"
             inkscape:connector-curvature="0"
             style="fill:#ff0000;fill-opacity:1;stroke:none;stroke-width:0.59003234" />
        </g>
      </g>
      <g
         id="g3276"
         transform="matrix(0.11552283,0,0,0.11552283,166.3676,115.86041)"
         style="opacity:1;fill:#ff0000;fill-opacity:1">
        <path
           id="path3274"
           d="m -11.85,-44.2 q 1.3,2.2 3.55,3.4 2.3,1.15 4.9,0.9 2.55,-0.25 4.55,-1.9 1.95,-1.6 2.75,-4.1 1.15,-3.55 4.15,-5.75 3.05,-2.25 6.85,-2.25 4.75,0 8.15,3.4 3.4,3.35 3.4,8.15 0,2.35 -0.95,4.55 -0.95,2.15 -0.65,4.6 0.35,2.35 1.85,4.25 1.5,1.85 3.75,2.7 l 4.65,0.35 2.3,-0.2 q 5.75,0 9.8,4.05 4.05,4.05 4.05,9.8 0,5.45 -3.65,9.4 -3.7,4 -9.05,4.4 -2.45,0.25 -4.4,1.65 -1.95,1.45 -2.9,3.7 -0.9,2.3 -0.5,4.7 0.4,2.4 2,4.25 3.4,3.9 3.4,9.05 0,5.75 -4.05,9.8 -4.05,4.1 -9.8,4.1 -5.55,0 -9.6,-3.9 -1.8,-1.75 -4.3,-2.25 -2.5,-0.5 -4.85,0.45 -2.35,0.95 -3.85,3 -1.5,2.1 -1.6,4.65 -0.25,5.5 -4.25,9.3 -4.05,3.85 -9.6,3.85 -5.75,0 -9.8,-4.05 -4.05,-4.1 -4.05,-9.85 0,-4.2 2.4,-7.8 1.5,-2.15 1.55,-4.7 0.05,-2.6 -1.35,-4.8 -1.4,-2.2 -3.75,-3.25 -2.35,-1.05 -4.9,-0.65 l -1.65,0.1 q -5.75,0 -9.85,-4.05 -4.05,-4.05 -4.05,-9.8 0,-3.65 1.8,-6.8 1.75,-3.05 4.7,-4.9 2.15,-1.35 3.2,-3.65 1.1,-2.3 0.75,-4.8 l -0.1,-1.45 q 0,-3.1 1.35,-5.95 1.3,-2.7 3.6,-4.65 1.9,-1.6 2.7,-4 0.75,-2.35 0.15,-4.75 l -0.3,-2.55 q 0,-4.8 3.4,-8.15 3.35,-3.4 8.15,-3.4 3.15,0 5.85,1.6 2.6,1.55 4.1,4.2"
           inkscape:connector-curvature="0"
           style="fill:#ff0000;fill-opacity:1;stroke:none" />
      </g>
      <g
         id="g3290"
         transform="matrix(-0.03214891,0.11095933,-0.11095933,-0.03214891,35.038813,156.07016)"
         style="opacity:1;fill:#ff0000;fill-opacity:1">
        <path
           id="path3288"
           d="m -23.2,-23.7 q 0.9,-0.75 1.1,-1.9 0.25,-1.1 -0.3,-2.15 -1.2,-2.55 -0.4,-5.2 0.8,-2.75 3.25,-4.15 2.55,-1.5 5.45,-0.75 2.85,0.8 4.35,3.35 0.75,1.35 0.9,2.85 0.1,0.9 0.6,1.6 l 1.4,1.15 1.7,0.3 q 0.9,-0.05 1.65,-0.65 1.6,-1.1 3.5,-1.25 1.2,-0.1 2.05,-0.95 0.9,-0.85 1.05,-2.05 0.25,-2.45 2.1,-4.25 1.85,-1.8 4.45,-2.15 l 3.5,0.3 q 1.65,0.55 2.9,1.65 1.05,1.05 2.55,0.95 1.45,-0.1 2.4,-1.3 1.2,-1.5 2.95,-2.5 3.8,-2.2 8.05,-1.05 4.25,1.15 6.45,4.95 1.15,2 1.35,4.25 0.2,2.25 -0.5,4.3 -0.3,0.9 -0.1,1.85 0.25,0.95 0.9,1.6 0.65,0.7 1.6,0.9 l 1.85,-0.05 q 3.5,-1.2 7,0.15 3.5,1.35 5.4,4.6 2.2,3.8 1.1,8.05 Q 55.9,-7 52.1,-4.8 50,-3.6 47.65,-3.45 45.35,-3.25 43.2,-4 L 41,-4.05 q -1.05,0.35 -1.7,1.25 -0.65,0.95 -0.6,2.15 0.05,1.15 0.8,2 l 1.15,1.6 q 2.2,3.8 1.05,8.05 -1.15,4.25 -4.95,6.45 -2.1,1.2 -4.5,1.35 -2.4,0.15 -4.65,-0.7 l -2.65,0.15 q -1.3,0.65 -1.75,2.05 -0.65,2 -2.05,3.35 -1.9,1.85 -4.5,2.15 -2.55,0.35 -4.6,-0.95 -1.05,-0.65 -2.3,-0.5 -1.15,0.2 -2,1.1 -1.65,1.8 -4.2,2.15 -2.55,0.35 -4.9,-0.9 -2.1,-1.1 -3.2,-3.15 -1.1,-2.05 -0.85,-4.3 0.1,-0.8 -0.2,-1.55 l -0.9,-1.35 q -0.6,-0.5 -1.45,-0.7 -0.75,-0.2 -1.6,0 l -2.65,0.05 q -1.2,-0.15 -2.25,0.45 -1.05,0.6 -1.45,1.7 L -16.45,19 q -0.65,1 -0.5,2.25 0.2,1.15 1.05,2 0.8,0.7 1.3,1.55 1.3,2.3 0.6,4.8 -0.7,2.6 -2.95,3.95 -1.7,0.95 -3.65,0.8 -1.85,-0.1 -3.4,-1.25 -0.65,-0.45 -1.4,-0.6 l -1.6,0.1 q -0.8,0.3 -1.4,0.85 -0.6,0.6 -0.8,1.35 -0.6,1.85 -1.8,3.45 -1.25,1.55 -3,2.6 -3.8,2.2 -8.05,1.05 -4.2,-1.15 -6.4,-4.95 -2.15,-3.65 -1.15,-7.85 1,-4.1 4.6,-6.35 0.95,-0.65 1.4,-1.8 0.35,-1.15 -0.1,-2.25 -0.75,-2.1 -0.05,-4.2 0.25,-0.8 0.15,-1.6 -0.1,-0.8 -0.6,-1.45 -0.45,-0.65 -1.15,-1 -0.75,-0.35 -1.55,-0.35 -2.75,-0.05 -5.15,-1.45 -2.5,-1.4 -3.9,-3.85 -2.2,-3.85 -1.05,-8.05 1.1,-4.25 4.9,-6.45 2.35,-1.35 5.15,-1.45 1.15,0 2.05,-0.65 0.95,-0.8 1.15,-1.9 0.7,-2.65 3.05,-4 2,-1.15 4.3,-0.75 2.2,0.4 3.75,2.1 0.6,0.75 1.5,1 l 1.8,0.1 q 0.95,-0.2 1.6,-0.9 0.65,-0.65 0.9,-1.6 0.85,-3.55 3.65,-5.95"
           inkscape:connector-curvature="0"
           style="fill:#ff0000;fill-opacity:1;stroke:none" />
      </g>
      <g
         style="opacity:1;fill:#ff0000;fill-opacity:1"
         transform="matrix(0.11552283,0,0,0.11552283,167.11212,137.32781)"
         id="g3316">
        <path
           style="fill:#ff0000;fill-opacity:1;stroke:none"
           inkscape:connector-curvature="0"
           d="m -42.5,-25.6 q 2.05,-0.2 3.45,-1.7 1.35,-1.55 1.3,-3.6 l -0.05,-0.9 q 0.05,-7.35 5.25,-12.55 5.2,-5.2 12.55,-5.2 6.9,0 11.95,4.6 5.05,4.6 5.75,11.3 0.25,2.35 2.2,3.7 l 0.15,0.1 0.45,0.4 q 1.85,1.5 4.15,1.1 2.35,-0.4 3.6,-2.4 1.45,-2.4 3.9,-3.85 2.55,-1.4 5.5,-1.4 2.3,0 4.45,0.95 2.05,0.9 3.6,2.55 0.95,1.05 2.3,1.45 l 2.7,0.1 4,-0.45 q 7.35,0 12.55,5.2 5.25,5.2 5.25,12.6 0,4.2 -1.85,7.9 -1.8,3.65 -5,6.15 -1.35,1.05 -1.8,2.7 -0.5,1.65 0.15,3.25 0.7,1.8 0.7,3.85 0,3.95 -2.45,7 -2.5,3 -6.25,3.8 -1.95,0.4 -3.1,2.05 -1.15,1.65 -0.95,3.6 l 0.1,1.2 q 0,4.55 -3.25,7.8 -3.25,3.2 -7.8,3.2 -4.55,0 -7.8,-3.2 -3.2,-3.2 -3.25,-7.75 0,-2.3 -1.7,-3.8 Q 6.55,22.6 4.2,22.85 L 0,22.5 -3.25,22.7 q -1.6,0.7 -2.5,2.15 -0.9,1.5 -0.7,3.2 0.15,1.75 1.35,3 2.95,3.15 2.95,7.45 0,4.55 -3.25,7.8 -3.25,3.25 -7.8,3.25 -4.55,0 -7.8,-3.25 -3.25,-3.25 -3.25,-7.8 l 0.05,-0.8 q 0.15,-1.4 -0.5,-2.7 -0.65,-1.3 -1.85,-2.1 -1.2,-0.75 -2.6,-0.8 -1.45,-0.1 -2.7,0.6 -2.45,1.3 -5.2,1.3 -4.55,0 -7.8,-3.25 -3.25,-3.25 -3.25,-7.8 0,-4.55 3.25,-7.8 3.25,-3.25 7.8,-3.25 l 2.15,0.25 q 2,0.4 3.8,-0.7 1.75,-1.1 2.25,-3.1 l 0.3,-0.95 q 0.7,-1.7 0.15,-3.5 -0.6,-1.8 -2.2,-2.8 -1.7,-1.05 -2.9,-2.85 -0.9,-1.35 -2.45,-1.9 l -3.1,-0.2 -2.4,0.25 q -4.6,0 -7.8,-3.25 -3.25,-3.2 -3.25,-7.8 0,-4.25 2.9,-7.4 2.9,-3.15 7.1,-3.55"
           id="path3314" />
      </g>
      <g
         style="opacity:1;fill:#ff0000;fill-opacity:1"
         transform="matrix(0.11552283,0,0,0.11552283,122.78813,186.9031)"
         id="g3320">
        <path
           style="fill:#ff0000;fill-opacity:1;stroke:none"
           inkscape:connector-curvature="0"
           d="m -42.5,-25.6 q 2.05,-0.2 3.45,-1.7 1.35,-1.55 1.3,-3.6 l -0.05,-0.9 q 0.05,-7.35 5.25,-12.55 5.2,-5.2 12.55,-5.2 6.9,0 11.95,4.6 5.05,4.6 5.75,11.3 0.25,2.35 2.2,3.7 l 0.15,0.1 0.45,0.4 q 1.85,1.5 4.15,1.1 2.35,-0.4 3.6,-2.4 1.45,-2.4 3.9,-3.85 2.55,-1.4 5.5,-1.4 2.3,0 4.45,0.95 2.05,0.9 3.6,2.55 0.95,1.05 2.3,1.45 l 2.7,0.1 4,-0.45 q 7.35,0 12.55,5.2 5.25,5.2 5.25,12.6 0,4.2 -1.85,7.9 -1.8,3.65 -5,6.15 -1.35,1.05 -1.8,2.7 -0.5,1.65 0.15,3.25 0.7,1.8 0.7,3.85 0,3.95 -2.45,7 -2.5,3 -6.25,3.8 -1.95,0.4 -3.1,2.05 -1.15,1.65 -0.95,3.6 l 0.1,1.2 q 0,4.55 -3.25,7.8 -3.25,3.2 -7.8,3.2 -4.55,0 -7.8,-3.2 -3.2,-3.2 -3.25,-7.75 0,-2.3 -1.7,-3.8 Q 6.55,22.6 4.2,22.85 L 0,22.5 -3.25,22.7 q -1.6,0.7 -2.5,2.15 -0.9,1.5 -0.7,3.2 0.15,1.75 1.35,3 2.95,3.15 2.95,7.45 0,4.55 -3.25,7.8 -3.25,3.25 -7.8,3.25 -4.55,0 -7.8,-3.25 -3.25,-3.25 -3.25,-7.8 l 0.05,-0.8 q 0.15,-1.4 -0.5,-2.7 -0.65,-1.3 -1.85,-2.1 -1.2,-0.75 -2.6,-0.8 -1.45,-0.1 -2.7,0.6 -2.45,1.3 -5.2,1.3 -4.55,0 -7.8,-3.25 -3.25,-3.25 -3.25,-7.8 0,-4.55 3.25,-7.8 3.25,-3.25 7.8,-3.25 l 2.15,0.25 q 2,0.4 3.8,-0.7 1.75,-1.1 2.25,-3.1 l 0.3,-0.95 q 0.7,-1.7 0.15,-3.5 -0.6,-1.8 -2.2,-2.8 -1.7,-1.05 -2.9,-2.85 -0.9,-1.35 -2.45,-1.9 l -3.1,-0.2 -2.4,0.25 q -4.6,0 -7.8,-3.25 -3.25,-3.2 -3.25,-7.8 0,-4.25 2.9,-7.4 2.9,-3.15 7.1,-3.55"
           id="path3318" />
      </g>
      <g
         id="g3304"
         transform="matrix(0.07275683,-0.08973276,0.08973276,0.07275683,52.958482,114.43341)"
         style="opacity:1;fill:#ff0000;fill-opacity:1">
        <path
           id="path3302"
           d="m -42.5,-25.6 q 2.05,-0.2 3.45,-1.7 1.35,-1.55 1.3,-3.6 l -0.05,-0.9 q 0.05,-7.35 5.25,-12.55 5.2,-5.2 12.55,-5.2 6.9,0 11.95,4.6 5.05,4.6 5.75,11.3 0.25,2.35 2.2,3.7 l 0.15,0.1 0.45,0.4 q 1.85,1.5 4.15,1.1 2.35,-0.4 3.6,-2.4 1.45,-2.4 3.9,-3.85 2.55,-1.4 5.5,-1.4 2.3,0 4.45,0.95 2.05,0.9 3.6,2.55 0.95,1.05 2.3,1.45 l 2.7,0.1 4,-0.45 q 7.35,0 12.55,5.2 5.25,5.2 5.25,12.6 0,4.2 -1.85,7.9 -1.8,3.65 -5,6.15 -1.35,1.05 -1.8,2.7 -0.5,1.65 0.15,3.25 0.7,1.8 0.7,3.85 0,3.95 -2.45,7 -2.5,3 -6.25,3.8 -1.95,0.4 -3.1,2.05 -1.15,1.65 -0.95,3.6 l 0.1,1.2 q 0,4.55 -3.25,7.8 -3.25,3.2 -7.8,3.2 -4.55,0 -7.8,-3.2 -3.2,-3.2 -3.25,-7.75 0,-2.3 -1.7,-3.8 Q 6.55,22.6 4.2,22.85 L 0,22.5 -3.25,22.7 q -1.6,0.7 -2.5,2.15 -0.9,1.5 -0.7,3.2 0.15,1.75 1.35,3 2.95,3.15 2.95,7.45 0,4.55 -3.25,7.8 -3.25,3.25 -7.8,3.25 -4.55,0 -7.8,-3.25 -3.25,-3.25 -3.25,-7.8 l 0.05,-0.8 q 0.15,-1.4 -0.5,-2.7 -0.65,-1.3 -1.85,-2.1 -1.2,-0.75 -2.6,-0.8 -1.45,-0.1 -2.7,0.6 -2.45,1.3 -5.2,1.3 -4.55,0 -7.8,-3.25 -3.25,-3.25 -3.25,-7.8 0,-4.55 3.25,-7.8 3.25,-3.25 7.8,-3.25 l 2.15,0.25 q 2,0.4 3.8,-0.7 1.75,-1.1 2.25,-3.1 l 0.3,-0.95 q 0.7,-1.7 0.15,-3.5 -0.6,-1.8 -2.2,-2.8 -1.7,-1.05 -2.9,-2.85 -0.9,-1.35 -2.45,-1.9 l -3.1,-0.2 -2.4,0.25 q -4.6,0 -7.8,-3.25 -3.25,-3.2 -3.25,-7.8 0,-4.25 2.9,-7.4 2.9,-3.15 7.1,-3.55"
           inkscape:connector-curvature="0"
           style="fill:#ff0000;fill-opacity:1;stroke:none" />
      </g>
    </g>
  </g>
</svg>
